<svg width="32" height="24" viewBox="0 0 32 24" fill="none" xmlns="http://www.w3.org/2000/svg">
<path d="M23.9693 3.81071L31.0487 11.0759C31.6164 11.6493 31.6628 12.2795 31.1064 12.8568L23.9309 20.2206C23.5889 20.5716 22.7575 20.631 22.3098 20.1716C21.8622 19.7122 21.9678 18.9079 22.3098 18.5569L27.5633 13.1656H1.56147C0.975238 13.1656 0.5 12.6389 0.5 11.9893C0.5 11.3396 0.975238 10.8129 1.56147 10.8129H27.5502L22.3482 5.47434C21.9345 5.04978 21.9374 4.22704 22.3481 3.81121C22.7534 3.40092 23.5611 3.3918 23.9693 3.81071Z" fill="url(#paint0_linear_1358_4690)"/>
<defs>
<linearGradient id="paint0_linear_1358_4690" x1="-4.38521" y1="-3.40625" x2="40.5255" y2="8.52162" gradientUnits="userSpaceOnUse">
<stop stop-color="#FF6C40"/>
<stop offset="1" stop-color="#FFB800"/>
</linearGradient>
</defs>
</svg>
