<?xml version="1.0" encoding="utf-8"?>
<!-- Generator: Adobe Illustrator 24.1.2, SVG Export Plug-In . SVG Version: 6.00 Build 0)  -->
<svg version="1.1" id="Glyph" xmlns="http://www.w3.org/2000/svg" xmlns:xlink="http://www.w3.org/1999/xlink" x="0px" y="0px"
	 viewBox="0 0 200 200" style="enable-background:new 0 0 200 200;" xml:space="preserve">
<style type="text/css">
	.st0{fill:#1583E9;}
</style>
<path class="st0" d="M1.1,138.3c0.1,1.5,1.2,2.7,2.6,3l11.5,2.5c0.4,2,0.9,3.9,1.5,5.8L8,157.4c-1.1,1-1.4,2.6-0.8,3.9
	c1.6,3.4,3.4,6.4,5.3,9.2c0.8,1.2,2.3,1.7,3.7,1.3l11.2-3.6c1.3,1.5,2.8,2.9,4.3,4.3l-3.6,11.2c-0.4,1.4,0.1,2.9,1.3,3.7
	c2.8,1.9,5.9,3.7,9.2,5.3c1.3,0.6,2.9,0.3,3.9-0.8l7.9-8.7c1.9,0.6,3.8,1.1,5.8,1.5l2.5,11.5c0.3,1.4,1.5,2.5,3,2.6
	c1.8,0.1,3.5,0.3,5.3,0.3c1.8,0,3.6-0.1,5.3-0.3c1.5-0.1,2.7-1.2,3-2.6l2.5-11.5c2-0.4,3.9-0.9,5.8-1.5l7.9,8.7
	c1,1.1,2.6,1.4,3.9,0.8c3.4-1.6,6.4-3.4,9.2-5.3c1.2-0.8,1.7-2.3,1.3-3.7l-3.6-11.2c1.5-1.3,2.9-2.8,4.3-4.3l11.2,3.6
	c1.4,0.4,2.9-0.1,3.7-1.3c1.9-2.8,3.7-5.9,5.3-9.2c0.6-1.3,0.3-2.9-0.8-3.9l-8.7-7.9c0.6-1.9,1.1-3.8,1.5-5.8l11.5-2.5
	c1.4-0.3,2.5-1.5,2.6-3c0.1-1.8,0.3-3.5,0.3-5.3c0-1.8-0.1-3.6-0.3-5.3c-0.1-1.5-1.2-2.7-2.6-3l-11.5-2.5c-0.4-2-0.9-3.9-1.5-5.8
	l8.7-7.9c1.1-1,1.4-2.6,0.8-3.9c-1.6-3.4-3.4-6.4-5.3-9.2c-0.8-1.2-2.3-1.7-3.7-1.3l-11.2,3.6c-1.3-1.5-2.8-2.9-4.3-4.3l3.6-11.2
	c0.4-1.4-0.1-2.9-1.3-3.7c-2.8-1.9-5.9-3.7-9.2-5.3c-1.3-0.6-2.9-0.3-3.9,0.8l-7.9,8.7c-1.9-0.6-3.8-1.1-5.8-1.5l-2.5-11.5
	c-0.3-1.4-1.5-2.5-3-2.6c-3.5-0.3-7.1-0.3-10.6,0c-1.5,0.1-2.7,1.2-3,2.6l-2.5,11.5c-2,0.4-3.9,0.9-5.8,1.5l-7.9-8.7
	c-1-1.1-2.5-1.4-3.9-0.8c-3.4,1.6-6.4,3.4-9.2,5.3c-1.2,0.8-1.7,2.3-1.3,3.7l3.6,11.2c-1.5,1.3-2.9,2.8-4.3,4.3l-11.2-3.6
	c-1.4-0.4-2.9,0.1-3.7,1.3c-1.9,2.8-3.7,5.9-5.3,9.2C6.7,106,7,107.6,8,108.5l8.7,7.9c-0.6,1.9-1.1,3.8-1.5,5.8l-11.5,2.5
	c-1.4,0.3-2.5,1.5-2.6,3c-0.1,1.8-0.3,3.5-0.3,5.3C0.8,134.8,1,136.6,1.1,138.3L1.1,138.3z M7.5,130.7l11.2-2.4
	c1.3-0.3,2.3-1.4,2.6-2.7c0.5-3,1.3-6,2.4-8.9c0.5-1.3,0.1-2.7-0.9-3.6l-8.5-7.7c0.7-1.4,1.5-2.8,2.3-4.1l10.9,3.5
	c1.3,0.4,2.7,0,3.6-1.1c1.9-2.4,4.1-4.6,6.5-6.5c1.1-0.9,1.5-2.3,1.1-3.6l-3.5-10.9c1.3-0.8,2.6-1.6,4.1-2.3l7.7,8.5
	c0.9,1,2.4,1.4,3.6,0.9c2.8-1.1,5.8-1.9,8.9-2.4c1.3-0.2,2.4-1.2,2.7-2.6l2.4-11.2c1.6-0.1,3.1-0.1,4.7,0l2.4,11.2
	c0.3,1.3,1.4,2.3,2.7,2.6c3,0.5,6,1.3,8.9,2.4c1.3,0.5,2.7,0.1,3.6-0.9l7.7-8.5c1.4,0.7,2.8,1.5,4.1,2.3l-3.5,10.9
	c-0.4,1.3,0,2.7,1.1,3.6c2.4,1.9,4.6,4.1,6.5,6.5c0.9,1.1,2.3,1.5,3.6,1.1l10.9-3.5c0.8,1.3,1.6,2.6,2.3,4.1L111,113
	c-1,0.9-1.4,2.3-0.9,3.6c1.1,2.8,1.9,5.8,2.4,8.9c0.2,1.3,1.2,2.4,2.6,2.7l11.2,2.4c0,0.8,0.1,1.6,0.1,2.3c0,0.8,0,1.6-0.1,2.3
	l-11.2,2.4c-1.3,0.3-2.3,1.4-2.6,2.7c-0.5,3-1.3,6-2.4,8.9c-0.5,1.3-0.1,2.7,0.9,3.6l8.5,7.7c-0.7,1.4-1.5,2.8-2.3,4.1l-10.9-3.5
	c-1.3-0.4-2.7,0-3.6,1.1c-1.9,2.4-4.1,4.6-6.5,6.5c-1.1,0.9-1.5,2.3-1.1,3.6l3.5,10.9c-1.3,0.8-2.6,1.6-4.1,2.3l-7.7-8.5
	c-0.9-1-2.3-1.3-3.6-0.9c-2.8,1.1-5.8,1.9-8.9,2.4c-1.3,0.2-2.4,1.2-2.7,2.6l-2.4,11.2c-1.6,0.1-3.1,0.1-4.7,0l-2.4-11.2
	c-0.3-1.3-1.4-2.3-2.7-2.6c-3-0.5-6-1.3-8.9-2.4c-1.3-0.5-2.7-0.1-3.6,0.9l-7.7,8.5c-1.4-0.7-2.8-1.5-4.1-2.3l3.5-10.9
	c0.4-1.3,0-2.7-1.1-3.6c-2.4-1.9-4.6-4.1-6.5-6.5c-0.9-1.1-2.3-1.5-3.6-1.1l-10.9,3.5c-0.8-1.3-1.6-2.6-2.3-4.1l8.5-7.7
	c1-0.9,1.4-2.3,0.9-3.6c-1.1-2.8-1.9-5.8-2.4-8.9c-0.2-1.3-1.2-2.4-2.6-2.7l-11.2-2.4c0-0.8-0.1-1.6-0.1-2.3
	C7.4,132.2,7.5,131.4,7.5,130.7z"/>
<path class="st0" d="M173.4,47.9c1.2-0.4,2.1-1.5,2.3-2.8c0.2-1.7,0.3-3.2,0.3-4.6c0-1.4-0.1-2.9-0.3-4.6c-0.1-1.3-1-2.4-2.3-2.8
	l-9.2-2.9c-0.3-0.8-0.6-1.5-0.9-2.2l4.4-8.5c0.6-1.2,0.5-2.6-0.3-3.6c-1.9-2.4-4.1-4.6-6.5-6.5c-1-0.8-2.4-0.9-3.6-0.3l-8.5,4.4
	c-0.7-0.3-1.5-0.6-2.2-0.9l-2.9-9.2c-0.4-1.2-1.5-2.1-2.8-2.3c-3.3-0.4-5.9-0.4-9.2,0c-1.3,0.1-2.4,1-2.8,2.3l-2.9,9.2
	c-0.8,0.3-1.5,0.6-2.2,0.9l-8.5-4.4c-1.2-0.6-2.6-0.5-3.6,0.3c-2.4,1.9-4.6,4.1-6.5,6.5c-0.8,1-0.9,2.4-0.3,3.6l4.4,8.5
	c-0.3,0.7-0.6,1.5-0.9,2.2l-9.2,2.9c-1.2,0.4-2.1,1.5-2.3,2.8c-0.2,1.7-0.3,3.2-0.3,4.6c0,1.4,0.1,2.9,0.3,4.6
	c0.1,1.3,1,2.4,2.3,2.8l9.2,2.9c0.3,0.8,0.6,1.5,0.9,2.2l-4.4,8.5c-0.6,1.2-0.5,2.6,0.3,3.6c1.9,2.4,4.1,4.6,6.5,6.5
	c1,0.8,2.4,0.9,3.6,0.3l8.5-4.4c0.7,0.3,1.5,0.6,2.2,0.9l2.9,9.2c0.4,1.2,1.5,2.1,2.8,2.3c1.7,0.2,3.2,0.3,4.6,0.3s2.9-0.1,4.6-0.3
	c1.3-0.1,2.4-1,2.8-2.3l2.9-9.2c0.8-0.3,1.5-0.6,2.2-0.9l8.5,4.4c1.2,0.6,2.6,0.5,3.6-0.3c2.4-1.9,4.6-4.1,6.5-6.5
	c0.8-1,0.9-2.4,0.3-3.6l-4.4-8.5c0.3-0.7,0.6-1.5,0.9-2.2L173.4,47.9z M160.6,45c-1,0.3-1.9,1.2-2.2,2.2c-0.4,1.5-1,2.9-1.8,4.3
	c-0.5,1-0.5,2.1,0,3.1l4.2,8c-0.8,0.9-1.6,1.7-2.5,2.5l-8-4.2c-1-0.5-2.1-0.5-3.1,0c-1.3,0.7-2.8,1.3-4.3,1.8
	c-1,0.3-1.9,1.1-2.2,2.2l-2.7,8.7c-1.2,0.1-2.3,0.1-3.5,0l-2.7-8.7c-0.3-1-1.2-1.9-2.2-2.2c-1.5-0.4-2.9-1-4.3-1.8
	c-1-0.5-2.1-0.5-3.1,0l-8,4.2c-0.9-0.8-1.7-1.6-2.5-2.5l4.2-8c0.5-1,0.5-2.1,0-3.1c-0.7-1.3-1.3-2.8-1.8-4.3c-0.3-1-1.1-1.9-2.2-2.2
	l-8.7-2.7c0-0.6-0.1-1.2-0.1-1.7c0-0.6,0-1.1,0.1-1.7L112,36c1-0.3,1.9-1.2,2.2-2.2c0.4-1.5,1-2.9,1.8-4.3c0.5-1,0.5-2.1,0-3.1
	l-4.2-8c0.8-0.9,1.6-1.7,2.5-2.5l8,4.2c1,0.5,2.1,0.5,3.1,0c1.3-0.7,2.8-1.3,4.3-1.8c1-0.3,1.9-1.1,2.2-2.2l2.7-8.7
	c1.2-0.1,2.3-0.1,3.5,0l2.7,8.7c0.3,1,1.2,1.9,2.2,2.2c1.5,0.4,2.9,1,4.3,1.8c1,0.5,2.1,0.5,3.1,0l8-4.2c0.9,0.8,1.7,1.6,2.5,2.5
	l-4.2,8c-0.5,1-0.5,2.1,0,3.1c0.7,1.3,1.3,2.8,1.8,4.3c0.3,1,1.1,1.9,2.2,2.2l8.7,2.7c0,0.6,0.1,1.2,0.1,1.7c0,0.6,0,1.1-0.1,1.7
	L160.6,45z"/>
<path class="st0" d="M196.6,109.8l-5.7-2c-0.3-0.9-0.7-1.8-1.1-2.7l2.6-5.4c0.5-1.1,0.4-2.5-0.4-3.4c-1.7-2.1-3.6-4-5.7-5.7
	c-1-0.8-2.3-0.9-3.5-0.4l-5.4,2.6c-0.9-0.4-1.8-0.8-2.7-1.1l-2-5.7c-0.4-1.2-1.5-2-2.7-2.2c-2.9-0.4-5.1-0.4-8,0
	c-1.2,0.1-2.3,1-2.7,2.2l-2,5.7c-0.9,0.3-1.8,0.7-2.7,1.1l-5.4-2.6c-1.1-0.5-2.5-0.4-3.4,0.4c-2.1,1.7-4,3.6-5.7,5.7
	c-0.8,1-0.9,2.3-0.4,3.5l2.6,5.4c-0.4,0.9-0.8,1.8-1.1,2.7l-5.7,2c-1.2,0.4-2,1.5-2.2,2.7c-0.2,1.5-0.3,2.8-0.3,4s0.1,2.5,0.3,4
	c0.1,1.2,1,2.3,2.2,2.7l5.7,2c0.3,0.9,0.7,1.8,1.1,2.7l-2.6,5.4c-0.5,1.1-0.4,2.5,0.4,3.4c1.7,2.1,3.6,4,5.7,5.7
	c1,0.8,2.3,0.9,3.5,0.4l5.4-2.6c0.9,0.4,1.8,0.8,2.7,1.1l2,5.7c0.4,1.2,1.5,2,2.7,2.2c1.5,0.2,2.8,0.3,4,0.3s2.5-0.1,4-0.3
	c1.2-0.1,2.3-1,2.7-2.2l2-5.7c0.9-0.3,1.8-0.7,2.7-1.1l5.4,2.6c1.1,0.5,2.5,0.4,3.4-0.4c2.1-1.7,4-3.6,5.7-5.7
	c0.8-1,0.9-2.3,0.4-3.5l-2.6-5.4c0.4-0.9,0.8-1.8,1.1-2.7l5.7-2c1.2-0.4,2-1.5,2.2-2.7c0.2-1.5,0.3-2.8,0.3-4s-0.1-2.5-0.3-4
	C198.7,111.2,197.8,110.2,196.6,109.8L196.6,109.8z M192.4,117.7l-5.2,1.9c-1,0.4-1.8,1.2-2.1,2.2c-0.4,1.6-1.1,3.1-1.8,4.5
	c-0.5,0.9-0.6,2.1-0.1,3l2.4,5c-0.5,0.6-1.1,1.2-1.7,1.7l-5-2.4c-1-0.5-2.1-0.4-3,0.1c-1.4,0.8-2.9,1.4-4.4,1.8
	c-1,0.3-1.9,1.1-2.2,2.1l-1.9,5.2c-0.8,0-1.6,0-2.4,0l-1.9-5.2c-0.4-1-1.2-1.8-2.2-2.1c-1.6-0.4-3.1-1.1-4.5-1.8
	c-0.9-0.5-2.1-0.6-3-0.1l-5,2.4c-0.6-0.5-1.2-1.1-1.7-1.7l2.4-5c0.5-1,0.4-2.1-0.1-3c-0.8-1.4-1.4-2.9-1.8-4.4
	c-0.3-1-1.1-1.9-2.1-2.2l-5.2-1.9c0-0.4,0-0.8,0-1.2s0-0.8,0-1.2l5.2-1.9c1-0.4,1.8-1.2,2.1-2.2c0.4-1.6,1.1-3.1,1.8-4.5
	c0.5-0.9,0.6-2.1,0.1-3l-2.4-5c0.5-0.6,1.1-1.2,1.7-1.7l5,2.4c1,0.5,2.1,0.4,3-0.1c1.4-0.8,2.9-1.4,4.4-1.8c1-0.3,1.9-1.1,2.2-2.1
	l1.9-5.2c0.8,0,1.6,0,2.4,0l1.9,5.2c0.4,1,1.2,1.8,2.2,2.1c1.6,0.4,3.1,1.1,4.5,1.8c0.9,0.5,2.1,0.6,3,0.1l5-2.4
	c0.6,0.5,1.2,1.1,1.7,1.7l-2.4,5c-0.5,1-0.4,2.1,0.1,3c0.8,1.4,1.4,2.9,1.8,4.4c0.3,1,1.1,1.9,2.1,2.2l5.2,1.9c0,0.4,0,0.8,0,1.2
	S192.5,117.3,192.4,117.7L192.4,117.7z"/>
<path class="st0" d="M66.9,169.3c20,0,36.3-16.3,36.3-36.3S87,96.7,66.9,96.7S30.6,113,30.6,133S46.9,169.3,66.9,169.3z M66.9,103.3
	c16.4,0,29.7,13.3,29.7,29.7s-13.3,29.7-29.7,29.7S37.2,149.4,37.2,133S50.5,103.3,66.9,103.3z"/>
<path class="st0" d="M0.9,78L6,82.3c15.1-18.1,37.3-28.5,60.9-28.5c1.7,0,3.4,0.1,5,0.2L67.9,58l4.7,4.7l9.9-9.9
	c1.3-1.3,1.3-3.4,0-4.7l-9.9-9.9l-4.7,4.7l4.5,4.5c-1.8-0.1-3.6-0.2-5.5-0.2C41.4,47.1,17.3,58.4,0.9,78L0.9,78z"/>
<path class="st0" d="M136.3,24c-9.1,0-16.5,7.4-16.5,16.5S127.2,57,136.3,57s16.5-7.4,16.5-16.5S145.4,24,136.3,24z M136.3,50.4
	c-5.5,0-9.9-4.4-9.9-9.9s4.4-9.9,9.9-9.9s9.9,4.4,9.9,9.9S141.8,50.4,136.3,50.4z"/>
<path class="st0" d="M166,103.3c-7.3,0-13.2,5.9-13.2,13.2s5.9,13.2,13.2,13.2c7.3,0,13.2-5.9,13.2-13.2S173.3,103.3,166,103.3z
	 M166,123.1c-3.6,0-6.6-3-6.6-6.6c0-3.6,3-6.6,6.6-6.6c3.6,0,6.6,3,6.6,6.6C172.6,120.1,169.7,123.1,166,123.1z"/>
<path class="st0" d="M196.4,10.8l-16.5-3.3c-1.8-0.4-3.5,0.8-3.9,2.6l-3.3,16.5l6.5,1.3L181,19c3.2,6.7,4.9,14,4.9,21.5
	c0,11.4-3.8,22.1-10.9,31l5.2,4.1c7.9-9.9,12.3-22.4,12.3-35.1c0-8.7-2-17.2-5.8-24.9l8.5,1.7L196.4,10.8z"/>
</svg>
