<svg xmlns="http://www.w3.org/2000/svg" width="84" height="51" fill="#0b0b0c" xmlns:v="https://vecta.io/nano"><path d="M23.669 18.194c0 1.028.111 1.862.306 2.473a14.87 14.87 0 0 0 .889 2.001 1.21 1.21 0 0 1 .195.639c0 .278-.167.556-.528.834l-1.751 1.167c-.25.167-.5.25-.723.25-.278 0-.556-.139-.834-.389-.389-.417-.723-.861-1-1.306l-.862-1.64c-2.168 2.557-4.891 3.835-8.17 3.835-2.334 0-4.196-.667-5.558-2.001s-2.056-3.113-2.056-5.336c0-2.362.834-4.28 2.529-5.725s3.946-2.168 6.809-2.168c.945 0 1.918.083 2.946.222s2.084.361 3.196.611V9.634c0-2.112-.445-3.585-1.306-4.446-.889-.861-2.39-1.278-4.53-1.278-.973 0-1.973.111-3.001.361s-2.029.556-3.001.945c-.445.195-.778.306-.973.361s-.333.083-.445.083c-.389 0-.584-.278-.584-.861V3.437c0-.445.056-.778.195-.973s.389-.389.778-.584c.973-.5 2.14-.917 3.502-1.251 1.362-.361 2.807-.528 4.335-.528 3.307 0 5.725.75 7.281 2.251 1.528 1.501 2.307 3.779 2.307 6.836v9.004h.056zm-11.283 4.224c.917 0 1.862-.167 2.862-.5s1.89-.945 2.64-1.779c.445-.528.778-1.112.945-1.779s.278-1.473.278-2.418v-1.167a23.2 23.2 0 0 0-2.557-.473 20.95 20.95 0 0 0-2.612-.167c-1.862 0-3.224.361-4.141 1.112S8.44 17.054 8.44 18.444c0 1.306.333 2.279 1.028 2.946.667.695 1.64 1.028 2.918 1.028zm22.316 3.001c-.5 0-.834-.083-1.056-.278-.222-.167-.417-.556-.584-1.084L26.532 2.575c-.167-.556-.25-.917-.25-1.112 0-.445.222-.695.667-.695h2.724c.528 0 .889.083 1.084.278.222.167.389.556.556 1.084l4.669 18.397 4.335-18.397c.139-.556.306-.917.528-1.084s.611-.278 1.112-.278h2.223c.528 0 .889.083 1.112.278.222.167.417.556.528 1.084l4.391 18.619 4.808-18.619c.167-.556.361-.917.556-1.084.222-.167.584-.278 1.084-.278h2.584c.445 0 .695.222.695.695 0 .139-.028.278-.056.445a3.96 3.96 0 0 1-.194.695l-6.697 21.482c-.167.556-.361.917-.584 1.084s-.584.278-1.056.278h-2.39c-.528 0-.889-.083-1.112-.278s-.417-.556-.528-1.112L43.011 6.133l-4.28 17.897c-.139.556-.306.917-.528 1.112s-.611.278-1.112.278h-2.39zm35.71.75a18.39 18.39 0 0 1-4.28-.5c-1.389-.334-2.473-.695-3.196-1.112-.445-.25-.75-.528-.861-.778s-.167-.528-.167-.778v-1.417c0-.584.222-.861.639-.861.167 0 .334.028.5.083s.417.167.695.278a15.11 15.11 0 0 0 3.057.973 16.69 16.69 0 0 0 3.307.334c1.751 0 3.112-.306 4.057-.917s1.445-1.501 1.445-2.64c0-.778-.25-1.417-.75-1.945s-1.445-1-2.807-1.445l-4.03-1.25c-2.029-.639-3.529-1.584-4.446-2.835-.917-1.223-1.389-2.585-1.389-4.03 0-1.167.25-2.195.75-3.085s1.167-1.667 2.001-2.279c.834-.639 1.779-1.112 2.89-1.445s2.279-.472 3.502-.472c.611 0 1.251.028 1.862.111l1.806.306 1.584.445c.5.167.889.333 1.167.5.389.222.667.445.834.695.167.222.25.528.25.917v1.306c0 .584-.222.889-.639.889-.222 0-.584-.111-1.056-.333-1.584-.723-3.363-1.084-5.336-1.084-1.584 0-2.835.25-3.696.778S66.8 5.91 66.8 7.05c0 .778.278 1.445.834 1.973s1.584 1.056 3.057 1.528l3.946 1.251c2.001.639 3.446 1.528 4.307 2.668s1.278 2.445 1.278 3.891c0 1.195-.25 2.279-.723 3.224-.5.945-1.167 1.779-2.029 2.446-.862.695-1.89 1.195-3.085 1.556-1.251.389-2.557.584-3.974.584z"/><path d="M75.665 39.675c-9.143 6.753-22.427 10.338-33.848 10.338-16.007 0-30.43-5.919-41.324-15.757-.861-.778-.083-1.834.945-1.223C13.22 39.87 27.754 44.011 42.789 44.011c10.143 0 21.287-2.112 31.542-6.447 1.528-.695 2.835 1 1.334 2.112zm3.806-4.335c-1.167-1.501-7.726-.722-10.699-.361-.889.111-1.028-.667-.222-1.251 5.224-3.668 13.812-2.612 14.812-1.389 1.001 1.251-.278 9.838-5.169 13.951-.75.639-1.473.306-1.139-.528 1.112-2.751 3.585-8.948 2.418-10.421z" fill-rule="evenodd"/></svg>