<?xml version="1.0" encoding="utf-8"?>
<!-- Generator: Adobe Illustrator 24.3.0, SVG Export Plug-In . SVG Version: 6.00 Build 0)  -->
<svg version="1.1" id="Layer_1" xmlns="http://www.w3.org/2000/svg" xmlns:xlink="http://www.w3.org/1999/xlink" x="0px" y="0px"
	 viewBox="0 0 512 512" style="enable-background:new 0 0 512 512;" xml:space="preserve">
<style type="text/css">
	.st0{fill:#FFFFFF;}
</style>
<g>
	<path class="st0" d="M5.7,199.8c0.3-0.6,0.7-1.1,0.8-1.7c5.2-24.3,23.4-39.6,48.5-40c20.5-0.3,41.1-0.3,61.6,0
		c27.3,0.4,48.4,20.3,49.4,46.1c0.4,9.5-5.2,16.4-13.7,17c-8.3,0.6-14.9-5.9-15.6-15.2c-0.8-10.5-8-18.2-18.5-18.4
		c-21.5-0.4-43-0.4-64.5,0c-11.2,0.2-18.6,8.6-18.6,19.8c-0.1,26.6-0.1,53.1,0,79.7c0,11.3,7.2,18.9,18.5,20.1
		c10.7,1.1,15.5,6.2,15.5,16.8c0,39.4,0,78.8,0,118.3c0,12.3-10.1,20-20.3,15.6c-6.6-2.8-9.1-8.3-9.1-15.3
		c0.1-31.9-0.2-63.9,0.2-95.8c0.1-8.2-1.1-13.1-9.6-17C17.2,323.8,9.9,312,6.7,298c-0.2-1.1-0.7-2.1-1-3.2
		C5.7,263,5.7,231.4,5.7,199.8z"/>
	<path class="st0" d="M331.2,284.6c-1.5-1.6-2.5-2.8-3.6-3.9c-7.9-8-16-15.8-23.8-23.9c-5.6-5.8-5.5-14.8-0.2-20.3
		c5.5-5.7,14.5-6.4,20.2-0.8c15.8,15.5,31.6,31.1,46.8,47.1c9,9.4,8.8,24.3-0.2,33.8c-15,15.8-30.6,31.1-46.2,46.4
		c-6.1,5.9-15.1,5.2-20.6-0.7c-5.3-5.7-5.3-14.4,0.4-20.3c7.7-8,15.6-15.7,23.4-23.6c1.1-1.1,2.1-2.3,3.7-3.9c-50.4,0-100,0-150.4,0
		c1.4,1.6,2.5,2.8,3.5,3.9c7.9,8,16,15.8,23.8,23.9c5.6,5.9,5.3,14.7-0.1,20.3c-5.6,5.7-14.3,6.2-20.2,0.4
		c-15.6-15.3-31.2-30.6-46.2-46.4c-9.3-9.7-9.1-24.9,0.2-34.6c14.9-15.5,30.2-30.6,45.5-45.7c5.8-5.8,14.6-5.5,20.3,0
		c5.8,5.6,6.1,14.6,0.3,20.7c-7.6,8-15.6,15.7-23.4,23.6c-1.1,1.1-2.1,2.3-3.7,3.9C231.1,284.6,280.8,284.6,331.2,284.6z"/>
	<path class="st0" d="M442.9,382.7c0-19.4,0-38.8,0-58.2c0-11.2,4.6-16.2,15.9-17.4c10.9-1.2,18.1-8.9,18.1-19.9
		c0.1-26.6,0.1-53.1,0-79.7c0-11.5-7.5-19.8-19-20c-21.2-0.3-42.4-0.3-63.5,0c-11.1,0.2-18.4,7.7-19.1,18.9
		c-0.6,9-7.2,15.3-15.4,14.8c-8.3-0.5-14.1-7.3-13.8-16.4c0.7-25.8,21.6-46.1,48.8-46.7c20.8-0.5,41.7-0.5,62.6,0
		c28.9,0.7,48.9,21.5,48.9,50.6c0,25.7,0.1,51.5,0,77.2c-0.1,22.3-10.3,38.2-30.9,47c-3,1.3-3.1,3.1-3.1,5.7
		c0,34.5,0,69.1,0.1,103.6c0,6.6-2,11.9-8,15c-10.2,5.3-21.2-2.1-21.3-14.4C442.9,422.8,442.9,402.8,442.9,382.7z"/>
	<path class="st0" d="M426.3,53c27.4,0.1,49.6,22.2,49.5,49.2c-0.1,27.4-22.4,49.6-49.8,49.6c-27.1,0-49.2-22.3-49.1-49.6
		S399,52.9,426.3,53z M406.3,102.4c0,11.2,9,20.1,20.2,20.1c11-0.1,20.2-9.4,20-20.4c-0.2-10.8-9.2-19.7-20.1-19.8
		C415.1,82.3,406.2,91.2,406.3,102.4z"/>
	<path class="st0" d="M36.6,102.5C36.5,75.2,58.5,53,85.8,53c27.4,0,49.7,21.9,49.8,49c0.1,27.4-22.2,49.7-49.6,49.9
		C58.9,152,36.7,129.8,36.6,102.5z M66,102.3c0,11.3,8.9,20.2,20.1,20.2c11.1,0,20.2-9.2,20.2-20.3c-0.1-10.8-9.1-19.8-20-19.9
		C74.9,82.3,66,91.1,66,102.3z"/>
	<path class="st0" d="M106.2,406.2c0-12.2,0-24.4,0-36.6c0-9.2,6-15.7,14.3-15.9c8.4-0.2,15,6.5,15,15.8c0.1,24.6,0.1,49.2,0,73.8
		c0,9.1-6.3,15.6-14.7,15.6s-14.6-6.4-14.6-15.6C106.2,431,106.2,418.6,106.2,406.2z"/>
	<path class="st0" d="M405.7,406.2c0,12.2,0,24.4,0,36.6c0,9.6-6.1,16.1-14.6,16c-8.5,0-14.6-6.7-14.7-16.1
		c-0.1-24.3-0.1-48.5,0-72.8c0-9.5,6-16.2,14.5-16.3c8.6-0.2,14.8,6.6,14.8,16.4C405.7,382.1,405.7,394.2,405.7,406.2z"/>
</g>
</svg>
