<svg xmlns="http://www.w3.org/2000/svg" width="48.362" height="61.183" viewBox="0 0 48.362 61.183">
  <g id="Group_13108" data-name="Group 13108" transform="translate(0.24 0.25)">
    <path id="Path_9053" data-name="Path 9053" d="M448.79,549.6c.929.226,1.88.385,2.786.68a13.429,13.429,0,0,1,9.265,12.8,1.3,1.3,0,0,0,.521,1.087,5.111,5.111,0,0,1-.136,8.064,1.093,1.093,0,0,0-.34.725,3.835,3.835,0,0,1-4.055,3.987,2.167,2.167,0,0,0-2.039.838,5.248,5.248,0,0,1-1.246,1.087.781.781,0,0,0-.362.793c.091,1.11.136,2.242.272,3.352.023.2.294.43.5.544q5.2,2.48,10.4,4.938a11.576,11.576,0,0,1,6.954,10.646c.023,3.307.023,6.592.023,9.9,0,.929-.317,1.246-1.246,1.246H424.711c-.929,0-1.246-.317-1.246-1.246,0-3.239-.023-6.478,0-9.717a11.243,11.243,0,0,1,6.863-10.759q5.233-2.514,10.533-4.983a.782.782,0,0,0,.521-.793c.045-1.065.159-2.129.2-3.194a.913.913,0,0,0-.317-.657,10.647,10.647,0,0,1-3.783-4.961.634.634,0,0,0-.634-.476,5.585,5.585,0,0,1-4.961-3.375,5.012,5.012,0,0,1,1.586-6,1,1,0,0,0,.43-.883,13.471,13.471,0,0,1,10.578-13.3c.5-.113,1-.2,1.495-.317C446.887,549.6,447.839,549.6,448.79,549.6Zm-5.708,58.735c.045-.612.091-1.2.136-1.789.181-2.877.249-5.754.566-8.608.2-1.925-.7-3.488-1.133-5.3l-1.382,1.019c-.861.634-1.427.5-1.857-.476-.725-1.654-1.427-3.33-2.152-4.983a6.565,6.565,0,0,0-.34-.7c-1.925.929-3.805,1.835-5.708,2.7a9.571,9.571,0,0,0-5.912,9.287c-.023,2.741,0,5.482,0,8.222v.634Zm26.276,0a1.6,1.6,0,0,0,.023-.317c0-2.99.068-5.957-.023-8.947a9.378,9.378,0,0,0-5.663-8.766c-.815-.408-1.631-.77-2.446-1.155q-1.767-.85-3.6-1.7c-.113.249-.227.43-.294.634-.748,1.721-1.472,3.443-2.22,5.142q-.578,1.359-1.767.476c-.43-.317-.838-.612-1.291-.951-.317,1-.657,1.88-.906,2.786a5.626,5.626,0,0,0-.227,1.721c.136,2.628.317,5.278.476,7.905.068,1.042.159,2.107.227,3.149C457.579,608.335,463.446,608.335,469.358,608.335Zm-18.484-47.862a13.225,13.225,0,0,1-7.883,3.352c-1.427.181-2.831.385-4.281.589V570.3a8.653,8.653,0,0,0,10.556,8.4,8.216,8.216,0,0,0,3.556-1.767H448.36a.936.936,0,0,1-1-1.246.979.979,0,0,1,1.065-.657h5.686a.7.7,0,0,0,.7-.408,8.681,8.681,0,0,0,1.178-4.213c.023-2.31,0-4.621.023-6.931a.6.6,0,0,0-.476-.68A11.776,11.776,0,0,1,450.874,560.473Zm4.621.317a8.586,8.586,0,0,0-9.718-5.731c-3.556.612-7.18,4.462-6.886,7.339a4,4,0,0,0,.521,0c1.4-.181,2.809-.362,4.213-.589a10.392,10.392,0,0,0,6.5-3.307c.476-.566,1.042-.521,1.563.091A8.653,8.653,0,0,0,455.495,560.79Zm-18.71,1.993a10.7,10.7,0,0,1,9.6-9.717,10.289,10.289,0,0,1,6.909,1.789,10.681,10.681,0,0,1,4.643,7.951c.362.045.657.068,1.042.113-.272-4.44-2.2-7.837-6.048-9.921a11.076,11.076,0,0,0-12.617.951,11.23,11.23,0,0,0-4.553,8.97C436.151,562.874,436.445,562.828,436.785,562.783Zm8.925,34.476c-.227,3.738-.453,7.407-.68,11.077H449.7c-.227-3.715-.453-7.384-.68-11.077Zm-2.243-17.125c-.091,1.087-.2,2.084-.249,3.081a.941.941,0,0,0,.294.68c1.133.883,2.31,1.722,3.443,2.6a.446.446,0,0,0,.657,0c1.2-.906,2.4-1.79,3.579-2.7a.79.79,0,0,0,.294-.453c-.045-1.065-.136-2.107-.227-3.239A10.639,10.639,0,0,1,443.467,580.134Zm3.828,9.015c-.951.7-1.857,1.382-2.741,2.061a.622.622,0,0,0-.181.521c.317,1.087.68,2.175,1.065,3.262a.614.614,0,0,0,.43.317c1,.023,2.016.023,3.013,0,.136,0,.34-.091.362-.181.408-1.2.793-2.4,1.2-3.624C449.356,590.712,448.337,589.942,447.3,589.149Zm8.585-2.537c-1-.476-1.971-.951-2.967-1.4a.562.562,0,0,0-.385,0c-1.223.883-2.424,1.789-3.669,2.718,1.654,1.223,3.239,2.424,4.847,3.624C454.476,589.9,455.178,588.266,455.88,586.612Zm-17.17.068c.725,1.676,1.4,3.262,2.129,4.915,1.654-1.223,3.216-2.424,4.847-3.624-1.223-.906-2.356-1.789-3.511-2.628a.467.467,0,0,0-.453-.045C440.726,585.706,439.752,586.182,438.71,586.68Zm-1.9-15.177v-6.7a3.353,3.353,0,1,0,0,6.7Zm21.111,0a3.353,3.353,0,1,0,0-6.7Zm-1.065,3.534c1.155,0,1.971-.7,1.948-1.608C457.466,573.407,457.33,573.5,456.854,575.038Z" transform="translate(-423.456 -549.6)" fill="#fff" stroke="#fff" stroke-width="0.5"/>
    <path id="Path_9054" data-name="Path 9054" d="M570.635,764.091c-1.042,0-2.084.023-3.126,0-.838-.023-1.291-.634-1.042-1.314a.98.98,0,0,1,.974-.612c2.152,0,4.281-.023,6.433,0a.991.991,0,0,1,1.065.974.974.974,0,0,1-1.065.951C572.787,764.114,571.7,764.091,570.635,764.091Z" transform="translate(-534.02 -714.008)" fill="#fff" stroke="#fff" stroke-width="0.5"/>
  </g>
</svg>
