<?xml version="1.0" encoding="utf-8"?>
<!-- Generator: Adobe Illustrator 24.1.2, SVG Export Plug-In . SVG Version: 6.00 Build 0)  -->
<svg version="1.1" id="Glyph" xmlns="http://www.w3.org/2000/svg" xmlns:xlink="http://www.w3.org/1999/xlink" x="0px" y="0px"
	 viewBox="0 0 200 200" style="enable-background:new 0 0 200 200;" xml:space="preserve">
<style type="text/css">
	.st0{fill:#1583E9;}
</style>
<g>
	<path class="st0" d="M117.3,197.6H84.8c-4.4,0-8-3.3-8.5-7.6l-1.4-13.8c-0.1-1-0.8-1.9-1.7-2.3c-8.2-3.1-15.8-7.5-22.6-13.1
		c-0.8-0.6-1.9-0.8-2.8-0.4l-12.7,5.6c-4,1.8-8.6,0.3-10.8-3.5L8,134.5c-2.2-3.8-1.2-8.6,2.4-11.1l11.2-8.1c0.8-0.6,1.3-1.6,1.1-2.6
		c-0.7-4.3-1.1-8.7-1.1-13.1c0-4.4,0.4-8.8,1.1-13.1c0.2-1-0.3-2-1.1-2.6l-11.2-8.1C6.9,73.2,5.9,68.4,8,64.6l16.2-28.1
		c2.2-3.8,6.8-5.3,10.8-3.5l12.7,5.6c0.9,0.4,2.1,0.3,2.8-0.4c3-2.5,6.2-4.7,9.5-6.7c1.4-0.8,3.1-0.4,3.9,1c0.8,1.4,0.4,3.1-1,3.9
		c-3.1,1.8-6,4-8.8,6.2c-2.5,2-5.9,2.5-8.8,1.2l-12.7-5.6c-1.3-0.6-2.8-0.1-3.5,1.1L13,67.5c-0.7,1.2-0.4,2.8,0.8,3.6L25,79.2
		c2.6,1.9,3.9,5.1,3.4,8.2c-0.7,4-1,8.1-1,12.1c0,4,0.3,8.1,1,12.1c0.5,3.2-0.8,6.3-3.4,8.2l-11.2,8.1c-1.1,0.8-1.5,2.4-0.8,3.6
		l16.2,28.1c0.7,1.2,2.2,1.7,3.5,1.1l12.7-5.6c3-1.3,6.3-0.9,8.8,1.2c6.3,5.2,13.4,9.3,21,12.1c3,1.1,5.1,3.9,5.4,7.1l1.4,13.8
		c0.1,1.4,1.3,2.5,2.7,2.5h32.5c1.4,0,2.6-1.1,2.7-2.5l1.4-13.8c0.3-3.2,2.5-5.9,5.4-7.1c7.6-2.9,14.7-6.9,21-12.1
		c2.5-2,5.9-2.5,8.8-1.2l12.7,5.6c1.3,0.6,2.8,0.1,3.5-1.1l16.2-28.1c0.7-1.2,0.4-2.8-0.8-3.6l-11.2-8.1c-2.6-1.9-3.9-5.1-3.4-8.2
		c0.7-4,1-8.1,1-12.1s-0.3-8.1-1-12.1c-0.5-3.2,0.8-6.3,3.4-8.2l11.2-8.1c1.1-0.8,1.5-2.4,0.8-3.6l-16.2-28.1
		c-0.7-1.2-2.2-1.7-3.5-1.1l-12.7,5.6c-3,1.3-6.3,0.9-8.8-1.2c-6.3-5.2-13.4-9.3-21-12.1c-3-1.1-5.1-3.9-5.4-7.1L120,9.7
		c-0.1-1.4-1.3-2.5-2.7-2.5H84.8c-1.4,0-2.6,1.1-2.7,2.5l-1.4,13.8c-0.3,3.2-2.5,5.9-5.4,7.1c-0.8,0.3-1.6,0.6-2.3,0.9
		c-1.5,0.6-3.1-0.1-3.8-1.5c-0.6-1.5,0.1-3.1,1.5-3.8c0.8-0.3,1.6-0.7,2.5-1c1-0.4,1.6-1.2,1.7-2.3l1.4-13.8
		c0.5-4.3,4.1-7.6,8.5-7.6h32.5c4.4,0,8,3.3,8.5,7.6l1.4,13.8c0.1,1,0.8,1.9,1.7,2.3c8.2,3.1,15.8,7.5,22.6,13.1
		c0.8,0.6,1.9,0.8,2.8,0.4l12.7-5.6c4-1.8,8.6-0.3,10.8,3.5l16.2,28.1c2.2,3.8,1.2,8.6-2.4,11.1l-11.2,8.1c-0.8,0.6-1.3,1.6-1.1,2.6
		c0.7,4.3,1.1,8.7,1.1,13.1c0,4.4-0.4,8.8-1.1,13.1c-0.2,1,0.3,2,1.1,2.6l11.2,8.1c3.5,2.6,4.5,7.4,2.4,11.1l-16.2,28.1
		c-2.2,3.8-6.8,5.3-10.8,3.5l-12.7-5.6c-0.9-0.4-2.1-0.3-2.8,0.4c-6.8,5.6-14.4,10-22.6,13.1c-0.9,0.4-1.6,1.2-1.7,2.3l-1.4,13.8
		C125.3,194.3,121.7,197.6,117.3,197.6L117.3,197.6z"/>
	<path class="st0" d="M130.3,128.8c-2.9,0-5.8-0.4-8.5-1.3c-1.5-0.5-2.4-2.1-1.9-3.6s2.1-2.4,3.6-1.9c2.2,0.7,4.5,1,6.9,1
		c6.3,0,12.2-2.4,16.6-6.9c9.2-9.2,9.2-24.1,0-33.2c-9.2-9.2-24.1-9.2-33.2,0l-10.5,10.5c-1.1,1.1-2.9,1.1-4.1,0L88.5,82.9
		c-9.2-9.2-24.1-9.2-33.2,0c-4.4,4.4-6.9,10.3-6.9,16.6c0,6.3,2.4,12.2,6.9,16.6c4.4,4.4,10.3,6.9,16.6,6.9c6.3,0,12.2-2.4,16.6-6.9
		L99,105.7c1.1-1.1,2.9-1.1,4.1,0l10.5,10.5c0.4,0.4,0.7,0.7,1.1,1c1.2,1,1.3,2.9,0.3,4.1c-1,1.2-2.9,1.3-4.1,0.3
		c-0.4-0.4-0.9-0.8-1.3-1.3l-8.5-8.5l-8.5,8.5c-5.5,5.5-12.9,8.6-20.7,8.6c-7.8,0-15.2-3-20.7-8.6c-5.5-5.5-8.6-12.9-8.6-20.7
		s3-15.2,8.6-20.7c11.4-11.4,30-11.4,41.4,0l8.5,8.5l8.5-8.5c11.4-11.4,30-11.4,41.4,0c11.4,11.4,11.4,30,0,41.4
		C145.4,125.8,138.1,128.8,130.3,128.8L130.3,128.8z M71.9,117.3c-4.7,0-9.2-1.8-12.6-5.2c-3.4-3.4-5.2-7.8-5.2-12.6
		c0-4.7,1.8-9.2,5.2-12.6c3.4-3.4,7.8-5.2,12.6-5.2s9.2,1.8,12.6,5.2L95,97.5c1.1,1.1,1.1,2.9,0,4.1l-10.5,10.5
		C81.1,115.5,76.6,117.3,71.9,117.3L71.9,117.3z M71.9,87.6c-3.2,0-6.2,1.2-8.5,3.5c-2.3,2.3-3.5,5.3-3.5,8.5s1.2,6.2,3.5,8.5
		c2.3,2.3,5.3,3.5,8.5,3.5c3.2,0,6.2-1.2,8.5-3.5l8.5-8.5l-8.5-8.5C78.1,88.8,75.1,87.6,71.9,87.6L71.9,87.6z M130.3,117.3
		c-4.5,0-9.1-1.7-12.6-5.2l-10.5-10.5c-1.1-1.1-1.1-2.9,0-4.1L117.7,87c6.9-6.9,18.2-6.9,25.1,0c3.4,3.4,5.2,7.8,5.2,12.6
		c0,4.7-1.8,9.2-5.2,12.6C139.3,115.6,134.8,117.3,130.3,117.3L130.3,117.3z M113.3,99.6l8.5,8.5c4.7,4.7,12.3,4.7,17,0
		c2.3-2.3,3.5-5.3,3.5-8.5s-1.2-6.2-3.5-8.5c-4.7-4.7-12.3-4.7-17,0L113.3,99.6z M140.8,110.1L140.8,110.1L140.8,110.1z"/>
	<path class="st0" d="M133.7,67.3c-0.7,0-1.4-0.3-2-0.8c-8.4-7.8-19.2-12-30.6-12s-22.3,4.3-30.6,12c-1.2,1.1-3,1-4.1-0.2
		s-1-3,0.2-4.1c9.4-8.7,21.7-13.6,34.5-13.6s25.1,4.8,34.5,13.6c1.2,1.1,1.2,2.9,0.2,4.1C135.2,67,134.4,67.3,133.7,67.3z"/>
	<path class="st0" d="M101.1,150.3c-12.9,0-25.1-4.8-34.5-13.6c-1.2-1.1-1.2-2.9-0.2-4.1c1.1-1.2,2.9-1.2,4.1-0.2
		c8.4,7.8,19.2,12,30.6,12s22.3-4.3,30.6-12c1.2-1.1,3-1,4.1,0.2c1.1,1.2,1,3-0.2,4.1C126.2,145.5,113.9,150.3,101.1,150.3z"/>
</g>
</svg>
