<svg xmlns="http://www.w3.org/2000/svg" xmlns:xlink="http://www.w3.org/1999/xlink" viewBox="0 0 500 500"><defs><style>.cls-1{fill:url(#linear-gradient);}.cls-2{fill:url(#linear-gradient-2);}.cls-3{fill:url(#linear-gradient-3);}.cls-4{fill:url(#linear-gradient-4);}.cls-5{fill:url(#linear-gradient-5);}.cls-6{fill:url(#linear-gradient-6);}.cls-7{fill:url(#linear-gradient-7);}.cls-8{fill:url(#linear-gradient-8);}.cls-9{fill:url(#linear-gradient-9);}.cls-10{fill:url(#linear-gradient-10);}.cls-11{fill:url(#linear-gradient-11);}.cls-12{fill:url(#linear-gradient-12);}.cls-13{fill:url(#linear-gradient-13);}.cls-14{fill:url(#linear-gradient-14);}.cls-15{opacity:0.3;}.cls-16{fill:#91b3fa;}.cls-17{fill:#bdd0fb;}.cls-18{fill:url(#linear-gradient-15);}.cls-19{fill:url(#linear-gradient-16);}.cls-20{fill:#7d97f4;}.cls-21{fill:url(#linear-gradient-17);}.cls-22{fill:url(#linear-gradient-18);}.cls-23{fill:#fff;opacity:0.5;}.cls-24{fill:url(#linear-gradient-19);}.cls-25{fill:url(#linear-gradient-20);}.cls-26{fill:url(#linear-gradient-21);}.cls-27{fill:url(#linear-gradient-22);}.cls-28{fill:url(#linear-gradient-23);}.cls-29{fill:url(#linear-gradient-24);}.cls-30{fill:url(#linear-gradient-25);}.cls-31{fill:url(#linear-gradient-26);}.cls-32{fill:url(#linear-gradient-27);}.cls-33{fill:url(#linear-gradient-28);}.cls-34{fill:url(#linear-gradient-29);}.cls-35{fill:url(#linear-gradient-30);}.cls-36{fill:url(#linear-gradient-31);}.cls-37{fill:url(#linear-gradient-32);}.cls-38{fill:url(#linear-gradient-33);}.cls-39{fill:url(#linear-gradient-34);}.cls-40{fill:url(#linear-gradient-35);}.cls-41{fill:url(#linear-gradient-36);}</style><linearGradient id="linear-gradient" x1="595.71" y1="533.56" x2="158.04" y2="150.6" gradientUnits="userSpaceOnUse"><stop offset="0" stop-color="#dae3fe"/><stop offset="1" stop-color="#e9effd"/></linearGradient><linearGradient id="linear-gradient-2" x1="327.42" y1="41.72" x2="326.32" y2="-139.56" gradientUnits="userSpaceOnUse"><stop offset="0" stop-color="#e1473d"/><stop offset="1" stop-color="#e9605a"/></linearGradient><linearGradient id="linear-gradient-3" x1="278.42" y1="-320.56" x2="310.28" y2="-44.81" gradientUnits="userSpaceOnUse"><stop offset="0" stop-color="#ff928e"/><stop offset="1" stop-color="#fe7062"/></linearGradient><linearGradient id="linear-gradient-4" x1="421.64" y1="-129.41" x2="352.43" y2="37.02" gradientUnits="userSpaceOnUse"><stop offset="0" stop-color="#febbba"/><stop offset="1" stop-color="#ff928e"/></linearGradient><linearGradient id="linear-gradient-5" x1="409.43" y1="-78.55" x2="350.11" y2="80.47" xlink:href="#linear-gradient-4"/><linearGradient id="linear-gradient-6" x1="270.26" y1="-319.62" x2="302.12" y2="-43.86" xlink:href="#linear-gradient-3"/><linearGradient id="linear-gradient-7" x1="358.48" y1="99.91" x2="317.29" y2="184.77" xlink:href="#linear-gradient-4"/><linearGradient id="linear-gradient-8" x1="422.23" y1="-12.53" x2="316.77" y2="233" xlink:href="#linear-gradient-4"/><linearGradient id="linear-gradient-9" x1="262.68" y1="-318.74" x2="294.54" y2="-42.99" xlink:href="#linear-gradient-3"/><linearGradient id="linear-gradient-10" x1="420.74" y1="14.05" x2="303.74" y2="289.24" xlink:href="#linear-gradient-4"/><linearGradient id="linear-gradient-11" x1="414.33" y1="111.86" x2="342.64" y2="249.46" xlink:href="#linear-gradient-4"/><linearGradient id="linear-gradient-12" x1="254.74" y1="-317.82" x2="286.6" y2="-42.07" xlink:href="#linear-gradient-3"/><linearGradient id="linear-gradient-13" x1="411.43" y1="103.09" x2="338.1" y2="277.76" xlink:href="#linear-gradient-4"/><linearGradient id="linear-gradient-14" x1="419.35" y1="165.46" x2="332.84" y2="336.84" xlink:href="#linear-gradient-4"/><linearGradient id="linear-gradient-15" x1="-3345.66" y1="390.6" x2="-3266.56" y2="153.29" gradientTransform="matrix(-1, 0, 0, 1, -3094.22, 0)" gradientUnits="userSpaceOnUse"><stop offset="0" stop-color="#09005d"/><stop offset="1" stop-color="#1a0f91"/></linearGradient><linearGradient id="linear-gradient-16" x1="48.63" y1="297.6" x2="388.72" y2="297.6" gradientUnits="userSpaceOnUse"><stop offset="0" stop-color="#4f52ff"/><stop offset="1" stop-color="#4042e2"/></linearGradient><linearGradient id="linear-gradient-17" x1="-3162.32" y1="376.59" x2="-3512.87" y2="461.86" gradientTransform="matrix(1, 0, 0, -1, 3529.12, 825.85)" xlink:href="#linear-gradient-15"/><linearGradient id="linear-gradient-18" x1="-647.31" y1="-396.74" x2="-459.6" y2="-396.74" gradientTransform="matrix(-0.89, -0.45, -0.45, 0.89, -274.04, 489.02)" xlink:href="#linear-gradient-15"/><linearGradient id="linear-gradient-19" x1="-2900.5" y1="-334.28" x2="-2708.79" y2="-334.28" gradientTransform="matrix(-0.91, -0.41, -0.41, 0.91, -2405.85, -623.78)" xlink:href="#linear-gradient-15"/><linearGradient id="linear-gradient-20" x1="96.22" y1="457.03" x2="129.83" y2="457.03" xlink:href="#linear-gradient-16"/><linearGradient id="linear-gradient-21" x1="122.11" y1="392.39" x2="112.93" y2="455.85" gradientTransform="matrix(1, 0, 0, 1, 0, 0)" xlink:href="#linear-gradient-15"/><linearGradient id="linear-gradient-22" x1="97.9" y1="446.9" x2="106.99" y2="446.9" xlink:href="#linear-gradient-4"/><linearGradient id="linear-gradient-23" x1="148.94" y1="450.37" x2="176.07" y2="450.37" xlink:href="#linear-gradient-16"/><linearGradient id="linear-gradient-24" x1="167.6" y1="398.98" x2="158.42" y2="462.43" gradientTransform="matrix(1, 0, 0, 1, 0, 0)" xlink:href="#linear-gradient-15"/><linearGradient id="linear-gradient-25" x1="122.77" y1="369.88" x2="44.4" y2="439.82" gradientTransform="matrix(1, 0, 0, 1, 0, 0)" xlink:href="#linear-gradient-15"/><linearGradient id="linear-gradient-26" x1="140.97" y1="447.66" x2="151.83" y2="447.66" xlink:href="#linear-gradient-4"/><linearGradient id="linear-gradient-27" x1="144.11" y1="322.53" x2="123.23" y2="352.92" gradientTransform="matrix(1, 0, 0, 1, 0, 0)" xlink:href="#linear-gradient-15"/><linearGradient id="linear-gradient-28" x1="80.66" y1="294.66" x2="86.01" y2="281.16" xlink:href="#linear-gradient-4"/><linearGradient id="linear-gradient-29" x1="97.41" y1="92.57" x2="87.53" y2="227.7" xlink:href="#linear-gradient-3"/><linearGradient id="linear-gradient-30" x1="77.63" y1="321.2" x2="85.41" y2="321.2" xlink:href="#linear-gradient-2"/><linearGradient id="linear-gradient-31" x1="126.39" y1="347.16" x2="151.47" y2="347.16" xlink:href="#linear-gradient-4"/><linearGradient id="linear-gradient-32" x1="2005.74" y1="889.52" x2="1978.87" y2="910.09" gradientTransform="translate(-2007.66 -352.71) rotate(-7.5)" xlink:href="#linear-gradient-4"/><linearGradient id="linear-gradient-33" x1="1986.86" y1="873.29" x2="2011.2" y2="904.62" gradientTransform="translate(-2007.66 -352.71) rotate(-7.5)" xlink:href="#linear-gradient-15"/><linearGradient id="linear-gradient-34" x1="2002.41" y1="885.16" x2="1975.53" y2="905.73" gradientTransform="translate(-2007.66 -352.71) rotate(-7.5)" xlink:href="#linear-gradient-4"/><linearGradient id="linear-gradient-35" x1="-3137.02" y1="-3975.27" x2="-3204.09" y2="-3910.42" gradientTransform="matrix(-1.39, -0.07, -0.07, 1.39, -9874.62, -97.66)" xlink:href="#linear-gradient-15"/><linearGradient id="linear-gradient-36" x1="-4933.45" y1="-3905.86" x2="-5000.52" y2="-3841.01" gradientTransform="matrix(0.65, -1.23, -1.23, -0.65, 6056.93, -10727.63)" xlink:href="#linear-gradient-15"/></defs><g id="Illustration"><rect class="cls-1" x="2.46" y="76.21" width="496.88" height="311.28" rx="8.89"/><rect class="cls-2" x="199.7" y="115.8" width="257.63" height="215.88"/><path class="cls-3" d="M466.27,87.79,190.6,89.53c-3.74,0-6.83,2.76-6.83,6.11v41.13c0,3.23,2.91,5.86,6.51,5.88l276,1.74c4.09,0,7.54-2.75,7.54-6.2V94C473.81,90.54,470.36,87.77,466.27,87.79Z"/><path class="cls-4" d="M466.14,87.79,190.28,89.53c-3.6,0-6.51,2.66-6.51,5.88L473.56,94C473.56,90.54,470.24,87.77,466.14,87.79Z"/><path class="cls-5" d="M190.28,142.65l275.86,1.74c4.1,0,7.42-2.75,7.42-6.2l-289.79-1.42C183.77,140,186.68,142.63,190.28,142.65Z"/><path class="cls-6" d="M466.49,156.38l-275.88-.57c-3.86,0-7.05,2.78-7.09,6.23L183,204.5c0,3.34,2.93,6.07,6.66,6.1L466.48,213c4,0,7.33-2.74,7.33-6.19v-44.2C473.81,159.18,470.46,156.39,466.49,156.38Z"/><path class="cls-7" d="M466.36,156.38l-276.07-.57c-3.72,0-6.76,2.68-6.8,6l290.07.82C473.56,159.18,470.34,156.39,466.36,156.38Z"/><path class="cls-8" d="M189.64,210.6,466.35,213c4,0,7.21-2.74,7.21-6.19L183,204.5C182.93,207.84,185.92,210.57,189.64,210.6Z"/><path class="cls-9" d="M466.61,225.12H191c-4,0-7.22,2.93-7.22,6.52v44c0,3.44,3.11,6.09,6.95,6.09H466.61c3.84,0,7.2-2.65,7.2-6.09V231.4C473.81,228,470.45,225.12,466.61,225.12Z"/><path class="cls-10" d="M466.61,225.12H190.72c-3.84,0-6.95,2.74-6.95,6H473.56C473.56,227.86,470.45,225.12,466.61,225.12Z"/><path class="cls-11" d="M190.72,281.69H466.61c3.84,0,6.95-2.74,6.95-6H183.77C183.77,279,186.88,281.69,190.72,281.69Z"/><path class="cls-12" d="M466.9,295l-275.78-1.08c-4.06,0-7.35,2.88-7.35,6.46v44c0,3.45,3.17,6.25,7.08,6.25l275.9.11c3.77,0,6.83-2.75,6.84-6.13l.13-43.4C473.73,297.74,470.67,295,466.9,295Z"/><path class="cls-13" d="M466.9,295l-276-1.08c-3.91,0-7.08,2.77-7.08,6.22l290,1C473.73,297.74,470.67,295,466.9,295Z"/><path class="cls-14" d="M190.84,350.55l275.91.11c3.77,0,6.83-2.75,6.84-6.13l-289.82-.23C183.77,347.75,186.94,350.55,190.84,350.55Z"/><g class="cls-15"><path class="cls-16" d="M325.63,93.49a1.87,1.87,0,0,1-1.54-2c.14-2.1.38-4.22.7-6.31a1.86,1.86,0,0,1,2.12-1.56h0a1.87,1.87,0,0,1,1.52,2.12c-.31,2-.53,4-.66,6a1.86,1.86,0,0,1-2,1.73Zm2.88-16-.21,0A1.86,1.86,0,0,1,327,75.17c.61-2,1.3-4,2.07-6a1.86,1.86,0,1,1,3.46,1.36c-.73,1.86-1.39,3.77-2,5.7A1.86,1.86,0,0,1,328.51,77.53Zm6.32-14.93a1.67,1.67,0,0,1-.59-.21,1.86,1.86,0,0,1-.71-2.53c1-1.84,2.16-3.65,3.35-5.39a1.86,1.86,0,1,1,3.08,2.1c-1.13,1.65-2.2,3.37-3.19,5.11A1.85,1.85,0,0,1,334.83,62.6Zm9.51-13.14a1.85,1.85,0,0,1-1.06-3.08c1.42-1.56,2.93-3.08,4.47-4.51a1.86,1.86,0,1,1,2.53,2.73c-1.47,1.36-2.9,2.8-4.25,4.28A1.83,1.83,0,0,1,344.34,49.46Zm12.19-10.69a1.86,1.86,0,0,1-.74-3.36c1.72-1.2,3.53-2.35,5.35-3.4A1.86,1.86,0,1,1,363,35.23c-1.73,1-3.45,2.09-5.09,3.24A1.85,1.85,0,0,1,356.53,38.77Zm14.26-7.72a1.88,1.88,0,0,1-1.41-1.14,1.85,1.85,0,0,1,1-2.42c2-.8,4-1.51,6-2.14a1.86,1.86,0,0,1,1.1,3.56c-1.91.59-3.82,1.27-5.68,2A2,2,0,0,1,370.79,31.05Zm68,7.25A1.92,1.92,0,0,1,438,38c-1.65-1.12-3.37-2.19-5.12-3.17a1.86,1.86,0,0,1,1.82-3.25c1.84,1,3.66,2.16,5.4,3.34a1.87,1.87,0,0,1-1.37,3.38ZM386.39,26.67a1.86,1.86,0,0,1,0-3.67c2.08-.34,4.2-.59,6.3-.75A1.87,1.87,0,0,1,393,26c-2,.15-4,.38-6,.71A1.84,1.84,0,0,1,386.39,26.67Zm38,4.07a1.56,1.56,0,0,1-.37-.1c-1.86-.72-3.78-1.38-5.7-1.95a1.86,1.86,0,1,1,1.05-3.57c2,.6,4,1.29,6,2.05a1.86,1.86,0,0,1-1,3.57ZM402.58,25.9a1.87,1.87,0,0,1,.44-3.7c2.1.14,4.22.37,6.31.69h0a1.86,1.86,0,0,1-.6,3.68c-2-.3-4-.52-6-.65Z"/><path class="cls-16" d="M448.85,46.6a1.82,1.82,0,0,1-1-.51c-.69-.67-1.39-1.34-2.11-2a1.87,1.87,0,0,1,2.51-2.76c.75.69,1.49,1.39,2.21,2.1a1.86,1.86,0,0,1-1.62,3.16Z"/></g><g class="cls-15"><path class="cls-16" d="M470.46,99.07a1.86,1.86,0,0,1-1.54-1.86c0-1,0-1.93,0-2.9a1.86,1.86,0,0,1,3.72-.11c0,1,0,2,0,3.06a1.86,1.86,0,0,1-1.88,1.84A1.53,1.53,0,0,1,470.46,99.07Z"/><path class="cls-16" d="M385.7,169.68c-.85-.15-1.69-.31-2.54-.48a1.86,1.86,0,0,1,.76-3.65c1.95.41,3.91.73,5.86,1a1.86,1.86,0,1,1-.46,3.69C388.12,170.07,386.9,169.89,385.7,169.68Zm-12-3.14a1.29,1.29,0,0,1-.31-.08c-1.95-.69-3.9-1.47-5.79-2.33a1.86,1.86,0,1,1,1.53-3.39c1.79.81,3.65,1.56,5.51,2.22a1.86,1.86,0,0,1-.94,3.58Zm25.4,4.19a1.86,1.86,0,0,1,.3-3.69c2,0,4-.15,5.92-.34a1.86,1.86,0,0,1,.37,3.7c-2.07.21-4.17.33-6.24.36A2.07,2.07,0,0,1,399.1,170.73Zm-39.77-11.14a1.91,1.91,0,0,1-.67-.26c-1.76-1.11-3.48-2.3-5.14-3.55a1.86,1.86,0,0,1,2.24-3c1.57,1.19,3.22,2.32,4.88,3.37a1.87,1.87,0,0,1,.59,2.57A1.89,1.89,0,0,1,359.33,159.59Zm55.59,9.14a1.87,1.87,0,0,1-.12-3.65c1.92-.46,3.83-1,5.71-1.63a1.86,1.86,0,0,1,1.17,3.53c-2,.66-4,1.24-6,1.72A2,2,0,0,1,414.92,168.73Zm15-5.43a1.86,1.86,0,0,1-.5-3.5c1.77-.87,3.52-1.83,5.21-2.84a1.86,1.86,0,1,1,1.91,3.19c-1.77,1.07-3.62,2.07-5.48,3A1.82,1.82,0,0,1,429.92,163.3Zm13.46-8.56a1.86,1.86,0,0,1-.84-3.29c1.53-1.23,3-2.55,4.46-3.9a1.86,1.86,0,0,1,2.57,2.69c-1.5,1.43-3.08,2.81-4.7,4.11A1.9,1.9,0,0,1,443.38,154.74Zm11.27-11.3a1.83,1.83,0,0,1-.84-.38,1.86,1.86,0,0,1-.29-2.61c1.23-1.55,2.41-3.16,3.5-4.79a1.86,1.86,0,1,1,3.1,2.07c-1.16,1.72-2.4,3.42-3.69,5A1.87,1.87,0,0,1,454.65,143.44Zm8.52-13.5a1.76,1.76,0,0,1-.49-.16,1.87,1.87,0,0,1-.87-2.49c.86-1.77,1.66-3.6,2.36-5.44a1.86,1.86,0,0,1,3.48,1.34c-.75,1.94-1.58,3.86-2.49,5.73A1.86,1.86,0,0,1,463.17,129.94Zm5.34-15-.11,0a1.85,1.85,0,0,1-1.38-2.24c.33-1.41.62-2.85.87-4.27.09-.52.17-1,.25-1.55a1.86,1.86,0,0,1,2.12-1.57,1.84,1.84,0,0,1,1.56,2.12c-.08.54-.17,1.09-.26,1.63-.26,1.5-.57,3-.92,4.5A1.88,1.88,0,0,1,468.51,114.91Z"/><path class="cls-16" d="M346.82,149.61a1.82,1.82,0,0,1-1-.51c-.72-.72-1.43-1.46-2.12-2.2a1.86,1.86,0,0,1,2.73-2.53c.66.71,1.34,1.41,2,2.09a1.86,1.86,0,0,1-1.63,3.15Z"/></g><path class="cls-16" d="M353,128.76a.87.87,0,0,0,.92.43l10.41-1.91a46,46,0,0,0,11.76,9.23l.63,10.56a.89.89,0,0,0,.64.79l12.23,3.41a.87.87,0,0,0,.95-.34l6-8.71a46.3,46.3,0,0,0,14.84-1.8l7.92,7a.86.86,0,0,0,1,.11l11.07-6.24a.88.88,0,0,0,.43-.91L429.87,130a46,46,0,0,0,9.22-11.75l10.56-.64a.88.88,0,0,0,.79-.63l3.41-12.24a.89.89,0,0,0-.34-1l-8.71-6A46.27,46.27,0,0,0,443,82.93L450,75a.88.88,0,0,0,.11-1l-6.24-11.06a.87.87,0,0,0-.91-.43l-10.42,1.91a46,46,0,0,0-11.75-9.22l-.64-10.57a.85.85,0,0,0-.63-.78l-12.23-3.42a.86.86,0,0,0-.95.35l-6,8.71a46,46,0,0,0-14.84,1.8l-7.92-7a.86.86,0,0,0-1-.1l-11.07,6.23a.89.89,0,0,0-.43.92L367,61.72a46.21,46.21,0,0,0-9.22,11.76l-10.56.63a.88.88,0,0,0-.79.64L343,87a.86.86,0,0,0,.34,1l8.71,6a46,46,0,0,0,1.8,14.83l-7,7.93a.86.86,0,0,0-.11,1Z"/><path class="cls-17" d="M396.25,108.43a12.77,12.77,0,0,1,2.5-25.34,12.76,12.76,0,1,1-.63,25.52A11.51,11.51,0,0,1,396.25,108.43Zm3.87-22.22a9.77,9.77,0,1,0,5.41,2.89A9.76,9.76,0,0,0,400.12,86.21Z"/><path class="cls-17" d="M393.37,126.64a28.64,28.64,0,0,1-3.15-.71h0c-.33-.09-.66-.18-1-.29a30.47,30.47,0,0,1-4.66-1.88l-.06,0-.18-.09-.33-.17a.76.76,0,0,1-.39-.79.65.65,0,0,1,.08-.22.74.74,0,0,1,1-.31,29.93,29.93,0,0,0,42.76-18.41,29.36,29.36,0,0,0,.67-3,29.9,29.9,0,0,0-58.27-13.08,27.68,27.68,0,0,0-.67,3,29.86,29.86,0,0,0,.62,13,.7.7,0,0,1,0,.32.75.75,0,0,1-.54.6.74.74,0,0,1-.91-.53,31.28,31.28,0,0,1-.66-13.61c.18-1,.42-2.08.7-3.11a31.39,31.39,0,0,1,57.58-7,31.1,31.1,0,0,1,3.6,20.7c-.18,1.05-.42,2.1-.71,3.15a31.37,31.37,0,0,1-35.52,22.5Z"/><g class="cls-15"><path class="cls-16" d="M254.69,131a1.15,1.15,0,0,1-.95-1c-.11-1-.19-2-.25-2.93a1.15,1.15,0,0,1,2.3-.13c.05.93.13,1.87.24,2.8a1.15,1.15,0,0,1-1,1.27A1.13,1.13,0,0,1,254.69,131Z"/><path class="cls-16" d="M254.49,122.16a1.15,1.15,0,0,1-1-1.21,49.48,49.48,0,0,1,.61-5c.06-.35.12-.7.19-1.05a1.19,1.19,0,0,1,1.35-.91,1.16,1.16,0,0,1,.91,1.35c-.07.33-.13.67-.19,1a48.16,48.16,0,0,0-.58,4.79,1.15,1.15,0,0,1-1.22,1.07Zm2.28-11.72-.16,0a1.16,1.16,0,0,1-.74-1.45,50,50,0,0,1,2.25-5.7,1.15,1.15,0,0,1,2.08,1,47.09,47.09,0,0,0-2.14,5.43A1.15,1.15,0,0,1,256.77,110.44Zm5.06-10.81a1.08,1.08,0,0,1-.42-.16,1.14,1.14,0,0,1-.36-1.58,48.51,48.51,0,0,1,3.58-5,1.14,1.14,0,0,1,1.77,1.45A51.23,51.23,0,0,0,263,99.11,1.12,1.12,0,0,1,261.83,99.63Zm7.55-9.24a1.13,1.13,0,0,1-.63-.34,1.14,1.14,0,0,1,0-1.62,48.88,48.88,0,0,1,4.68-4,1.17,1.17,0,0,1,1.61.24,1.15,1.15,0,0,1-.24,1.61,47,47,0,0,0-4.47,3.76A1.14,1.14,0,0,1,269.38,90.39ZM279,83.28a1.15,1.15,0,0,1-.37-2.13,49.06,49.06,0,0,1,5.5-2.69,1.15,1.15,0,1,1,.88,2.12,49,49,0,0,0-5.25,2.57A1.2,1.2,0,0,1,279,83.28Zm11-4.57a1.17,1.17,0,0,1-.91-.83,1.15,1.15,0,0,1,.8-1.41,48.91,48.91,0,0,1,6-1.27,1.15,1.15,0,0,1,.34,2.28,48.26,48.26,0,0,0-5.71,1.2A1.07,1.07,0,0,1,290,78.71ZM301.79,77a1.15,1.15,0,0,1,.17-2.28,50.1,50.1,0,0,1,6.12.24,1.17,1.17,0,0,1,1,1.26,1.15,1.15,0,0,1-1.26,1A45.63,45.63,0,0,0,302,77Zm17.61,2.9-.19-.05a47,47,0,0,0-4.86-1.47l-.74-.18a1.15,1.15,0,1,1,.51-2.24l.78.19A51.5,51.5,0,0,1,320,77.65a1.15,1.15,0,0,1-.59,2.22Z"/></g><g class="cls-15"><path class="cls-16" d="M295.29,173.38a1.15,1.15,0,0,1,.38-2.27,47.57,47.57,0,0,0,5.71.56,1.15,1.15,0,1,1-.09,2.3,50,50,0,0,1-6-.59Zm-5.74-1.28-.12,0a49,49,0,0,1-5.68-2,1.15,1.15,0,1,1,.89-2.12,49,49,0,0,0,5.42,1.91,1.15,1.15,0,0,1-.51,2.23ZM307,173.81a1.15,1.15,0,0,1,.1-2.28,45.49,45.49,0,0,0,5.68-.84,1.15,1.15,0,0,1,.47,2.26,49.59,49.59,0,0,1-5.95.87A1,1,0,0,1,307,173.81Zm-28.29-6.27a1.07,1.07,0,0,1-.38-.13,49.57,49.57,0,0,1-5-3.31,1.15,1.15,0,1,1,1.38-1.84,47.64,47.64,0,0,0,4.79,3.15,1.15,1.15,0,0,1-.76,2.13Zm39.78,3.86a1.15,1.15,0,0,1-.18-2.23,46.19,46.19,0,0,0,5.31-2.17,1.15,1.15,0,0,1,1.54.53,1.17,1.17,0,0,1-.54,1.54,48.2,48.2,0,0,1-5.57,2.28A1.09,1.09,0,0,1,318.51,171.4Zm10.57-5.1a1.16,1.16,0,0,1-.43-2.11,48.24,48.24,0,0,0,4.64-3.38,1.15,1.15,0,0,1,1.47,1.77,50.09,50.09,0,0,1-4.87,3.55A1.18,1.18,0,0,1,329.08,166.3Zm9-7.49a1.19,1.19,0,0,1-.59-.3,1.15,1.15,0,0,1,0-1.63,47.21,47.21,0,0,0,3.69-4.4,1.15,1.15,0,0,1,1.85,1.37,50.08,50.08,0,0,1-3.87,4.62A1.17,1.17,0,0,1,338.12,158.81Z"/><path class="cls-16" d="M269.29,160.46a1.11,1.11,0,0,1-.6-.3c-.71-.68-1.4-1.39-2.06-2.1a1.15,1.15,0,0,1,1.69-1.56c.62.68,1.29,1.35,2,2a1.15,1.15,0,0,1,0,1.63A1.13,1.13,0,0,1,269.29,160.46Z"/></g><path class="cls-16" d="M272.76,146a.58.58,0,0,0,.61.29l7-1.28a30.72,30.72,0,0,0,7.87,6.17l.42,7.07a.6.6,0,0,0,.43.53l8.18,2.28a.57.57,0,0,0,.64-.23l4-5.83a30.84,30.84,0,0,0,9.93-1.2l5.3,4.7a.59.59,0,0,0,.67.07l7.4-4.17a.58.58,0,0,0,.29-.61l-1.28-7a30.89,30.89,0,0,0,6.17-7.87l7.07-.42a.6.6,0,0,0,.53-.43l2.28-8.18a.57.57,0,0,0-.23-.64l-5.83-4a30.84,30.84,0,0,0-1.2-9.93l4.7-5.3a.59.59,0,0,0,.07-.67l-4.17-7.41a.58.58,0,0,0-.61-.28l-7,1.28a30.93,30.93,0,0,0-7.87-6.18l-.42-7.06a.6.6,0,0,0-.43-.53l-8.18-2.28a.57.57,0,0,0-.64.23l-4,5.82a30.84,30.84,0,0,0-9.93,1.21l-5.3-4.7a.56.56,0,0,0-.67-.07l-7.4,4.17a.57.57,0,0,0-.29.61l1.28,7A30.76,30.76,0,0,0,276,109l-7.06.42a.6.6,0,0,0-.53.43L266.1,118a.57.57,0,0,0,.23.64l5.82,4a30.84,30.84,0,0,0,1.21,9.93l-4.7,5.3a.56.56,0,0,0-.07.67Z"/><path class="cls-17" d="M301.68,132.54a8.8,8.8,0,1,1,1.28.12A9.09,9.09,0,0,1,301.68,132.54Zm2.59-14.87a5.63,5.63,0,0,0-.93-.1,6.4,6.4,0,0,0-4.8,10.81,6.34,6.34,0,0,0,4.48,2h0a6.39,6.39,0,0,0,6.55-6.23A6.4,6.4,0,0,0,304.27,117.67Z"/><path class="cls-17" d="M299.66,145.21c-.72-.12-1.44-.29-2.15-.48a22.33,22.33,0,0,1-4.11-1.61l-.18-.1a1.15,1.15,0,0,1,1.07-2,19.72,19.72,0,0,0,3.83,1.52h0l.22.06a19,19,0,0,0,9.48.13,19.49,19.49,0,0,0,4.86-1.88l0,0,.11-.06A19.21,19.21,0,0,0,322,129.07a18.73,18.73,0,0,0,.44-1.94,19.36,19.36,0,0,0-37.73-8.47c-.17.64-.32,1.28-.43,1.92a19.33,19.33,0,0,0,.4,8.39,1.07,1.07,0,0,1,0,.5,1.17,1.17,0,0,1-.83.92,1.15,1.15,0,0,1-1.41-.81,21.58,21.58,0,0,1-.45-9.39,20,20,0,0,1,.48-2.14,21.66,21.66,0,0,1,42.21,9.46c-.13.73-.29,1.46-.49,2.18A21.69,21.69,0,0,1,299.66,145.21Z"/><path class="cls-18" d="M47.19,399.21a6.2,6.2,0,0,0,6.19,6.19H388.31a6.2,6.2,0,0,0,6.19-6.19l2.79-192.47c0-3.41-4-10.05-11.36-9.55L58.6,188.72a15.6,15.6,0,0,0-16,16Z"/><path class="cls-19" d="M53.3,393.28a5.88,5.88,0,0,0,5.86,5.86H380.23a5.87,5.87,0,0,0,5.86-5.86l2.63-174.73c-.31-10.52-9.53-14.3-15.11-14.08L59.89,196.06a11,11,0,0,0-11.26,11.22Z"/><path class="cls-20" d="M382.62,310.27h0a.87.87,0,0,1-.85-.87l.21-14.17a.86.86,0,0,1,.86-.85h0a.86.86,0,0,1,.85.87l-.21,14.17A.86.86,0,0,1,382.62,310.27Z"/><path class="cls-20" d="M383.13,275.54h0a.87.87,0,0,1-.85-.87l.8-54.27a10.17,10.17,0,0,0-2.91-7.64c-3.57-3.42-9.25-3.25-9.49-3.23L270.4,206.84a.86.86,0,0,1-.83-.88.82.82,0,0,1,.88-.84l100.21,2.69c.62,0,6.67-.14,10.69,3.71a11.85,11.85,0,0,1,3.44,8.89L384,274.7A.86.86,0,0,1,383.13,275.54Z"/><rect class="cls-21" x="20.01" y="404.47" width="394.87" height="16.91" rx="5.65" transform="translate(434.9 825.85) rotate(180)"/><rect class="cls-20" x="128.13" y="208.06" width="7.1" height="103.68" transform="translate(-128.23 391.57) rotate(-90)"/><rect class="cls-20" x="127.64" y="160.6" width="7.1" height="103.68" transform="translate(-81.25 343.62) rotate(-90)"/><rect class="cls-20" x="142.41" y="187.21" width="7.1" height="74.76" transform="translate(-78.63 370.54) rotate(-90)"/><rect class="cls-20" x="94.59" y="218.64" width="7.1" height="10.76" transform="translate(-125.89 322.15) rotate(-90)"/><rect class="cls-20" x="142.34" y="199.08" width="7.1" height="74.76" transform="translate(-90.58 382.34) rotate(-90)"/><rect class="cls-20" x="94.53" y="230.51" width="7.1" height="10.76" transform="translate(-137.81 333.97) rotate(-90)"/><rect class="cls-20" x="142.06" y="210.93" width="7.1" height="74.76" transform="translate(-102.7 393.91) rotate(-90)"/><rect class="cls-20" x="93.89" y="242.36" width="7.1" height="10.76" transform="translate(-150.3 345.18) rotate(-90)"/><rect class="cls-20" x="127.64" y="257.48" width="7.1" height="103.68" transform="translate(-178.14 440.5) rotate(-90)"/><rect class="cls-20" x="141.92" y="236.63" width="7.1" height="74.76" transform="translate(-128.54 419.47) rotate(-90)"/><rect class="cls-20" x="94.1" y="268.06" width="7.1" height="10.76" transform="translate(-175.8 371.07) rotate(-90)"/><rect class="cls-20" x="141.85" y="248.5" width="7.1" height="74.76" transform="translate(-140.49 431.26) rotate(-90)"/><rect class="cls-20" x="94.04" y="279.93" width="7.1" height="10.76" transform="translate(-187.72 382.89) rotate(-90)"/><rect class="cls-20" x="141.57" y="260.35" width="7.1" height="74.76" transform="translate(-152.61 442.84) rotate(-90)"/><rect class="cls-20" x="93.4" y="291.78" width="7.1" height="10.76" transform="translate(-200.21 394.1) rotate(-90)"/><rect class="cls-20" x="127.64" y="306.83" width="7.1" height="103.68" transform="translate(-227.49 489.85) rotate(-90)"/><rect class="cls-20" x="141.92" y="285.98" width="7.1" height="74.76" transform="translate(-177.89 468.82) rotate(-90)"/><rect class="cls-20" x="94.1" y="317.41" width="7.1" height="10.76" transform="translate(-225.15 420.43) rotate(-90)"/><rect class="cls-20" x="141.85" y="297.85" width="7.1" height="74.76" transform="translate(-189.84 480.62) rotate(-90)"/><rect class="cls-20" x="94.04" y="329.28" width="7.1" height="10.76" transform="translate(-237.07 432.24) rotate(-90)"/><rect class="cls-20" x="141.57" y="309.7" width="7.1" height="74.76" transform="translate(-201.97 492.19) rotate(-90)"/><rect class="cls-20" x="93.4" y="341.13" width="7.1" height="10.76" transform="translate(-249.57 443.45) rotate(-90)"/><rect class="cls-20" x="142.41" y="334.17" width="7.1" height="74.76" transform="translate(-225.59 517.5) rotate(-90)"/><rect class="cls-20" x="94.59" y="365.6" width="7.1" height="10.76" transform="translate(-272.85 469.1) rotate(-90)"/><rect class="cls-20" x="141.82" y="346.04" width="7.1" height="74.76" transform="translate(-238.05 528.78) rotate(-90)"/><rect class="cls-20" x="94.02" y="377.47" width="7.1" height="10.76" transform="translate(-285.29 480.4) rotate(-90)"/><rect class="cls-20" x="296.02" y="311.03" width="7.2" height="74.63" transform="translate(-48.74 647.96) rotate(-90)"/><rect class="cls-20" x="288.89" y="275.78" width="7.2" height="121.08" transform="translate(-43.84 628.8) rotate(-90)"/><rect class="cls-20" x="315.6" y="275.77" width="7.2" height="97.06" transform="translate(-5.11 643.49) rotate(-90)"/><rect class="cls-20" x="294.75" y="284.61" width="7.2" height="55.35" transform="translate(-13.95 610.61) rotate(-90)"/><rect class="cls-20" x="316.83" y="251.77" width="7.2" height="96.94" transform="translate(20.18 620.65) rotate(-90)"/><rect class="cls-20" x="300.64" y="247.26" width="7.2" height="81.91" transform="translate(16.01 592.45) rotate(-90)"/><rect class="cls-20" x="272.08" y="232.44" width="7.2" height="87.46" transform="translate(-0.5 551.84) rotate(-90)"/><rect class="cls-20" x="317.29" y="214.26" width="7.2" height="99.78" transform="translate(56.72 585.03) rotate(-90)"/><rect class="cls-20" x="317.91" y="201.61" width="7.2" height="101.02" transform="translate(69.36 573.62) rotate(-90)"/><rect class="cls-20" x="318.12" y="190.34" width="7.2" height="99.52" transform="translate(81.61 561.81) rotate(-90)"/><rect class="cls-20" x="291.11" y="187.3" width="7.2" height="81.53" transform="translate(66.63 522.77) rotate(-90)"/><rect class="cls-20" x="209.76" y="253.28" width="7.2" height="21.14" transform="translate(-50.5 477.2) rotate(-90)"/><rect class="cls-20" x="209.76" y="265.65" width="7.2" height="21.14" transform="translate(-62.87 489.57) rotate(-90)"/><rect class="cls-20" x="209.76" y="277.52" width="7.2" height="21.14" transform="translate(-74.74 501.44) rotate(-90)"/><rect class="cls-20" x="209.76" y="289.59" width="7.2" height="21.14" transform="translate(-86.81 513.51) rotate(-90)"/><rect class="cls-20" x="209.76" y="301.96" width="7.2" height="21.14" transform="translate(-99.18 525.88) rotate(-90)"/><rect class="cls-20" x="209.76" y="313.83" width="7.2" height="21.14" transform="translate(-111.04 537.74) rotate(-90)"/><rect class="cls-20" x="210.84" y="325.66" width="7.2" height="21.14" transform="translate(-121.8 550.64) rotate(-90)"/><rect class="cls-20" x="210.84" y="338.03" width="7.2" height="21.14" transform="translate(-134.17 563.02) rotate(-90)"/><rect class="cls-20" x="210.84" y="349.89" width="7.2" height="21.14" transform="translate(-146.04 574.88) rotate(-90)"/><rect class="cls-20" x="210.84" y="362" width="7.2" height="21.14" transform="translate(-158.14 586.99) rotate(-90)"/><rect class="cls-20" x="210.84" y="374.37" width="7.2" height="21.14" transform="translate(-170.52 599.36) rotate(-90)"/><rect class="cls-20" x="209.76" y="241.55" width="7.2" height="21.14" transform="translate(-38.77 465.47) rotate(-90)"/><rect class="cls-20" x="209.76" y="229.53" width="7.2" height="21.14" transform="translate(-26.75 453.45) rotate(-90)"/><rect class="cls-20" x="209.76" y="217.5" width="7.2" height="21.14" transform="translate(-14.71 441.42) rotate(-90)"/><rect class="cls-20" x="209.76" y="205.47" width="7.2" height="21.14" transform="translate(-2.69 429.39) rotate(-90)"/><path class="cls-20" d="M232,212.44v7.2H333.34a7.25,7.25,0,0,0-7.3-7.2Z"/><rect class="cls-20" x="319.16" y="334.3" width="7.2" height="102.23" transform="translate(-62.67 708.15) rotate(-90)"/><rect class="cls-20" x="318.23" y="322.83" width="7.2" height="100.38" transform="translate(-51.21 694.83) rotate(-90)"/><path class="cls-20" d="M271.64,357.58v7.2h63.83c0-4-2.05-7.2-4.59-7.2Z"/><rect class="cls-20" x="192.12" y="207.51" width="2.07" height="186.34" rx="0.98"/><path class="cls-22" d="M339.48,304.56l127,135.5a13.37,13.37,0,0,1-1.4,19.57l-1,.8a12.43,12.43,0,0,1-17.51-2L330.81,312Z"/><ellipse class="cls-23" cx="285.18" cy="234.24" rx="84.59" ry="86.14" transform="translate(-52.63 382.83) rotate(-63.14)"/><path class="cls-24" d="M199.66,190.94c-23.48,46.37-4.24,103.36,43,127.27s104.56,5.71,128-40.67,4.24-103.36-43-127.27S223.14,144.56,199.66,190.94Zm12.56,6.36c20-39.57,68.94-55.1,109.23-34.7s56.72,69,36.68,108.58-68.94,55.1-109.23,34.7S192.19,236.86,212.22,197.3Z"/><path class="cls-17" d="M359.08,284.28a.24.24,0,0,1-.07-.34c1.25-1.84,2.44-3.75,3.55-5.69a.24.24,0,1,1,.42.24c-1.11,1.95-2.31,3.88-3.56,5.73a.24.24,0,0,1-.24.1A.14.14,0,0,1,359.08,284.28Zm11.37-23.74a.25.25,0,0,1-.17-.31,85.37,85.37,0,0,0,3.35-17.94,87.67,87.67,0,0,0-11-49.64,90.48,90.48,0,0,0-86.82-45.8.24.24,0,0,1-.26-.22.23.23,0,0,1,.22-.27,90.95,90.95,0,0,1,87.29,46,88.19,88.19,0,0,1,11,49.92,86.33,86.33,0,0,1-3.37,18,.25.25,0,0,1-.26.18Z"/><path class="cls-17" d="M453.46,458.66c5.47.71,9.26-.74,11.26-4.31a10,10,0,0,0-1.47-11.52l-15-16.75a.25.25,0,0,0-.35,0,.24.24,0,0,0,0,.34l15,16.76a9.5,9.5,0,0,1,1.4,10.95c-1.91,3.41-5.58,4.78-10.93,4h0a.24.24,0,0,0-.27.21.24.24,0,0,0,.21.28Z"/><path class="cls-17" d="M443.41,421.32a.25.25,0,0,0,.22-.41l-1.95-2.17a.24.24,0,0,0-.34,0,.25.25,0,0,0,0,.35l1.94,2.17A.25.25,0,0,0,443.41,421.32Z"/><path class="cls-20" d="M27.85,393.52c-1.38,2-6.86,48.26-7.72,65.33a2,2,0,0,0,2,2.11h0a2,2,0,0,0,2-1.71l10-64.26Z"/><path class="cls-20" d="M71.93,393.52c1.38,2,6.86,48.26,7.72,65.33a2,2,0,0,1-2,2.11h0a2,2,0,0,1-2-1.71L65.6,395Z"/><path class="cls-20" d="M19.55,389.91v.5a6.87,6.87,0,0,0,7,6.67l46.36.79a6.93,6.93,0,0,0,7.25-6.29l0-.46a6.84,6.84,0,0,0-7-6.93l-46.38-.84A6.92,6.92,0,0,0,19.55,389.91Z"/><path class="cls-25" d="M109.73,457.17c-8.24,0-11.88-.71-13.51-1.35a3.12,3.12,0,0,0,3,2.42h29.15a1.42,1.42,0,0,0,1.37-1.79C126.46,456.72,119.4,457.17,109.73,457.17Z"/><path class="cls-26" d="M129.78,456.45a1.53,1.53,0,0,0-.24-.5c-2.22-2.83-6.68-7.29-12.75-7.2-8.89.13-12,1.09-18.89.05l-1.63,5.41a3,3,0,0,0,0,1.61c1.63.64,5.27,1.35,13.51,1.35C119.4,457.17,126.46,456.72,129.78,456.45Z"/><path class="cls-27" d="M99.9,443l-2,6.81s4.43,2,8.32.39l.77-5.89Z"/><path class="cls-28" d="M160.32,452.88c-6.43,5.17-9.71,6.9-11.38,7.42a3.11,3.11,0,0,0,3.88,0L175.54,442a1.4,1.4,0,0,0,0-2.24C173.07,442.06,167.85,446.83,160.32,452.88Z"/><path class="cls-29" d="M175.49,439.77a1.49,1.49,0,0,0-.49-.24c-3.5-.81-9.75-1.47-14.43,2.4-6.85,5.67-8.67,8.36-14.7,11.88L148,459a3,3,0,0,0,1,1.28c1.67-.52,4.95-2.25,11.38-7.42C167.85,446.83,173.07,442.06,175.49,439.77Z"/><path class="cls-30" d="M57.1,365.47s49.34,4,59.46,8.79-8.26,71.54-8.26,71.54-2.75,1.33-8.89-.58c0,0,6.29-49.27,1.61-60l-53.41-8.74Z"/><path class="cls-31" d="M141,444.43c.46.42,4.9,9.38,4.9,9.38s4.95-1.07,6-4.2l-4.45-8.09Z"/><path class="cls-32" d="M27.39,365.06a24.91,24.91,0,0,0-1.54,9A13.52,13.52,0,0,0,38.76,387.3L97.08,390a2.8,2.8,0,0,1,2.58,2.1c1.37,5.3,8.07,21.58,40.81,54.07a2.65,2.65,0,0,0,3.27.35l4.66-2.94a1.07,1.07,0,0,0,.35-1.45l-33.95-58a13.16,13.16,0,0,0-8-5.92L57.1,365.47Z"/><path class="cls-33" d="M84.87,274.48s-6.25,11-12.62,16.4l13.16,7.34s3-11.69,9.75-15.12Z"/><path class="cls-34" d="M26.33,365.47s15.75,3.84,30.77,0c0,0,21-28.27,29.17-36,0,0,13,20.48,41.86,23.38l1.61-3.6s-23-10.6-30.07-26.89-9.93-23.23-16.37-27.48c-4-2.65-6.41-4.46-7.65-5.44a2,2,0,0,0-2.36-.15C66.46,293.49,34.3,315.52,26.33,365.47Z"/><path class="cls-35" d="M77.63,314.31a62.59,62.59,0,0,0,7.78,13.79Z"/><path class="cls-36" d="M126.39,347.41l3.25-.87,9.88-2.28a4.56,4.56,0,0,1,3.47.58l8.48,5.34-23.44,0Z"/><path class="cls-37" d="M94.79,257.91s6.07,10.1,7.12,15.68,2.75,9.06-3.6,11.05-12.25-.53-16-5.74c0,0-5.78-8-5.2-11.68S94.79,257.91,94.79,257.91Z"/><path class="cls-38" d="M84,274.59l.83-.11s-4.3-6.5-1.49-8.11,14.28-5.57,16.27-10.08c1.92-4.35-1-9.27-4.42-10.3a.44.44,0,0,0-.52.28l-.21.55a.44.44,0,0,1-.82,0h0a.45.45,0,0,0-.81,0c-.61,1.35-2.45,3.66-8,5.45-7.82,2.53-12.69,6.48-12.09,12a.45.45,0,0,1-.64.46c-.64-.29-1.61-.33-2.73.9-2,2.14-.43,6.83,4.92,10.14a.44.44,0,0,1,.07.71c-.8.68-1.92,2.21,1.7,3.57s5.72.92,6.46.62a.45.45,0,0,0,.28-.5l-1-4.87a.45.45,0,0,1,.38-.52Z"/><path class="cls-39" d="M84.38,275.59S81.7,269,78.89,271.3s2.6,7.46,5.1,7.39Z"/><path class="cls-40" d="M117.34,354.78h.11l50.08,0a2.24,2.24,0,1,0,0-4.47l-50.07.05a2.24,2.24,0,0,0-.11,4.47Z"/><path class="cls-41" d="M186.92,305.74l0,.1L165.8,351.27a2.24,2.24,0,1,0,4.06,1.88l21.07-45.42a2.24,2.24,0,0,0-4-2Z"/><path class="cls-17" d="M139.63,358.54c-.21.91-21.11,79.27-26.41,99.14a3.59,3.59,0,0,0,3.44,4.53h0a3.57,3.57,0,0,0,3.46-2.73l23.19-94Z"/><path class="cls-17" d="M151.08,358.54c.21.91,21.11,79.27,26.41,99.14a3.59,3.59,0,0,1-3.44,4.53h0a3.57,3.57,0,0,1-3.46-2.73l-23.19-94Z"/><path class="cls-17" d="M152,356h-13v10.45a2.71,2.71,0,0,0,2.69,2.72h1.79v23.47a2,2,0,0,0,2,2.06h0a2,2,0,0,0,2-2.06V369.15h.91a3.59,3.59,0,0,0,3.57-3.61Z"/><path class="cls-17" d="M106.94,353.47H179.6a2.23,2.23,0,0,1,2.15,1.69l1,4A2.26,2.26,0,0,1,180.6,362L106,361.52a2.24,2.24,0,0,1-2.14-2.8l.88-3.55A2.23,2.23,0,0,1,106.94,353.47Z"/></g></svg>