<svg xmlns="http://www.w3.org/2000/svg" width="98" height="98" fill="none" xmlns:v="https://vecta.io/nano"><path fill-rule="evenodd" d="M97.936.041H.197v97.739h97.739V.041zM17.617 62.486a2.46 2.46 0 0 1-1.762-.691c-.484-.472-.726-1.033-.726-1.683a2.29 2.29 0 0 1 .726-1.701c.484-.472 1.071-.709 1.762-.709.703 0 1.296.236 1.78.709.495.472.743 1.039.743 1.701 0 .649-.248 1.21-.743 1.683-.484.461-1.077.691-1.78.691zm23.135-.39h4.492V36.694h-3.957v16.368c0 1.606.058 2.746.173 3.419h-.069c-.138-.283-.449-.803-.933-1.559L29.021 36.694h-4.786v25.403h3.974V45.444l-.138-3.49h.104a8.35 8.35 0 0 0 .743 1.47l11.835 18.671zm23.843 0H50.687V36.694h13.355v3.578h-9.243v7.192h8.518v3.561h-8.518v7.511h9.796v3.561zm12.649-21.824h7.118v-3.578H66.03v3.578h7.101v21.824h4.112V40.272z" fill="#0b0b0c"/></svg>