<?xml version="1.0" encoding="utf-8"?>
<!-- Generator: Adobe Illustrator 24.1.2, SVG Export Plug-In . SVG Version: 6.00 Build 0)  -->
<svg version="1.1" id="Glyph" xmlns="http://www.w3.org/2000/svg" xmlns:xlink="http://www.w3.org/1999/xlink" x="0px" y="0px"
	 viewBox="0 0 200 200" style="enable-background:new 0 0 200 200;" xml:space="preserve">
<style type="text/css">
	.st0{fill:#1583E9;}
</style>
<g>
	<path class="st0" d="M192.2,10.8H8.9c-3.7,0-6.7,3-6.7,6.7v124.4c0,3.7,3,6.7,6.7,6.7h37.9l0.8,3.6c0.8,3.9,4,6.8,7.7,7.5
		c-1.6,2.8-2.4,6-2.4,9.4c0,10.7,8.7,19.4,19.4,19.4s19.4-8.7,19.4-19.4c0-3.4-0.9-6.5-2.4-9.3h16.1c-1.5,2.8-2.4,5.9-2.4,9.3
		c0,10.7,8.7,19.4,19.4,19.4s19.4-8.7,19.4-19.4c0-3.4-0.9-6.6-2.4-9.3c4.1-0.4,7.6-3.5,8.4-7.5l21-97.6h24.3v87.2c0,0.5-0.4,1-1,1
		h-31.5c-1.6,0-2.9,1.3-2.9,2.9c0,1.6,1.3,2.9,2.9,2.9h31.5c3.7,0,6.7-3,6.7-6.7V17.6C198.9,13.8,195.9,10.8,192.2,10.8L192.2,10.8z
		 M72.2,182.8c-7.5,0-13.6-6.1-13.6-13.6c0-7.5,6.1-13.6,13.6-13.6s13.6,6.1,13.6,13.6C85.9,176.7,79.8,182.8,72.2,182.8L72.2,182.8
		z M122.5,182.8c-7.5,0-13.6-6.1-13.6-13.6c0-7.5,6.1-13.6,13.6-13.6c7.5,0,13.6,6.1,13.6,13.6C136.1,176.7,130,182.8,122.5,182.8
		L122.5,182.8z M184.9,48.9c1.9-1.8,3.2-4.3,3.2-7.1c0-5.3-4.3-9.6-9.6-9.6h-9.1c-8.9,0-16.7,6.3-18.6,15l-0.4,1.7h-27.3
		c-1.6,0-2.9,1.3-2.9,2.9c0,1.6,1.3,2.9,2.9,2.9h26l-2.9,13.6H41.4c-2.9,0-5.6,1.3-7.5,3.6c-1.8,2.3-2.5,5.2-1.9,8.1l7.1,33.1
		c0.3,1.6,1.9,2.5,3.4,2.2c1.6-0.3,2.6-1.9,2.2-3.4l-7.1-33.1c-0.2-1.1,0-2.3,0.8-3.2c0.7-0.9,1.8-1.4,3-1.4h107.2
		c1.4,0,2.5-1,2.8-2.3l5-23.4c1.3-6.1,6.7-10.4,12.9-10.4h9.1c2.1,0,3.8,1.7,3.8,3.8c0,2.1-1.7,3.8-3.8,3.8h-9.1
		c-2.6,0-4.9,1.8-5.4,4.4l-21.7,101.1c-0.4,1.8-2,3-3.8,3h-3.8c-3.3-2.7-7.6-4.4-12.2-4.4c-4.6,0-8.9,1.6-12.2,4.4H84.5
		c-3.3-2.7-7.6-4.4-12.2-4.4c-4.6,0-8.9,1.6-12.2,4.4h-3c-1.8,0-3.4-1.3-3.8-3l-5.9-27.6c-0.3-1.6-1.9-2.5-3.4-2.2
		c-1.6,0.3-2.6,1.9-2.2,3.4l3.9,18.2H8.9c-0.5,0-1-0.4-1-1V54.7h101.9c1.6,0,2.9-1.3,2.9-2.9c0-1.6-1.3-2.9-2.9-2.9H7.9V17.6
		c0-0.5,0.4-1,1-1h183.3c0.5,0,1,0.4,1,1v31.4H184.9z"/>
	<circle class="st0" cx="23.5" cy="32.6" r="5.6"/>
	<circle class="st0" cx="40.6" cy="32.6" r="5.6"/>
	<circle class="st0" cx="57.7" cy="32.6" r="5.6"/>
	<path class="st0" d="M105.8,130h-17c-0.8,0-1.6,0.3-2.1,0.9s-0.8,1.4-0.8,2.2l0.9,10.6c0.1,1.5,1.4,2.7,2.9,2.7H105
		c1.5,0,2.8-1.2,2.9-2.7l0.9-10.6c0.1-0.8-0.2-1.6-0.8-2.2C107.4,130.3,106.6,130,105.8,130z M102.3,140.6h-9.9l-0.4-4.9h10.7
		L102.3,140.6z"/>
	<path class="st0" d="M49.2,95.9c0.3,1.3,1.5,2.3,2.8,2.3h20.2c1.6,0,3-1.5,2.9-3.1l-0.9-10.6c-0.1-1.5-1.4-2.7-2.9-2.7H49.8
		c-1.8,0-3.2,1.8-2.8,3.5L49.2,95.9z M68.7,87.6l0.4,4.9H54.4l-1-4.9H68.7z"/>
	<path class="st0" d="M60.1,130c-0.9,0-1.7,0.4-2.2,1.1c-0.5,0.7-0.8,1.6-0.6,2.4l2.3,10.6c0.3,1.3,1.5,2.3,2.8,2.3h13.8
		c0.8,0,1.6-0.3,2.1-0.9c0.5-0.6,0.8-1.4,0.8-2.2l-0.9-10.6c-0.1-1.5-1.4-2.7-2.9-2.7L60.1,130z M64.7,140.6l-1-4.9h9l0.4,4.9H64.7z
		"/>
	<path class="st0" d="M54.9,105.9c-0.9,0-1.7,0.4-2.2,1.1c-0.5,0.7-0.8,1.6-0.6,2.4l2.3,10.6c0.3,1.3,1.5,2.3,2.8,2.3h17
		c0.8,0,1.6-0.3,2.1-0.9c0.5-0.6,0.8-1.4,0.8-2.2l-0.9-10.6c-0.1-1.5-1.4-2.7-2.9-2.7L54.9,105.9z M59.6,116.5l-1-4.9h12.2l0.4,4.9
		H59.6z"/>
	<path class="st0" d="M82.9,95.6c0.1,1.5,1.4,2.7,2.9,2.7h23.2c1.5,0,2.8-1.2,2.9-2.7l0.9-10.6c0.2-1.6-1.2-3.2-2.9-3.1H84.9
		c-1.6,0-3,1.5-2.9,3.1L82.9,95.6z M106.7,87.6l-0.4,4.9H88.4L88,87.6H106.7z"/>
	<path class="st0" d="M120.5,122.3h17.8c1.4,0,2.5-1,2.8-2.3l2.3-10.6c0.2-0.9,0-1.7-0.6-2.4c-0.5-0.7-1.4-1.1-2.2-1.1h-19.2
		c-1.5,0-2.8,1.2-2.9,2.7l-0.9,10.6c-0.1,0.8,0.2,1.6,0.8,2.2C118.9,122,119.7,122.3,120.5,122.3L120.5,122.3z M124,111.7h12.9
		l-1,4.9h-12.3L124,111.7z"/>
	<path class="st0" d="M122.5,98.2h21c1.4,0,2.5-1,2.8-2.3l2.3-10.6c0.4-1.7-1-3.5-2.8-3.5h-22.4c-1.5,0-2.8,1.2-2.9,2.7l-0.9,10.6
		C119.4,96.7,120.8,98.2,122.5,98.2L122.5,98.2z M126,87.6h16.1l-1,4.9h-15.5L126,87.6z"/>
	<path class="st0" d="M107.8,105.9H86.9c-0.8,0-1.6,0.3-2.1,0.9c-0.5,0.6-0.8,1.4-0.8,2.2l0.9,10.6c0.1,1.5,1.4,2.7,2.9,2.7h19.2
		c1.5,0,2.8-1.2,2.9-2.7l0.9-10.6c0.1-0.8-0.2-1.6-0.8-2.2S108.6,105.9,107.8,105.9z M104.3,116.5H90.4l-0.4-4.9h14.7L104.3,116.5z"
		/>
	<path class="st0" d="M118.5,146.4h14.6c1.4,0,2.5-1,2.8-2.3l2.3-10.6c0.2-0.9,0-1.7-0.6-2.4c-0.5-0.7-1.4-1.1-2.2-1.1h-16
		c-1.5,0-2.8,1.2-2.9,2.7l-0.9,10.6c-0.1,0.8,0.2,1.6,0.8,2.2C116.9,146.1,117.7,146.4,118.5,146.4L118.5,146.4z M122,135.8h9.7
		l-1,4.9h-9.1L122,135.8z"/>
</g>
</svg>
