<?xml version="1.0" encoding="utf-8"?>
<!-- Generator: Adobe Illustrator 24.1.2, SVG Export Plug-In . SVG Version: 6.00 Build 0)  -->
<svg version="1.1" id="Glyph" xmlns="http://www.w3.org/2000/svg" xmlns:xlink="http://www.w3.org/1999/xlink" x="0px" y="0px"
	 viewBox="0 0 200 200" style="enable-background:new 0 0 200 200;" xml:space="preserve">
<style type="text/css">
	.st0{fill:#1583E9;}
</style>
<g id="Page-1">
	<g id="_x30_01---Degree">
		<path id="Shape" class="st0" d="M194.6,34.5l-92.3-33c-1.5-0.5-3-0.5-4.5,0l-92.3,33C3,35.5,1.2,38,1.2,40.7S3,46,5.6,46.9
			L50.6,63v20.6c0,12.8,44.4,13.2,49.4,13.2c5.1,0,49.4-0.4,49.4-13.2V63l9.9-3.5v7.6c0,3.6,3,6.6,6.6,6.6h6.6c3.6,0,6.6-3,6.6-6.6
			v-9.9c0-1.5-0.4-3-1.1-4.4l16.5-5.9c2.6-0.9,4.4-3.4,4.4-6.2C199,38,197.2,35.5,194.6,34.5L194.6,34.5z M143,76.3
			c-12.6-5.7-39-5.9-42.9-5.9s-30.3,0.2-42.9,5.9V47.6c2-2.5,17.5-6.9,42.9-6.9s40.9,4.3,42.9,6.9V76.3z M100.1,90.2
			c-24.4,0-39.7-4-42.6-6.6C60.4,81,75.7,77,100.1,77s39.7,4,42.6,6.6C139.8,86.2,124.5,90.2,100.1,90.2z M161,52L149.5,56v-8.7
			c0-12.8-44.4-13.2-49.4-13.2c-5.1,0-49.4,0.4-49.4,13.2V56L7.8,40.7l92.4-33L166,31.3v16.6C163.9,48.7,162.2,50.1,161,52z
			 M172.6,67.1H166v-9.9c0-1.8,1.5-3.3,3.3-3.3s3.3,1.5,3.3,3.3V67.1z M172.6,47.8V33.7l19.8,7.1L172.6,47.8z"/>
		<path id="Shape_1_" class="st0" d="M189.1,103.4c-0.2,0-0.4,0-0.6,0.1c-29.3,4.5-58.8,6.7-88.4,6.5c-29.6,0.2-59.2-2-88.4-6.5
			c-0.2,0-0.4-0.1-0.6-0.1c-2.3,0-9.9,2.6-9.9,36.3s7.6,36.3,9.9,36.3c0.2,0,0.4,0,0.6-0.1c22.5-3.6,45.2-5.6,67.9-6.2l-6.4,15.4
			c-1,2.5-0.4,5.3,1.5,7.1c1.9,1.9,4.7,2.4,7.2,1.3l2.5-1.1l1.1,2.5c1,2.4,3.4,4,6.1,4h0.1c2.7,0,5-1.6,6-4.1l5.7-13.7l5.7,13.7
			c1,2.5,3.4,4.1,6.1,4.2h0.1c2.6,0,5-1.5,6-4l1.1-2.5l2.5,1.1c2.5,1.1,5.3,0.6,7.2-1.3c1.9-1.9,2.5-4.7,1.5-7.2l-6.3-15.1
			c20.5,0.7,41,2.7,61.2,5.9c0.2,0,0.4,0,0.6,0c2.3,0,9.9-2.6,9.9-36.3S191.4,103.4,189.1,103.4L189.1,103.4z M110.6,116.5
			c1.4,5,2.2,10.2,2.4,15.4c-7.5-3.5-16.2-2.7-22.9,2.1c-0.2-5.9-0.9-11.8-2.3-17.6c4,0.1,8.1,0.1,12.3,0.1
			C103.7,116.6,107.2,116.5,110.6,116.5z M103.4,169.3c-9.1,0-16.5-7.4-16.5-16.5s7.4-16.5,16.5-16.5s16.5,7.4,16.5,16.5
			C119.9,161.9,112.5,169.3,103.4,169.3z M11.1,111.6c2.5,9.1,3.6,18.6,3.3,28c0.3,9.5-0.8,18.9-3.3,28c-2.5-9.1-3.6-18.6-3.3-28
			C7.5,130.2,8.6,120.7,11.1,111.6z M17.7,168.2c1.8-5.2,3.2-14,3.2-28.6s-1.4-23.4-3.2-28.6c20.9,2.9,42,4.6,63.2,5.2
			c2,7.6,2.9,15.5,2.7,23.4c0,0.5,0,0.9,0,1.4c-4,6.6-4.4,14.7-1.1,21.6l-0.1,0.3C60.8,163.5,39.2,165.3,17.7,168.2L17.7,168.2z
			 M91.6,192.4l-2.4-5.5c-0.7-1.7-2.7-2.4-4.3-1.7l-5.5,2.5l7.7-18.5c3.2,3.2,7.2,5.4,11.6,6.4L91.6,192.4z M122,185.1
			c-1.7-0.7-3.6,0.1-4.3,1.7l-2.4,5.5l-7.1-16.9c4.4-0.9,8.5-3.1,11.7-6.4l7.7,18.5L122,185.1z M188.5,169.1
			c-21.2-3.3-42.5-5.2-64-5.9l-0.2-0.6c4.1-8.7,2.4-19.1-4.4-26c0-6.8-0.8-13.6-2.4-20.3c23.8-0.5,47.5-2.6,71-6.2
			c1.5,2.6,4,12.9,4,29.5S190,166.5,188.5,169.1L188.5,169.1z"/>
	</g>
</g>
</svg>
