<svg width="223" height="220" viewBox="0 0 223 220" fill="none" xmlns="http://www.w3.org/2000/svg">
<path id="Vector" d="M220.923 94.0753C222.427 80.434 223.737 66.62 221.916 52.94C221.067 46.5719 219.517 40.3518 217.936 34.1352C217.887 28.8731 217.763 23.611 217.46 18.3559C217.309 15.753 217.115 13.1537 216.862 10.5614C216.689 8.79325 216.689 6.65178 215.573 5.1619C214.315 3.48888 212.153 3.60159 210.272 3.6192C207.644 3.64033 205.017 3.6826 202.389 3.73543C191.802 3.9538 181.221 4.37646 170.633 4.56666C160.06 4.75686 149.472 4.71107 138.92 3.99255C128.427 3.28107 117.991 1.92504 107.509 1.06211C96.9392 0.19214 86.3376 -0.0403227 75.7359 0.00546538C70.4632 0.0301205 65.194 0.118174 59.9214 0.227361C55.1629 0.325982 50.3164 0.202706 45.6003 0.938837C43.3567 1.28753 41.1518 1.8863 39.1019 2.8725C37.133 3.81996 35.4001 5.19008 33.4242 6.12698C30.9023 7.32451 28.3769 7.10966 25.7318 6.45101C23.4248 5.8769 21.1635 5.27461 18.7931 5.01045C14.4397 4.52439 9.37839 4.68994 5.27508 6.39114C4.58121 6.67996 3.94018 7.04978 3.36959 7.4971C3.36607 7.45131 3.35903 7.40552 3.3555 7.35973C3.28154 6.69052 2.22489 6.68348 2.29886 7.35973C2.3376 7.71899 2.37634 8.07825 2.41509 8.43751C2.04878 8.88483 1.73883 9.38497 1.51341 9.95556C0.798417 11.766 0.925214 13.7771 1.17881 15.6685C1.84802 20.6418 2.69686 25.5763 3.25688 30.5637C3.81691 35.5793 4.24309 40.6089 4.55656 45.6456C5.18703 55.8035 5.35961 65.9861 5.26451 76.1616C5.07784 96.6218 3.83804 117.047 3.07725 137.489C2.50666 152.793 2.20376 168.136 2.82718 183.443C2.38691 187.698 1.91494 191.945 1.41127 196.193C0.99918 199.641 0.548343 203.083 0.111596 206.527C-0.184266 208.852 -0.0222463 211.233 2.23194 212.49C3.29915 213.085 4.51429 213.328 5.75057 213.392C5.79636 213.406 5.84215 213.413 5.88441 213.417L64.8207 215.893C70.0793 217.08 75.3273 218.341 80.6669 219.108C94.516 221.095 108.478 219.351 122.285 217.858C124.8 217.587 127.318 217.326 129.836 217.062C130.622 217.006 131.407 216.946 132.193 216.882C139.184 216.326 146.091 216.041 153.033 217.242C156.238 217.798 159.422 218.492 162.652 218.908C166.016 219.341 169.397 219.369 172.771 219.073C179.52 218.478 186.127 216.794 192.721 215.304C199.589 213.755 206.457 212.201 213.325 210.652C214.262 210.44 215.227 210.268 216.175 210.049C216.548 210.028 216.922 210.004 217.291 209.982C217.524 209.968 217.728 209.824 217.795 209.606C217.827 209.595 217.858 209.584 217.89 209.574C218.964 209.215 219.852 208.584 220.278 207.503C220.715 206.393 220.641 205.139 220.641 203.97C220.641 202.082 220.623 200.191 220.595 198.303C220.486 191.326 220.19 184.352 219.845 177.381C219.155 163.451 218.253 149.521 218.186 135.566C218.151 128.603 218.327 121.64 218.838 114.694C219.348 107.812 220.162 100.943 220.923 94.0753ZM6.6452 7.02161C11.3614 5.55991 16.6763 5.52469 21.4876 6.48976C23.7946 6.95116 26.0312 7.77535 28.3804 8.02542C30.4726 8.25084 32.4133 7.82466 34.2836 6.88072C36.182 5.91917 37.8797 4.6054 39.8134 3.70373C42.0323 2.66822 44.4661 2.11524 46.8894 1.81938C51.7006 1.23118 56.6246 1.35093 61.4641 1.25583C71.9284 1.04802 82.3998 0.931793 92.8606 1.28049C103.198 1.62918 113.469 2.64356 123.757 3.69669C134.042 4.74629 144.323 5.52469 154.664 5.67966C165.026 5.83464 175.392 5.55286 185.75 5.24644C191.006 5.09146 196.264 4.92944 201.519 4.81673C204.073 4.76038 206.63 4.71811 209.183 4.68994C210.307 4.67937 211.48 4.58779 212.596 4.72164C214.121 4.90831 214.995 5.78885 215.365 7.23998C215.953 9.54347 215.967 12.097 216.147 14.4569C216.344 17.0562 216.492 19.6591 216.601 22.262C216.703 24.7381 216.77 27.2177 216.816 29.6937C215.615 24.8895 214.491 20.0677 213.759 15.1648C213.276 11.9385 212.991 8.69111 212.949 5.42959C212.938 4.74981 211.881 4.74981 211.892 5.42959C212.022 15.2494 214.474 24.724 216.876 34.1915C216.886 35.3574 216.893 36.5232 216.897 37.689C216.932 48.1463 216.89 58.6071 216.883 69.0679C216.865 89.898 216.848 110.732 216.834 131.562C216.816 152.392 216.798 173.225 216.784 194.055C216.781 198.965 216.777 203.879 216.774 208.788C216.612 208.831 216.443 208.873 216.273 208.912C216.108 208.95 215.946 208.986 215.78 209.024C188.216 210.638 160.687 212.846 133.221 215.657C132.372 215.745 131.523 215.833 130.674 215.924C127.138 216.199 123.598 216.481 120.052 216.579C113.208 216.773 106.365 216.569 99.5245 216.294C88.0141 215.836 76.5037 215.354 64.9933 214.868C60.4567 213.864 55.9096 212.913 51.2956 212.286C37.8691 210.465 24.2454 210.69 10.7873 212.022C9.36431 212.163 7.84273 212.392 6.35638 212.37C5.06023 202.762 4.29592 193.101 3.90144 183.422C3.90848 183.365 3.912 183.309 3.91905 183.253C6.76143 155.766 8.22665 128.135 8.3147 100.503C8.40276 72.7239 7.09956 44.9412 4.40158 17.2957C4.12686 14.471 3.83099 11.6497 3.52809 8.82847C4.32762 7.97611 5.41949 7.402 6.6452 7.02161ZM4.51782 32.4445C4.00006 27.51 3.35198 22.5895 2.5595 17.6937C2.22137 15.6157 1.75997 13.4108 2.2108 11.3116C2.30238 10.8925 2.4327 10.5085 2.59824 10.1563C3.74294 20.9482 4.67983 31.7577 5.40188 42.5848C5.16237 39.2 4.87355 35.8223 4.51782 32.4445ZM3.68306 152.504C4.10925 132.396 5.36313 112.317 5.98656 92.212C6.44444 77.4683 6.56067 62.6858 5.74705 47.9561C6.61702 62.4146 7.11365 76.8977 7.22988 91.3843C7.44825 119.378 6.25072 147.38 3.6408 175.254C3.4823 167.671 3.52457 160.081 3.68306 152.504ZM1.50285 203.945C2.09457 199.342 2.64755 194.735 3.16178 190.125C3.33085 192.967 3.53161 195.806 3.77464 198.645C4.1656 203.209 4.66927 207.763 5.2786 212.304C4.61996 212.23 3.97188 212.092 3.35198 211.849C0.0164974 210.56 1.15063 206.696 1.50285 203.945ZM14.7109 212.733C16.1726 212.61 17.6379 212.497 19.1031 212.406C25.9431 211.983 32.8078 211.891 39.6513 212.254C46.0758 212.596 52.4579 213.374 58.7696 214.604C44.5119 213.998 30.2542 213.385 15.9965 212.786C15.5703 212.768 15.1406 212.751 14.7109 212.733ZM91.9941 218.939C84.9991 218.812 78.1661 217.781 71.3437 216.284C71.1324 216.238 70.9246 216.188 70.7133 216.143C77.2469 216.417 83.7769 216.692 90.3105 216.967C97.3055 217.259 104.304 217.601 111.306 217.689C112.475 217.703 113.641 217.703 114.807 217.692C107.213 218.485 99.6055 219.077 91.9941 218.939ZM201.023 212.353C194.235 213.885 187.462 215.558 180.629 216.872C173.849 218.175 167.146 218.643 160.31 217.506C157.01 216.956 153.738 216.227 150.42 215.776C149.117 215.6 147.813 215.481 146.503 215.403C166.565 213.494 186.656 211.895 206.767 210.623C207.641 210.567 208.511 210.518 209.384 210.465C206.598 211.092 203.812 211.722 201.023 212.353ZM219.186 186.106C219.32 189.445 219.429 192.787 219.5 196.13C219.535 197.873 219.563 199.617 219.577 201.36C219.588 202.924 219.729 204.579 219.531 206.14C219.373 207.401 218.721 208.038 217.82 208.436C217.834 192.044 217.848 175.656 217.858 159.263C217.954 161.239 218.056 163.215 218.158 165.188C218.521 172.162 218.908 179.132 219.186 186.106ZM217.897 113.771C217.904 103.124 217.915 92.4762 217.922 81.8287C217.929 71.2658 217.939 60.7028 217.947 50.1434C217.95 46.2761 217.964 42.4052 217.957 38.5379C218.323 40.0348 218.683 41.5317 219.021 43.0322C220.518 49.6749 221.462 56.3776 221.684 63.1895C221.902 69.9133 221.543 76.6406 220.954 83.3362C220.063 93.4976 218.714 103.61 217.897 113.771Z" fill="#C7A3F5"/>
</svg>
