<svg width="161" height="160" viewBox="0 0 161 160" fill="none"
                            xmlns="http://www.w3.org/2000/svg">
                            <g id="illustration">
                                <path id="Vector"
                                    d="M77.3989 39.4513C74.1009 43.3069 71.1032 47.4082 67.7751 51.2364C67.0834 52.0336 66.3698 52.8138 65.65 53.5861C65.5413 53.7053 65.455 53.7984 65.3854 53.8742C65.3069 53.9442 65.2059 54.0404 65.0729 54.1616C64.6122 54.5948 64.1597 55.0386 63.6922 55.4686C61.7512 57.2571 59.7117 58.9312 57.6123 60.5288C49.5626 66.6385 40.6833 71.5255 32.4165 77.32C28.2791 80.2204 24.2988 83.3595 20.7155 86.928C16.7662 90.864 13.2723 95.3753 12.6334 101.08C11.4721 111.42 18.0578 121.904 25.9024 128.006C33.0737 133.585 42.1263 135.63 51.0742 136.17C59.1974 136.663 67.3936 136.238 75.4137 137.79C79.7166 138.624 83.9887 139.852 88.4045 139.985C93.6433 140.141 98.7128 139.093 103.409 136.675C111.571 132.464 118.811 126.052 125.504 119.831C132.388 113.431 138.523 106.471 142.966 98.1657C147.538 89.6232 148.91 80.2117 148.399 70.6803C147.904 61.4767 146.594 51.2728 141.996 43.176C141.549 42.386 141.075 41.6337 140.584 40.9081C139.372 33.3807 135.807 26.3263 128.869 22.4118C120.725 17.8161 111.181 18.3047 102.48 21.2687C92.5643 24.6359 84.1246 31.5872 77.3989 39.4513Z"
                                    fill="#f3f6fc"></path>
                                <path id="Vector_2"
                                    d="M127.333 69.4321C126.847 68.0714 126.242 66.7405 125.494 65.4995C125.76 64.8277 125.872 64.0831 125.924 63.3771C126.035 61.8665 125.881 60.3431 125.696 58.8454C125.408 56.4961 125.155 54.1596 124.961 51.7975C124.536 46.594 124.016 41.3049 122.409 36.3111C120.961 31.8179 118.371 27.1621 113.584 25.6259C110.835 24.7401 107.737 25.091 105.077 26.118C102.671 27.0466 100.085 28.7283 99.1226 31.2359C99.0581 31.4071 98.998 31.5782 98.9421 31.7537C98.6628 31.1931 98.3492 30.6497 97.9883 30.1276C96.3857 27.8083 93.9539 26.4004 91.1699 25.981C88.0678 25.5146 84.6522 25.8955 81.9068 27.4745C80.5233 28.2704 79.3332 29.3958 78.5126 30.7695C78.3751 30.9963 78.2548 31.2316 78.1388 31.4713C77.0947 29.8666 75.7929 28.4501 74.1646 27.3375C72.0121 25.8698 69.4428 25.1551 66.8563 25.0268C63.9219 24.877 60.8285 25.3606 58.0702 26.3533C57.6276 26.5117 57.2023 26.6914 56.7769 26.8797C53.4601 25.2579 49.2968 25.2964 45.9843 26.884C41.6836 28.9465 39.2088 33.4611 37.6836 37.7617C35.9349 42.6914 35.1702 47.9591 34.7878 53.1583C34.3195 59.5557 34.4956 66.0259 34.8007 72.4233C35.2131 81.0502 36.2486 89.6814 38.5601 98.0216C39.5525 101.599 40.7727 105.129 42.0273 108.621C43.0928 111.591 44.2657 114.539 45.7609 117.321C47.2045 120.008 48.966 122.533 51.1056 124.72C53.4687 127.137 56.2528 129.097 59.2517 130.651C65.0519 133.655 71.5051 135.306 78.0056 135.824C84.708 136.355 91.5265 135.683 97.9883 133.834C104.274 132.033 110.268 129.084 115.312 124.912C120.635 120.509 124.811 114.792 127.092 108.27C128.218 105.048 128.884 101.685 129.21 98.2954C129.528 95.0218 129.473 91.7311 129.494 88.4447C129.528 82.1114 129.485 75.4744 127.333 69.4321ZM99.1011 35.3054C99.1311 35.1172 99.1612 34.9246 99.1913 34.7363C99.9947 37.3937 100.278 40.2693 100.665 42.9438C100.949 44.8909 101.181 46.8422 101.331 48.8021C101.481 50.8304 101.614 52.9401 101.288 54.9556C101.185 55.606 101.047 56.3592 100.635 56.8983C100.377 57.2364 100.033 57.369 99.6639 57.2407C99.5694 57.2064 99.419 57.108 99.2901 56.9668C99.1655 56.8341 99.028 56.6031 98.9206 56.3891C98.6242 55.7857 98.4738 55.1053 98.3535 54.4506C97.9969 52.525 97.9625 50.5309 97.9711 48.5753C97.984 46.2602 98.1215 43.9494 98.3234 41.6472C98.5168 39.5247 98.7617 37.4065 99.1011 35.3054ZM81.374 28.8524C83.8616 26.9824 87.1742 26.4518 90.2161 26.7213C92.9658 26.9653 95.5136 28.1378 97.1462 30.4143C97.7434 31.2487 98.2203 32.1517 98.607 33.0931C98.4566 33.8419 98.3449 34.6036 98.2289 35.3397C97.8809 37.5435 97.6274 39.7601 97.4384 41.981C97.2321 44.403 97.0989 46.8379 97.1118 49.2728C97.1204 51.2541 97.1892 53.291 97.636 55.2294C97.8766 56.265 98.3148 57.7799 99.5049 58.088C101.004 58.4774 101.748 56.9112 102.01 55.7258C102.461 53.706 102.362 51.5493 102.233 49.4996C102.1 47.3557 101.846 45.2204 101.546 43.0936C101.077 39.7815 100.755 36.187 99.5049 33.0118C99.6209 32.4897 99.7584 31.9719 99.9475 31.4798C100.046 31.2231 100.381 30.6411 100.639 30.2859C101.043 29.7339 101.533 29.2418 102.061 28.8053C103.187 27.8724 104.532 27.1921 105.92 26.7256C108.51 25.8569 111.397 25.6473 113.975 26.67C118.431 28.4373 120.648 33.23 121.894 37.5349C123.281 42.3233 123.754 47.3215 124.154 52.2725C124.325 54.4292 124.566 56.5603 124.832 58.7084C125.004 60.1035 125.15 61.5113 125.099 62.9192C125.077 63.4498 125.039 64.0275 124.905 64.5795C124.235 63.6039 123.47 62.6967 122.585 61.8965C120.472 59.9794 117.602 59.1492 114.835 58.7298C108.618 57.7841 102.336 58.717 96.0936 58.4003C92.2783 58.2078 88.4846 57.767 84.6694 57.6044C83.3117 57.5488 81.9368 57.5188 80.562 57.5573C81.1076 56.6202 81.4341 55.2808 81.5587 54.7288C81.8208 53.5477 81.997 52.3281 82.0185 51.1214C82.0528 48.9732 82.0228 46.808 81.8982 44.6598C81.6619 40.5774 80.8026 36.0843 78.7102 32.3999C79.2816 31.0305 80.1108 29.8024 81.374 28.8524ZM71.8746 73.5145C71.3332 72.9839 70.852 72.4019 70.4525 71.7472C69.0604 69.4664 68.6995 66.3212 69.3655 63.7494C69.692 62.4913 70.3193 61.2974 71.3375 60.4629C72.5062 59.5087 74.1431 59.1877 75.5867 58.9096C76.6866 58.6999 77.7865 58.563 78.895 58.4731C79.2215 58.6057 79.5179 58.5629 79.78 58.4089C85.6232 58.0837 91.5608 59.1235 97.3782 59.3033C103.324 59.4873 109.322 58.61 115.23 59.6499C117.928 60.1249 120.553 61.0321 122.508 63.0133C123.273 63.7879 123.939 64.6437 124.519 65.5509C124.454 65.6664 124.381 65.7734 124.304 65.8804C124.192 65.8162 124.055 65.8119 123.909 65.9104C122.925 66.5865 121.984 65.8761 121.189 65.2471C120.368 64.5966 119.574 64.0532 118.59 63.6723C117.481 63.2401 116.313 62.9919 115.148 62.7609C113.924 62.5169 112.699 62.2602 111.462 62.0676C105.971 61.2161 100.386 61.276 94.8519 60.8438C91.9604 60.6213 89.0732 60.3902 86.1774 60.6512C84.7639 60.7796 83.3504 60.9636 81.9282 60.9721C81.026 60.9764 80.1237 60.9807 79.2215 61.0321C77.4342 61.1348 75.5867 61.3829 73.9755 62.2046C72.3429 63.0347 71.3161 64.464 70.8864 66.2227C70.315 68.572 70.6329 71.3535 71.8746 73.5145ZM78.2892 33.4911C79.3676 35.5707 80.0851 37.8687 80.5061 40.1024C80.9014 42.1992 81.0475 44.3346 81.1076 46.4656C81.1592 48.2415 81.2451 50.0516 81.1205 51.8232C81.0389 53.0085 80.8369 54.1939 80.5147 55.3364C80.3686 55.8542 80.2054 56.372 79.9605 56.8555C79.8359 57.1037 79.6683 57.4418 79.4148 57.6044C79.2988 57.6087 79.1828 57.613 79.0668 57.6215C78.5684 57.3305 78.0915 55.8927 77.9755 55.5547C77.6017 54.4592 77.3697 53.3338 77.2108 52.1912C76.8241 49.4696 76.7639 46.6924 76.8413 43.9452C76.9229 41.0653 77.1678 38.1597 77.7951 35.3397C77.9326 34.7106 78.0915 34.0901 78.2892 33.4911ZM63.4407 26.011C66.0572 25.7072 68.7511 25.8313 71.2344 26.7727C74.0958 27.8553 76.2054 29.9521 77.722 32.4769C77.5459 32.9476 77.3955 33.4269 77.2623 33.9061C76.4932 36.6962 76.1882 39.6232 76.0378 42.5074C75.8832 45.4557 75.9132 48.4383 76.2484 51.3739C76.3815 52.5293 76.5491 53.6932 76.8541 54.8186C77.0905 55.7044 77.3998 56.8855 78.0099 57.7071C76.5018 57.8526 75.0067 58.1008 73.5502 58.5159C72.1581 58.9138 70.9036 59.4958 69.9713 60.6341C69.1163 61.6782 68.6093 62.962 68.3816 64.28C67.9047 67.0315 68.3687 70.2537 69.9799 72.5859C70.4911 73.3219 71.0926 73.9724 71.7629 74.5544C71.4235 74.4303 71.084 74.3019 70.7446 74.1735C69.3827 73.66 67.9949 73.2192 66.6243 72.7271C64.3558 71.9141 62.0701 70.5576 60.8199 68.4394C60.8156 68.4351 60.8113 68.4308 60.807 68.4265C64.2098 64.7806 65.0819 59.2904 65.2667 54.4463C65.4471 49.7264 65.387 44.9551 64.5878 40.2864C63.8531 35.973 62.4138 31.2145 58.9423 28.279C58.5599 27.958 58.1518 27.6756 57.7307 27.4103C59.5567 26.6871 61.4858 26.2378 63.4407 26.011ZM63.1571 37.6718C64.3086 42.165 64.532 46.8721 64.4804 51.4894C64.4246 56.6416 64.2312 62.2174 61.1765 66.6079C60.343 67.806 59.2817 68.8545 58.0315 69.629C56.7383 70.4292 55.2732 70.8956 53.7995 71.2251C51.3634 71.7729 48.6438 71.8542 46.371 70.686C41.4687 68.1655 41.4387 61.614 41.6277 56.8513C41.8511 51.3054 43.0197 45.7039 45.284 40.6202C47.4451 35.7633 50.7275 31.1974 55.4235 28.5101C55.8618 28.2576 56.3172 28.0351 56.7726 27.8211C60.3687 29.8195 62.1818 33.8505 63.1571 37.6718ZM128.626 88.7956C128.605 91.9365 128.652 95.0817 128.355 98.2141C128.042 101.505 127.389 104.77 126.31 107.898C124.136 114.206 120.128 119.717 115.041 124.022C110.22 128.1 104.454 131.001 98.4179 132.816C92.244 134.669 85.7435 135.418 79.3074 135.058C73.0346 134.707 66.7618 133.287 61.0691 130.599C58.1217 129.208 55.3333 127.475 52.9187 125.28C50.7061 123.269 48.8543 120.92 47.3291 118.356C45.7952 115.776 44.5879 113.016 43.5224 110.213C42.3452 107.115 41.2797 103.961 40.2786 100.803C37.7523 92.8266 36.4634 84.5335 35.8791 76.2061C35.5912 72.0767 35.4623 67.9344 35.4151 63.7921C35.3893 61.1733 35.3721 58.5501 35.4881 55.927C35.6986 51.023 36.2529 46.0891 37.4945 41.3306C38.6417 36.9358 40.4376 32.233 43.995 29.199C47.1314 26.5245 51.9606 25.75 55.7973 27.3461C51.6083 29.5157 48.3344 33.1316 46.023 37.2311C43.1658 42.2934 41.5976 48.0532 40.9875 53.8045C40.6997 56.5218 40.6395 59.269 40.8629 61.9906C41.0907 64.7764 41.7695 67.6477 43.733 69.7531C45.4215 71.5675 47.8275 72.4019 50.2721 72.4575C51.72 72.4918 53.1765 72.2735 54.5772 71.9141C56.0938 71.5247 57.5761 70.9855 58.8736 70.0954C59.3462 69.7702 59.7758 69.4107 60.184 69.0342C61.4858 71.1182 63.6899 72.5003 65.9412 73.3819C67.3161 73.921 68.7382 74.3318 70.1216 74.8496C71.5094 75.3717 72.8928 75.8938 74.315 76.3217C75.3461 76.8951 76.4288 77.3701 77.5072 77.7852C80.3643 78.8806 83.3632 79.6081 86.3836 80.0788C88.6564 80.434 90.955 80.6608 93.2579 80.7378C91.8831 81.1572 90.534 81.6621 89.288 82.3768C88.0206 83.1042 86.8734 84.0328 85.8509 85.0812C84.824 86.1339 83.9218 87.2979 83.0324 88.4704C82.0271 89.7969 80.9744 91.1021 80.0679 92.4971C78.4138 95.0347 77.2795 97.8547 76.7253 100.833C76.0679 104.376 76.1066 108.009 76.1066 111.595C76.1066 112.147 76.9659 112.147 76.9659 111.595C76.9659 108.471 76.9272 105.313 77.3654 102.215C77.7736 99.3395 78.6586 96.5752 80.1194 94.0547C80.9529 92.6126 81.9669 91.3032 82.968 89.9724C83.8616 88.7913 84.7424 87.5974 85.722 86.4891C86.6629 85.4236 87.6983 84.4393 88.8799 83.6477C90.2676 82.7148 91.7928 82.0986 93.3825 81.6022C94.4394 81.2727 95.505 80.9946 96.5834 80.7464C96.6006 80.7464 96.6134 80.7464 96.6306 80.7464C99.7756 80.6351 103.007 80.2372 105.941 79.0433C106.448 78.8378 106.268 78.1189 105.713 78.2174C102.641 78.7608 99.5436 79.2016 96.5017 79.8905C96.4631 79.8905 96.4244 79.8948 96.3857 79.8948C92.9658 79.9975 89.5286 79.7408 86.1559 79.1845C83.2687 78.7095 80.403 77.9948 77.6705 76.9379C77.069 76.7068 76.4589 76.4458 75.8574 76.1633C75.8703 76.0264 75.8144 75.8895 75.6383 75.8167C72.2656 74.3918 70.968 70.2024 71.6383 66.8304C71.9863 65.0759 72.8928 63.6937 74.5298 62.8978C76.1366 62.1147 78.0056 61.9392 79.7671 61.8708C80.6995 61.8365 81.6318 61.8579 82.5641 61.8237C83.9476 61.7724 85.3224 61.5755 86.7059 61.4685C89.4599 61.2546 92.2182 61.4985 94.9679 61.7124C100.321 62.1275 105.73 62.0633 111.049 62.8636C112.407 63.069 113.756 63.3514 115.101 63.621C116.381 63.8777 117.7 64.1559 118.886 64.7207C120.514 65.4953 122.224 67.8916 124.179 66.7534C124.334 66.8689 124.549 66.8988 124.721 66.7234C124.832 66.6121 124.931 66.4966 125.021 66.3768C125.752 67.6734 126.332 69.0556 126.783 70.4677C128.656 76.3559 128.669 82.6849 128.626 88.7956Z"
                                    fill="#083dc8" stroke="#083dc8"></path>
                            </g>
                        </svg>