<?xml version="1.0" encoding="utf-8"?>
<!-- Generator: Adobe Illustrator 24.1.2, SVG Export Plug-In . SVG Version: 6.00 Build 0)  -->
<svg version="1.1" id="Glyph" xmlns="http://www.w3.org/2000/svg" xmlns:xlink="http://www.w3.org/1999/xlink" x="0px" y="0px"
	 viewBox="0 0 200 200" style="enable-background:new 0 0 200 200;" xml:space="preserve">
<style type="text/css">
	.st0{fill:#1583E9;}
</style>
<g>
	<g>
		<g>
			<path class="st0" d="M137.4,136.9c-1.5-1.5-4-1.5-5.5,0.1l-0.1,0.1c-1.5,1.5-1.5,4,0.1,5.5c0.8,0.7,1.7,1.1,2.7,1.1
				c1,0,2-0.4,2.8-1.2l0.1-0.1C138.9,140.9,138.9,138.4,137.4,136.9z"/>
		</g>
	</g>
	<g>
		<g>
			<path class="st0" d="M179.1,96.2h-10.3V85.9c0-2.1-1.7-3.9-3.9-3.9s-3.9,1.7-3.9,3.9v10.3h-10.3c-2.1,0-3.9,1.7-3.9,3.9
				s1.7,3.9,3.9,3.9H161v10.3c0,2.1,1.7,3.9,3.9,3.9s3.9-1.7,3.9-3.9V104h10.3c2.1,0,3.9-1.7,3.9-3.9S181.2,96.2,179.1,96.2z"/>
		</g>
	</g>
	<g>
		<g>
			<path class="st0" d="M177.6,68.4c-3.6-26.8-26-46.8-52.6-46.8c-13.4,0-26,5-35.7,14.2c-9.8-9.2-22.3-14.2-35.7-14.2
				C24.2,21.6,0.4,46,0.4,76c0,5.9,1.7,12.6,5.2,19.9H4.3c-2.1,0-3.9,1.7-3.9,3.9s1.7,3.9,3.9,3.9h5.4c7.2,12.3,18.7,26.2,34.3,41.8
				c21.2,21.1,42.6,37.5,42.9,37.7c0.7,0.5,1.5,0.8,2.4,0.8c0.8,0,1.7-0.3,2.4-0.8c0.2-0.1,16.6-12.7,34.8-29.9
				c1.6-1.5,1.6-3.9,0.2-5.5c-1.5-1.6-3.9-1.6-5.5-0.2C107.2,160.6,94.4,171,89.3,175c-6.1-4.8-23-18.6-39.8-35.2
				c-13.4-13.3-23.7-25.5-30.6-36.2h34.7c1.7,0,3.3-1.1,3.7-2.8l6.8-23.6l18.8,60.1c0.5,1.6,2,2.7,3.7,2.7s3.2-1.1,3.7-2.7
				l10.4-33.3H118c2.1,0,3.9-1.7,3.9-3.9s-1.7-3.9-3.9-3.9H97.8c-1.7,0-3.2,1.1-3.7,2.7l-7.5,24.2L67.6,62.5c-0.5-1.6-2-2.7-3.7-2.7
				c-1.7,0-3.2,1.2-3.7,2.8l-9.5,33.3H14.2c-4-7.6-6.1-14.2-6.1-19.9c0-25.7,20.3-46.6,45.3-46.6c12.6,0,24.2,5.2,32.9,14.5
				c0.7,0.8,1.8,1.2,2.9,1.2c1.1,0,2.1-0.5,2.9-1.2c8.7-9.4,20.3-14.5,32.9-14.5c21.6,0,40,15.6,44.4,36.9c-1.5-0.2-2.9-0.3-4.5-0.3
				c-18.8,0-34.1,15.3-34.1,34.1s15.3,34.1,34.1,34.1s34.1-15.3,34.1-34.1C199,85.8,190.1,73.5,177.6,68.4z M164.9,126.5
				c-14.5,0-26.4-11.8-26.4-26.4s11.8-26.4,26.4-26.4c14.5,0,26.4,11.8,26.4,26.4S179.4,126.5,164.9,126.5z"/>
		</g>
	</g>
</g>
</svg>
