<?xml version="1.0" encoding="utf-8"?>
<!-- Generator: Adobe Illustrator 24.1.2, SVG Export Plug-In . SVG Version: 6.00 Build 0)  -->
<svg version="1.1" id="Glyph" xmlns="http://www.w3.org/2000/svg" xmlns:xlink="http://www.w3.org/1999/xlink" x="0px" y="0px"
	 viewBox="0 0 200 200" style="enable-background:new 0 0 200 200;" xml:space="preserve">
<style type="text/css">
	.st0{fill:#1583E9;}
</style>
<g>
	<g>
		<path class="st0" d="M159.8,106.5c-4,0-7.5,1.8-9.9,4.6c-2.4-2.8-5.9-4.6-9.9-4.6s-7.5,1.8-9.9,4.6c-2.4-2.8-5.9-4.6-9.9-4.6
			c-2.4,0-4.6,0.7-6.6,1.8V98.1c0.4-0.1,0.9-0.2,1.3-0.4c0.3-0.1,0.6-0.2,1-0.3c1-0.3,2-0.7,2.9-1.1c0.3-0.1,0.5-0.2,0.8-0.3
			c1.1-0.5,2.2-1,3.3-1.5c0.1,0,0.1-0.1,0.2-0.1c4.6-2.4,8.8-5.4,12.5-9.1c0.1-0.1,0.1-0.3,0.2-0.4c8.8-9,14.1-21.3,14.1-34.4
			c0-13.6-5.4-26.3-15.3-35.8c-9.9-9.4-22.8-14.2-36.5-13.6C73.8,2.4,53.7,21.5,51.4,45.6c-1.5,15.1,4,29.4,14,39.6
			c0.1,0.1,0.1,0.2,0.1,0.2c0.2,0.2,0.5,0.4,0.7,0.7c0.2,0.2,0.3,0.3,0.5,0.5c0.8,0.8,1.7,1.5,2.6,2.3c0.3,0.2,0.5,0.4,0.8,0.6
			c0.9,0.7,1.8,1.3,2.7,2c0.2,0.2,0.5,0.3,0.7,0.5c1.1,0.7,2.3,1.5,3.5,2.1c0.3,0.2,0.6,0.3,0.8,0.4c0.9,0.5,1.9,0.9,2.8,1.4
			c0.4,0.2,0.9,0.4,1.3,0.6c0.9,0.4,1.8,0.7,2.7,1c0.4,0.1,0.9,0.3,1.3,0.4c0.5,0.1,1,0.3,1.4,0.4V148l-10.7-10.7
			c-2.8-2.8-6.6-4.4-10.6-4.4c-8.2,0-14.9,6.7-14.9,14.9c0,4,1.6,7.7,4.4,10.6l31.8,31.8v5.2c0,1.8,1.5,3.3,3.3,3.3h75.7
			c1.8,0,3.3-1.5,3.3-3.3V183l2.9-5.9c0.2-0.5,0.3-1,0.3-1.5v-56C172.9,112.4,167,106.5,159.8,106.5z M66,75.8
			c-6.1-8.3-9.2-18.7-8.1-29.6C60,25.3,77.4,8.8,98.4,7.8c11.9-0.6,23.1,3.6,31.6,11.8c8.6,8.2,13.3,19.2,13.3,31
			c0,9.3-3.1,18.1-8.3,25.2c-3.1-9.8-10.3-17.8-19.7-22c3.1-3.5,5-8.1,5-13.1c0-10.9-8.9-19.8-19.8-19.8s-19.8,8.9-19.8,19.8
			c0,5,1.9,9.6,5,13.1C76.4,58,69.2,66.1,66,75.8z M113.7,40.7c0,4.9-2.7,9.1-6.6,11.3c0,0,0,0-0.1,0c-0.9,0.5-1.9,0.9-2.8,1.2
			c-0.2,0.1-0.3,0.1-0.5,0.2c-0.4,0.1-0.7,0.2-1.1,0.2c-0.6,0.1-1.2,0.2-1.8,0.2c-0.2,0-0.4,0-0.6,0c-0.6,0-1.2-0.1-1.8-0.2
			c-0.4-0.1-0.7-0.1-1.1-0.2c-0.2,0-0.3-0.1-0.5-0.2c-1-0.3-1.9-0.7-2.8-1.2c0,0,0,0-0.1,0c-3.9-2.3-6.6-6.5-6.6-11.3
			c0-7.3,5.9-13.2,13.2-13.2C107.8,27.5,113.7,33.4,113.7,40.7z M87.3,80.2v11.1c-1.4-0.4-2.7-1-4-1.5c-0.4-0.2-0.7-0.3-1.1-0.5
			c-0.9-0.4-1.8-0.9-2.7-1.4c-0.4-0.2-0.8-0.5-1.3-0.7c-0.9-0.5-1.7-1.1-2.5-1.7c-0.4-0.3-0.7-0.5-1.1-0.8c-1.1-0.8-2.1-1.7-3.1-2.6
			c-0.1-0.1-0.2-0.2-0.3-0.3c1.9-11,9.9-20.1,20.6-23.4c2.6,1.3,5.5,2,8.6,2c3.1,0,6-0.7,8.6-2c10.7,3.2,18.7,12.3,20.6,23.3
			c-0.4,0.4-0.9,0.8-1.3,1.2c-0.1,0.1-0.2,0.2-0.3,0.2c-1.6,1.3-3.2,2.5-5,3.6c-0.1,0-0.2,0.1-0.2,0.2c-0.6,0.4-1.3,0.7-1.9,1.1
			c-0.6,0.3-1.2,0.7-1.9,1c-0.5,0.3-1.1,0.5-1.6,0.8c-1.2,0.5-2.3,1-3.5,1.3c-0.1,0-0.1,0.1-0.2,0.1V80.2c0-7.3-5.9-13.2-13.2-13.2
			S87.3,72.9,87.3,80.2z M166.4,174.9l-2.9,5.9c-0.2,0.5-0.3,1-0.3,1.5v9.9H93.9v-3.3c0-0.9-0.3-1.7-1-2.3l-32.8-32.8
			c-1.6-1.6-2.4-3.7-2.4-5.9c0-4.6,3.7-8.3,8.3-8.3c2.2,0,4.3,0.9,5.9,2.4l16.3,16.3c0.9,0.9,2.4,1.2,3.6,0.7c1.2-0.5,2-1.7,2-3
			V95.6V80.2c0-3.6,3-6.6,6.6-6.6c3.6,0,6.6,3,6.6,6.6v15.4v24.1v19.8h6.6v-19.8c0-3.6,3-6.6,6.6-6.6c3.6,0,6.6,3,6.6,6.6v19.8h6.6
			v-19.8c0-3.6,3-6.6,6.6-6.6c3.6,0,6.6,3,6.6,6.6v19.8h6.6v-19.8c0-3.6,3-6.6,6.6-6.6c3.6,0,6.6,2.9,6.6,6.6V174.9z"/>
	</g>
</g>
<g>
	<g>
		<path class="st0" d="M35.4,63c3.6-3,5.9-7.5,5.9-12.5c0-9.1-7.4-16.5-16.5-16.5S8.3,41.5,8.3,50.6c0,5,2.3,9.5,5.9,12.5
			C6.8,66.9,1.7,74.6,1.7,83.5v9.9c0,1.8,1.5,3.3,3.3,3.3h39.5c1.8,0,3.3-1.5,3.3-3.3v-9.9C47.8,74.6,42.8,66.9,35.4,63z M24.8,40.7
			c5.4,0,9.9,4.4,9.9,9.9s-4.4,9.9-9.9,9.9s-9.9-4.4-9.9-9.9S19.3,40.7,24.8,40.7z M41.2,90.1H8.3v-6.6c0-9.1,7.4-16.5,16.5-16.5
			s16.5,7.4,16.5,16.5V90.1z"/>
	</g>
</g>
<g>
	<g>
		<path class="st0" d="M186.8,59.8c3.6-3,5.9-7.5,5.9-12.5c0-9.1-7.4-16.5-16.5-16.5s-16.5,7.4-16.5,16.5c0,5,2.3,9.5,5.9,12.5
			c-7.4,3.8-12.4,11.6-12.4,20.4v9.9c0,1.8,1.5,3.3,3.3,3.3H196c1.8,0,3.3-1.5,3.3-3.3v-9.9C199.3,71.3,194.2,63.6,186.8,59.8z
			 M176.2,37.4c5.4,0,9.9,4.4,9.9,9.9s-4.4,9.9-9.9,9.9s-9.9-4.4-9.9-9.9S170.8,37.4,176.2,37.4z M192.7,86.8h-32.9v-6.6
			c0-9.1,7.4-16.5,16.5-16.5s16.5,7.4,16.5,16.5V86.8z"/>
	</g>
</g>
</svg>
