<?xml version="1.0" encoding="utf-8"?>
<!-- Generator: Adobe Illustrator 24.1.2, SVG Export Plug-In . SVG Version: 6.00 Build 0)  -->
<svg version="1.1" id="Glyph" xmlns="http://www.w3.org/2000/svg" xmlns:xlink="http://www.w3.org/1999/xlink" x="0px" y="0px"
	 viewBox="0 0 200 200" style="enable-background:new 0 0 200 200;" xml:space="preserve">
<style type="text/css">
	.st0{fill:#1583E9;}
</style>
<g>
	<g>
		<g>
			<path class="st0" d="M196.5,53.1C196.5,53.1,196.5,53.1,196.5,53.1L196.5,53.1l-12.8-1.8c-1.8-0.3-3.1-1.9-2.8-3.7
				c0.1-0.9,0.6-1.6,1.3-2.2l10.4-7.8c1.5-1.1,1.8-3.2,0.7-4.6l-11.9-15.8c-1.1-1.5-3.2-1.8-4.6-0.7l-10.4,7.8
				c-1.4,1.1-3.5,0.8-4.6-0.6c-0.5-0.7-0.8-1.6-0.6-2.5l1.8-12.8c0.3-1.8-1-3.5-2.8-3.7c0,0,0,0,0,0l-19.6-2.8
				c-1.8-0.3-3.5,1-3.7,2.8c0,0,0,0,0,0L135,17.5c-0.3,1.8-1.9,3.1-3.7,2.8c-0.9-0.1-1.6-0.6-2.2-1.3l-7.8-10.4
				c-1.1-1.5-3.2-1.8-4.6-0.7l-9.9,7.4c-4.5-0.5-9-0.5-13.5,0C64,18.7,41,42.1,38.1,71.5c-0.1,0.9-0.1,1.9-0.2,2.8h-1
				c-1.6,0-2.9,1.1-3.2,2.6l-2.3,10.8l-9.1-6.3c-1.3-0.9-3.1-0.7-4.2,0.4l-9.9,9.9c-1.1,1.1-1.3,2.9-0.4,4.2l6.3,9.1l-10.8,2.3
				c-1.5,0.3-2.6,1.7-2.6,3.2v13.2c0,1.6,1.1,2.9,2.6,3.2l10.8,2.3l-6.3,9.1c-0.9,1.3-0.7,3.1,0.4,4.2l9.9,9.9
				c1.1,1.1,2.9,1.3,4.2,0.4l9.1-6.3l2.3,10.8c0.3,1.5,1.7,2.6,3.2,2.6h13.2c1.6,0,2.9-1.1,3.2-2.6l2.3-10.8l9.1,6.3
				c1.3,0.9,3.1,0.7,4.2-0.4l5.1-5.1v9.4c0,4.7,2.5,9,6.6,11.3v18.3c0,7.3,5.9,13.2,13.2,13.2H107c7.3,0,13.2-5.9,13.2-13.2V168
				c4.1-2.3,6.6-6.7,6.6-11.3v-13c0.1-5.5,3-10.6,7.6-13.4c2.7-1.8,5.3-3.8,7.8-5.9l-4.4-4.9c-2.2,1.9-4.5,3.7-6.9,5.3
				c-6.5,4.1-10.5,11.3-10.6,19v13c0,3.6-3,6.6-6.6,6.6H87.2c-3.6,0-6.6-3-6.6-6.6v-13.3c-0.1-7.6-4-14.6-10.5-18.6
				c-26.1-16.4-34-50.9-17.6-77c10.2-16.2,27.9-26.1,47.1-26.1c0,0.1-0.1,0.2-0.1,0.4c-0.1,0.9,0.1,1.7,0.6,2.4l7.8,10.4
				c0.8,1.1,0.9,2.5,0.2,3.7c-0.7,1.1-2,1.8-3.3,1.6l-12.8-1.8c-1.8-0.3-3.5,1-3.7,2.8c0,0,0,0,0,0l-2.8,19.6
				c-0.3,1.8,1,3.5,2.8,3.7c0,0,0,0,0,0l12.8,1.8c1.8,0.3,3.1,1.9,2.8,3.7c-0.1,0.9-0.6,1.6-1.3,2.2l-10.4,7.8
				c-1.5,1.1-1.8,3.2-0.7,4.6l11.9,15.8c1.1,1.5,3.2,1.8,4.6,0.7l10.4-7.8c1.5-1.1,3.5-0.8,4.6,0.7c0.5,0.7,0.7,1.6,0.6,2.4
				l-1.8,12.8c-0.3,1.8,1,3.5,2.8,3.7c0,0,0,0,0,0l19.6,2.8c0.2,0,0.3,0,0.5,0c1.6,0,3-1.2,3.3-2.8l1.8-12.8
				c0.3-1.8,1.9-3.1,3.7-2.8c0.9,0.1,1.6,0.6,2.2,1.3l7.8,10.4c1.1,1.5,3.2,1.8,4.6,0.7l15.8-11.9c1.5-1.1,1.8-3.2,0.7-4.6
				l-7.8-10.4c-0.8-1.1-0.9-2.5-0.2-3.7c0.7-1.2,2-1.8,3.3-1.6l12.8,1.8c1.8,0.3,3.5-1,3.7-2.8c0,0,0,0,0,0l2.8-19.6
				C199.5,55,198.3,53.4,196.5,53.1z M87.2,169.9h26.4v6.6H87.2V169.9z M87.2,183h26.4v3.3c0,3.6-3,6.6-6.6,6.6H93.8
				c-3.6,0-6.6-3-6.6-6.6V183z M61,126.2c1.8,1.5,3.7,2.8,5.6,4.1c3.1,2,5.5,4.9,6.6,8.4l-7.1,7.1l-6.8-4.7c-3-2.1-7.1-1.3-9.2,1.7
				c-0.5,0.7-0.8,1.5-1,2.4l-1.7,8.2h-7.8l-1.7-8.2c-0.7-3.6-4.2-5.8-7.8-5.1c-0.9,0.2-1.7,0.5-2.4,1l-6.8,4.7l-6-6l4.7-6.8
				c2.1-3,1.3-7.1-1.7-9.2c-0.7-0.5-1.5-0.8-2.4-1l-8.2-1.7v-7.8l8.2-1.7c3.6-0.8,5.8-4.3,5.1-7.8c-0.2-0.8-0.5-1.6-1-2.4l-4.7-6.9
				l6-6l6.9,4.7c3,2.1,7.1,1.3,9.2-1.7c0.5-0.7,0.8-1.5,1-2.4l0.6-2.7c0.5,3.8,1.4,7.5,2.6,11.2c-10.8,1.3-18.6,11.1-17.3,22
				s11.1,18.6,22,17.3C52.3,136,58,132.1,61,126.2z M55.9,121.6c-2.5,6.8-10,10.4-16.8,7.9c-6.8-2.5-10.4-10-7.9-16.8
				c1.9-5.2,6.8-8.7,12.4-8.7c0,0,0.1,0,0.1,0C46.7,110.5,50.8,116.5,55.9,121.6z M190.4,72.2l-9.6-1.4c-5.4-0.8-10.4,3-11.2,8.4
				c-0.4,2.6,0.3,5.2,1.9,7.3l5.8,7.7l-10.5,7.9l-5.8-7.7c-3.3-4.4-9.5-5.3-13.8-2c-2.1,1.6-3.5,3.9-3.9,6.5l-1.3,9.6l-13-1.9
				l1.4-9.6c0.8-5.4-3-10.4-8.4-11.2c-2.6-0.4-5.2,0.3-7.3,1.9l-7.7,5.8l-7.9-10.5l7.7-5.8c4.4-3.3,5.3-9.5,2-13.8
				c-1.6-2.1-3.9-3.5-6.5-3.9l-9.6-1.4l1.9-13l9.6,1.4c5.4,0.8,10.4-3,11.2-8.4c0.4-2.6-0.3-5.2-1.9-7.3l-5.8-7.7l10.5-7.9l5.8,7.7
				c3.3,4.4,9.5,5.3,13.8,2c2.1-1.6,3.5-3.9,3.9-6.5l1.4-9.6l13,1.9l-1.4,9.6c-0.8,5.4,3,10.4,8.4,11.2c2.6,0.4,5.2-0.3,7.3-1.9
				l7.7-5.8l7.9,10.5l-7.7,5.8c-4.4,3.3-5.3,9.5-2,13.8c1.6,2.1,3.9,3.5,6.5,3.9l9.6,1.4L190.4,72.2z"/>
		</g>
	</g>
	<g>
		<g>
			<path class="st0" d="M142.4,32.3c-14.6,0-26.4,11.8-26.4,26.4s11.8,26.4,26.4,26.4c14.6,0,26.4-11.8,26.4-26.4
				C168.7,44.1,156.9,32.4,142.4,32.3z M142.4,78.5c-10.9,0-19.8-8.9-19.8-19.8s8.9-19.8,19.8-19.8c10.9,0,19.8,8.9,19.8,19.8
				C162.1,69.6,153.3,78.5,142.4,78.5z"/>
		</g>
	</g>
	<g>
		<g>
			<rect x="97.1" y="146.8" class="st0" width="6.6" height="9.9"/>
		</g>
	</g>
	<g>
		<g>
			<path class="st0" d="M86,114.4c-20.3-7.9-30.4-30.9-22.4-51.2c3.1-7.9,8.6-14.6,15.8-19.1l-3.5-5.6c-21.6,13.6-28,42.1-14.4,63.6
				c5.3,8.3,13.1,14.8,22.2,18.4c8.1,3.1,13.5,10.9,13.5,19.6h6.6C103.7,128.8,96.7,118.5,86,114.4z"/>
		</g>
	</g>
	<g>
		<g>
			<rect x="163" y="123.7" class="st0" width="23.1" height="6.6"/>
		</g>
	</g>
	<g>
		<g>
			
				<rect x="166.3" y="138.9" transform="matrix(0.6401 -0.7683 0.7683 0.6401 -55.5275 184.9268)" class="st0" width="6.6" height="25.7"/>
		</g>
	</g>
	<g>
		<g>
			<rect x="143.3" y="150.1" class="st0" width="6.6" height="23.1"/>
		</g>
	</g>
	<g>
		<g>
			
				<rect x="4.5" y="54.5" transform="matrix(0.9701 -0.2425 0.2425 0.9701 -13.4848 6.104)" class="st0" width="27.2" height="6.6"/>
		</g>
	</g>
	<g>
		<g>
			
				<rect x="19.7" y="15.7" transform="matrix(0.5812 -0.8137 0.8137 0.5812 -14.6421 31.2007)" class="st0" width="6.6" height="28.3"/>
		</g>
	</g>
	<g>
		<g>
			<rect x="41" y="1.4" transform="matrix(0.9688 -0.2477 0.2477 0.9688 -2.3318 11.4507)" class="st0" width="6.6" height="27.2"/>
		</g>
	</g>
</g>
</svg>
