<svg width="12" height="12" viewBox="0 0 12 12" fill="none" xmlns="http://www.w3.org/2000/svg">
<path id="Vector" fill-rule="evenodd" clip-rule="evenodd" d="M12 12H9.53438V7.80049C9.53438 6.6491 9.09688 6.00566 8.18555 6.00566C7.19414 6.00566 6.67617 6.67526 6.67617 7.80049V12H4.3V4H6.67617V5.0776C6.67617 5.0776 7.39062 3.75559 9.08828 3.75559C10.7852 3.75559 12 4.7918 12 6.9349V12ZM1.46523 2.95246C0.655859 2.95246 0 2.29146 0 1.47623C0 0.661005 0.655859 0 1.46523 0C2.27461 0 2.93008 0.661005 2.93008 1.47623C2.93008 2.29146 2.27461 2.95246 1.46523 2.95246ZM0.238281 12H2.71602V4H0.238281V12Z" fill="black" fill-opacity="0.87"></path>
</svg>