<svg width="195" height="42" viewBox="0 0 195 42" fill="none" xmlns="http://www.w3.org/2000/svg">
<path fill-rule="evenodd" clip-rule="evenodd" d="M18.321 0.396554C17.6734 0.656962 17.5985 1.08013 17.9824 2.29763C19.0541 5.69849 17.8293 6.60652 15.9341 3.8149C14.8094 2.1582 14.3993 1.86329 13.4058 1.99641C11.4561 2.25828 11.39 2.79319 13.0589 4.83467C14.6359 6.76539 14.7836 7.85949 13.5301 8.33609C12.765 8.6276 12.2038 8.28557 11.0261 6.8096C9.4564 4.84196 8.51097 4.3673 7.72585 5.15241C7.20747 5.6708 7.37945 6.13914 8.58481 7.49706C9.62159 8.66452 9.74791 8.89675 9.74791 9.63814C9.74791 10.6841 9.60604 10.6919 7.54269 9.75231C5.49684 8.82047 4.67577 8.7991 3.90912 9.6566C3.27559 10.3654 3.37227 10.9139 4.17439 11.1573C5.51092 11.5625 5.73684 12.3982 4.99011 14.172C4.58881 15.1247 4.50816 15.5974 4.55431 16.708C4.6301 18.5508 4.18362 18.9803 2.66878 18.5207C0.255144 17.7885 -0.344378 18.5027 0.385348 21.2414C0.670534 22.3102 0.68268 22.6416 0.474256 23.6501C0.254658 24.7151 0.268262 24.8987 0.628752 25.714C0.845921 26.2061 1.02471 26.9708 1.02471 27.4134C1.02471 29.314 1.96966 29.5254 3.70361 28.013C5.08193 26.811 5.10039 26.8042 5.57311 27.3265C6.20859 28.029 5.84129 28.5833 4.23463 29.3456C1.69905 30.5495 1.83654 31.1184 5.3574 33.9858C7.01945 35.3399 7.55241 37.0578 6.9388 39.0803C6.5477 40.3707 6.56811 40.5164 7.14042 40.5164C9.78289 40.5164 11.2307 36.467 9.96313 32.6201C9.11292 30.0384 9.10028 29.8844 9.56134 27.6335C10.1225 24.8934 9.80863 23.7269 8.57558 23.9727C7.18755 24.2506 6.72843 22.7509 8.00327 22.1008C8.61396 21.7889 8.97202 21.3895 8.97202 21.0208C8.97202 20.9771 8.53574 20.4601 8.00327 19.8713C6.85863 18.6081 6.81102 18.2136 7.69282 17.3318C9.2198 15.8049 13.1551 17.2716 12.4574 19.1076C12.0765 20.1084 12.2179 20.6462 12.9948 21.1544C13.6589 21.5892 13.7162 21.6961 13.6594 22.3986C13.5049 24.3041 13.4995 24.2769 14.1097 24.617C14.6393 24.9119 14.6962 25.043 14.7506 26.0827C14.8298 27.6044 15.5595 28.5075 15.5663 27.0923C15.5736 25.6105 15.8592 25.6824 17.2745 27.5232C18.1985 28.7267 18.5143 28.1927 17.9041 26.4573C17.4912 25.2826 17.531 25.2257 18.3739 25.7839C19.5074 26.5346 20.1123 26.1211 19.5297 24.994C19.2951 24.5402 19.229 24.0602 19.2946 23.2799C19.4229 21.7564 19.2193 21.4547 17.4348 20.5272C14.1486 18.8175 14.1253 17.2541 17.3862 17.2541C20.0744 17.2541 21.5941 15.2612 20.5879 13.0531C19.625 10.9392 21.818 9.1936 24.9293 9.59781C28.9802 10.1235 30.4256 13.9592 26.5724 13.9592C25.8471 13.9592 24.7967 14.9299 24.1977 16.1542C23.6662 17.2415 23.6934 17.6651 24.3842 19.0007C24.8633 19.9262 24.6748 21.8079 23.8143 24.6928C23.4038 26.0682 23.175 27.1807 23.244 27.4576C23.3989 28.0727 23.0457 28.459 22.1834 28.6183C21.7942 28.6897 21.2574 28.9132 20.9911 29.1139C20.7249 29.3145 20.1142 29.7634 19.6347 30.1118C18.4356 30.9839 18.3453 31.4935 19.4219 31.3113C19.8587 31.2375 20.2157 31.218 20.2157 31.2671C20.2157 31.3166 20.0851 31.7277 19.9252 32.181C19.2761 34.0203 19.588 34.7229 20.5641 33.6195C21.3783 32.7003 21.7505 32.8072 22.2456 34.1054C22.8091 35.5818 23.1235 35.6027 23.1235 34.1646C23.1235 33.3096 23.2483 32.78 23.6079 32.1022C23.8746 31.6009 24.0927 31.0295 24.0927 30.8313C24.0927 30.0996 26.8843 28.7952 28.406 28.816C29.9699 28.8379 29.9271 29.0201 29.058 26.0171C28.3768 23.6628 27.9979 21.3249 28.2971 21.3249C28.456 21.3249 29.4141 22.713 30.4737 24.4775C31.4235 26.0584 31.8904 25.8282 32.3233 23.5651C32.813 21.0062 33.9226 19.8577 35.4253 20.3533C38.4249 21.3434 38.0814 27.942 34.9482 29.5191C33.5252 30.2357 33.3532 30.498 33.5053 31.7175C33.7069 33.3295 33.0044 34.2545 30.2609 35.9899C29.3917 36.5394 28.5245 37.2735 28.1762 37.7545C27.6073 38.5396 27.5329 38.578 26.5797 38.578C25.8087 38.578 25.3778 38.7072 24.6918 39.1425C24.202 39.4539 23.3003 39.9514 22.6877 40.2492C21.4784 40.8371 21.4201 40.9178 21.8773 41.3754C22.7377 42.2353 26.1031 41.6344 27.4464 40.3814C28.0926 39.7789 28.4779 39.5521 28.7067 39.641C29.7653 40.0505 29.9796 39.9747 32.5249 38.284C36.0895 35.918 36.3693 35.6265 36.2313 34.4241C36.0938 33.2265 36.3081 32.9559 37.3949 32.9559C38.9647 32.9559 40.6282 30.6219 41.2476 27.5504C41.4279 26.6565 41.7422 25.5371 41.9453 25.0634C42.4326 23.9271 42.4175 23.7813 41.7334 23.003C41.0805 22.2592 41.0197 21.7476 41.4424 20.55C42.0624 18.7928 41.8185 18.371 39.5345 17.2541C37.1496 16.0881 37.5159 14.7409 40.1448 15.01L41.4011 15.1383L41.2923 14.086C41.0669 11.8987 39.981 10.9528 38.3943 11.5611C36.0307 12.4667 35.0746 11.1855 36.8867 9.54146C38.0362 8.49885 38.113 8.00281 37.2744 7.04717C36.8377 6.55016 36.6929 6.19404 36.6929 5.61687V4.84779H35.6187C34.821 4.84779 34.3988 4.73945 33.9766 4.42754L33.4077 4.00681L32.1897 5.29962C30.2978 7.30661 29.8115 7.10061 29.8115 4.29442C29.8115 1.51106 29.4695 1.21033 25.5507 0.553479C22.4117 0.0273183 22.5176 -0.0285529 22.661 2.07852C22.8835 5.37201 21.5188 6.04586 20.7813 3.00598C20.2318 0.741012 19.4714 -0.0649907 18.321 0.396554ZM138.545 5.88845C138.489 6.03372 138.47 7.34256 138.503 8.79618C138.535 10.2498 138.543 11.4391 138.52 11.4391C138.497 11.4391 138.074 11.1826 137.58 10.8692C135.446 9.51619 131.451 9.54437 129.087 10.93C124.382 13.6876 125.233 21.5377 130.426 23.2659C133.093 24.153 138.451 23.3436 138.464 22.0517C138.464 21.9721 138.558 21.9065 138.673 21.9065C138.792 21.9065 138.855 22.1776 138.818 22.5371L138.755 23.1667L141.615 23.2202L144.474 23.2736V5.62318H141.56C139.275 5.62318 138.625 5.68051 138.545 5.88845ZM75.2693 9.8179C72.105 10.2794 70.6796 11.0888 69.9484 12.8379C69.3868 14.1836 69.3275 14.1525 72.4927 14.1525H75.3378L75.8367 13.555C77.0183 12.1392 81.2791 12.5012 81.2791 14.017C81.2791 14.7783 80.6538 14.9406 76.9887 15.1334C73.1301 15.336 71.6697 15.5566 70.6169 16.0959C67.7665 17.5558 67.851 21.5776 70.7622 23.0069C72.862 24.0378 78.1931 23.8756 80.4002 22.7139C80.9366 22.4312 81.435 22.1722 81.507 22.1387C81.5798 22.1047 81.6668 22.3228 81.7013 22.6226L81.7635 23.1667L84.8082 23.2202L87.8539 23.2731L87.5707 22.5964C87.354 22.077 87.2879 20.9814 87.2869 17.8906C87.286 12.5245 86.9119 11.494 84.6085 10.5029C83.0023 9.81207 77.8821 9.43651 75.2693 9.8179ZM111.52 9.8179C108.355 10.2794 106.929 11.0888 106.199 12.8379C105.637 14.1841 105.575 14.1525 108.769 14.1525H111.64L112.058 13.5885C113.092 12.1893 117.529 12.4769 117.529 13.9426C117.529 14.7841 116.98 14.9367 113.239 15.1334C108.411 15.3866 107.103 15.6751 105.928 16.744C104.284 18.2389 104.536 21.3895 106.401 22.6673C108.458 24.0767 114.299 24.0412 116.872 22.6037C117.966 21.992 117.878 21.9896 117.952 22.6333L118.013 23.1667L121.076 23.2202L124.139 23.2736L123.887 22.8325C123.708 22.5191 123.607 21.0431 123.538 17.739C123.421 12.0989 123.291 11.7141 121.162 10.6803C119.4 9.8247 114.484 9.38502 111.52 9.8179ZM153.358 9.88008C148.771 10.7167 147.091 12.5629 147.091 16.7697C147.091 21.9419 149.868 23.8037 157.293 23.6089C163.728 23.4403 166.092 21.6023 166.086 16.7697C166.083 13.0565 164.659 11.119 161.242 10.1794C159.904 9.81158 154.799 9.61725 153.358 9.88008ZM56.7565 10.1964C56.2235 10.3625 55.4656 10.7541 55.0721 11.066C54.1704 11.7802 54.1398 11.7758 54.1398 10.9543V10.2756H48.5177V27.9163H54.3331V25.0085C54.3331 23.4092 54.3827 22.1008 54.4434 22.1008C54.5037 22.1008 54.8486 22.3258 55.2101 22.6017C57.1155 24.0548 61.7057 24.05 64.0154 22.5915C68.4481 19.7936 67.7583 12.3394 62.8916 10.4437C61.4468 9.88105 58.1897 9.74988 56.7565 10.1964ZM99.2356 10.3611C98.107 10.8289 97.4735 11.2827 96.648 12.2145L96.219 12.6989L96.2122 11.4872L96.205 10.2756H90.3895V23.2639H96.3993V20.3367C96.3993 16.9529 96.5727 16.3665 97.8199 15.5411C98.6521 14.9896 101.598 14.7933 103.141 15.1874L103.777 15.3491L103.723 12.6668L103.669 9.98454L102.02 9.93741C100.646 9.89757 100.184 9.96802 99.2356 10.3611ZM169.793 12.8442C171.045 14.257 172.272 15.6368 172.522 15.9108L172.976 16.4092L170.065 19.7207C168.464 21.5411 167.155 23.0837 167.155 23.1478C167.155 23.2114 168.808 23.2639 170.828 23.2639H174.502L175.698 21.5674C176.355 20.6346 176.953 19.8052 177.027 19.7246C177.1 19.6439 177.723 20.4057 178.409 21.4172L179.658 23.2581L183.39 23.261C185.442 23.262 187.122 23.2265 187.122 23.1808C187.122 23.1352 185.848 21.6738 184.291 19.934C182.733 18.1932 181.416 16.6609 181.362 16.5283C181.309 16.3956 182.3 15.1456 183.563 13.7493C184.827 12.3535 186.022 11.0009 186.217 10.7434L186.572 10.2756H179.379L178.377 11.7782C177.826 12.6042 177.308 13.3558 177.225 13.4486C177.141 13.5409 176.574 12.8646 175.962 11.9459L174.851 10.2756H167.518L169.793 12.8442ZM13.1531 13.9835C13.8202 15.2738 13.3188 16.3441 12.2956 15.8146C11.392 15.3472 11.2963 14.5436 12.01 13.4131C12.3384 12.8932 12.676 13.0618 13.1531 13.9835ZM158.418 13.9106C160.467 14.9551 160.523 18.5168 158.506 19.4856C155.773 20.7983 153.086 19.2878 153.243 16.5297C153.359 14.5106 154.42 13.572 156.59 13.572C157.315 13.572 158.004 13.6997 158.418 13.9106ZM34.6427 14.7972C36.5705 17.5961 36.3358 19.1931 34.0392 18.906C32.0459 18.6567 31.7364 17.6049 32.9471 15.1878C33.7983 13.4894 33.7497 13.501 34.6427 14.7972ZM59.6924 14.3726C61.3389 15.3666 61.283 18.1889 59.5962 19.2378C58.1013 20.1677 55.4855 19.693 54.785 18.3657C53.1953 15.3511 56.653 12.5376 59.6924 14.3726ZM136.316 13.9737C139.921 14.7467 139.101 19.6444 135.363 19.6692C130.966 19.6984 130.826 14.4125 135.208 13.7848C135.283 13.7736 135.782 13.8591 136.316 13.9737ZM80.99 19.1158C80.0941 20.7837 75.7119 21.117 75.0691 19.5652C74.5439 18.2967 75.125 17.9921 78.7586 17.6311C79.9848 17.5097 81.0318 17.3663 81.0848 17.3134C81.351 17.0496 81.2689 18.5945 80.99 19.1158ZM117.593 18.2894C117.235 20.4976 112.234 21.5931 111.352 19.6571C110.771 18.3822 111.46 17.9834 114.815 17.6535C116.148 17.5228 117.276 17.3775 117.322 17.3314C117.549 17.1054 117.699 17.635 117.593 18.2894ZM26.896 22.2111C26.9664 22.9501 27.1613 24.169 27.3289 24.9196C27.7564 26.8324 27.2672 27.8925 26.2168 27.3299C25.5454 26.9708 25.4579 26.5307 25.6571 24.5057C26.1046 19.9495 26.5948 19.0425 26.896 22.2111ZM16.9388 22.37C17.4926 23.278 17.4353 24.0393 16.8144 24.0393C15.9321 24.0393 15.369 23.2445 15.369 21.9988V20.911L15.97 21.339C16.3004 21.5737 16.7367 22.0381 16.9388 22.37ZM5.20096 22.9646C5.72129 23.4845 5.80048 24.0267 5.45165 24.6816C4.91286 25.6931 3.82556 25.8884 3.05113 25.114C2.08966 24.1525 2.77081 22.488 4.12629 22.488C4.5033 22.488 4.9012 22.6644 5.20096 22.9646ZM191.177 29.2582C190.015 30.4203 190.642 32.2854 192.268 32.504C193.787 32.7076 194.923 31.0645 194.212 29.6901C193.604 28.5143 192.131 28.3049 191.177 29.2582ZM193.458 29.5006C194.072 30.0778 194.06 31.0752 193.43 31.7053C192.717 32.4185 191.638 32.2111 191.213 31.2783C190.513 29.7406 192.249 28.3657 193.458 29.5006ZM130.412 29.8314C128.357 30.7647 128.196 34.4007 130.16 35.5604C131.805 36.5321 134.911 36.0346 135.745 34.666C136.343 33.6851 136.268 33.5374 135.169 33.5374C134.486 33.5374 134.2 33.6151 134.2 33.7988C134.2 35.5444 130.921 34.9706 130.617 33.1711C130.248 30.9877 132.449 29.7469 133.922 31.3084C134.798 32.2378 136.268 32.3384 136.048 31.4541C135.615 29.709 132.595 28.8399 130.412 29.8314ZM191.732 29.6123C191.696 29.6925 191.72 30.1939 191.786 30.7268C191.853 31.2603 191.921 31.4998 191.938 31.2603C191.975 30.7196 192.479 30.6851 192.646 31.2112C192.714 31.425 192.895 31.5994 193.049 31.5994C193.279 31.5994 193.285 31.5314 193.089 31.2166C192.9 30.9144 192.9 30.7832 193.087 30.5962C193.42 30.2634 193.383 29.7246 193.018 29.5846C192.591 29.4209 191.81 29.4374 191.732 29.6123ZM48.5177 32.7625V35.8636H50.2623V29.6609H48.5177V32.7625ZM58.404 32.7625V35.8636H59.9426L59.997 33.6851L60.0524 31.5061L61.7611 33.6851L63.4693 35.8636H65.383V29.6609H63.6515L63.5961 31.7369L63.5417 33.8139L61.9977 31.7369L60.4537 29.6609H58.404V32.7625ZM72.7847 30.1939C72.843 30.6987 72.9057 30.7298 73.9609 30.7851L75.0754 30.8434V35.8636H76.8201V30.824H79.1463V29.6609H72.7235L72.7847 30.1939ZM86.7064 32.7625V35.8636H92.5223V34.7005H88.4515V33.1502H92.3285V32.181H88.4515V30.824H92.5223V29.6609H86.7064V32.7625ZM100.47 32.7625V35.8636H102.215V33.5374H103.341C104.76 33.5374 105.088 33.7832 105.162 34.8948L105.219 35.7674L106.13 35.8262L107.04 35.884L106.943 35.1475C106.715 33.4096 106.636 33.124 106.362 33.0181C106.12 32.9257 106.137 32.8456 106.467 32.5385C107.006 32.0367 107.153 31.3205 106.863 30.619C106.501 29.7469 106.172 29.6609 103.197 29.6609H100.47V32.7625ZM116.696 29.9029C116.64 30.0365 116.027 31.4318 115.331 33.0049L114.067 35.8636H114.986C115.847 35.8636 115.927 35.8204 116.23 35.1859L116.554 34.5071H119.268L119.552 35.1859C119.82 35.8272 121.805 36.3251 121.567 35.6911C121.532 35.5964 120.935 34.2025 120.243 32.5929L118.983 29.6672L117.889 29.6643C117.194 29.6624 116.759 29.7489 116.696 29.9029ZM143.311 30.2425V30.824H145.637V35.8636H147.382V30.824H149.708V29.6609H143.311V30.2425ZM157.074 32.7625V35.8636H158.819V29.6609H157.074V32.7625ZM166.322 29.9845C166.39 30.1623 166.986 31.5358 167.648 33.0375L168.849 35.7674L169.799 35.8242L170.75 35.8811L172.135 32.761L173.522 29.642L172.542 29.6993L171.562 29.7576L170.764 31.9375C169.79 34.597 169.896 34.5999 168.891 31.8899L168.066 29.6609H167.131C166.339 29.6609 166.216 29.71 166.322 29.9845ZM180.821 32.7625V35.8636H186.734V34.7005H182.445L182.506 33.9737L182.566 33.2469L184.553 33.1915C186.513 33.1376 186.54 33.1298 186.54 32.6653C186.54 32.2004 186.513 32.1936 184.553 32.1392L182.566 32.0838L182.505 31.4541L182.444 30.824H186.734V29.6609H180.821V32.7625ZM192.937 30.1453C192.937 30.3265 192.754 30.4363 192.452 30.4363C192.151 30.4363 191.968 30.3265 191.968 30.1453C191.968 29.9646 192.151 29.8548 192.452 29.8548C192.754 29.8548 192.937 29.9646 192.937 30.1453ZM105.089 31.4813C105.173 32.2169 104.891 32.368 103.426 32.3714L102.215 32.3743V30.8065L103.62 30.8638C105.01 30.9202 105.026 30.927 105.089 31.4813ZM118.356 32.1581C118.813 33.447 118.81 33.4534 117.807 33.3732C117.242 33.328 116.954 33.2231 117.01 33.0812C117.904 30.8396 117.891 30.8493 118.356 32.1581Z" fill="white"/>
</svg>
