<svg width="118" height="46" viewBox="0 0 118 46" fill="none" xmlns="http://www.w3.org/2000/svg">
<g clip-path="url(#clip0_469:380)">
<path fill-rule="evenodd" clip-rule="evenodd" d="M0.812399 19.3884L0.875287 32.6396L1.37546 33.58C5.73342 41.7681 19.5485 41.5186 23.4972 33.1805C28.5127 22.5911 16.4632 11.7323 6.79841 18.1317L5.36662 19.0796L5.36136 14.7178C5.35551 9.81161 5.22535 8.95496 4.34872 8.05123C3.49609 7.17264 1.81012 6.13721 1.23155 6.13721H0.749512L0.812399 19.3884ZM84.296 27.6097L84.3528 39.779L85.1171 39.8506C86.1949 39.9517 87.3915 39.5078 88.1623 38.721L88.8216 38.0484L88.8877 31.3416C88.9608 23.9293 88.9924 23.7542 90.5222 22.3205C92.62 20.3545 96.1864 20.7785 97.8867 23.1959L98.5943 24.2022L98.7101 30.26C98.7739 33.5915 98.9055 36.4821 99.0026 36.6831C99.5733 37.8667 101.645 38.0977 102.664 37.0915L103.305 36.459V31.0213C103.305 24.8096 103.423 24.0818 104.649 22.7058C106.907 20.1734 110.974 20.6517 112.552 23.6352L113.165 24.7925V31.337C113.165 37.7263 113.176 37.8959 113.64 38.479C114.264 39.2611 115.668 39.8766 116.844 39.8824L117.785 39.8873L117.721 31.6067L117.656 23.3265L116.903 21.8171C114.156 16.3081 106.518 14.6866 102.13 18.6808L101.143 19.5793L99.9758 18.64C96.989 16.2382 92.7051 15.8099 89.2401 17.5668L88.4308 17.9772L87.8159 17.3285C86.9645 16.4306 85.3546 15.4402 84.7462 15.4402H84.2396L84.296 27.6097ZM37.2041 16.6119C26.4056 18.7146 24.2773 33.647 34.0793 38.5373C39.3206 41.1523 47.7405 39.532 48.246 35.8111C48.4466 34.3341 48.322 34.2368 46.818 34.6989C42.0239 36.1724 35.8545 35.1624 33.9275 32.589C33.4659 31.9724 32.7543 30.6975 32.7543 30.487C32.7543 30.4214 36.7057 30.368 41.5351 30.368H50.3163L50.9566 29.7357C51.5407 29.159 51.5971 28.9718 51.5971 27.6115C51.5971 20.5483 44.5695 15.1779 37.2041 16.6119ZM65.7869 16.5158C56.2461 18.2241 52.5132 29.3993 59.1989 36.2374C63.1257 40.2538 69.6213 41.0169 74.4206 38.0252L75.2384 37.5155L75.9355 38.4738C76.7027 39.5286 77.4571 39.8873 78.9079 39.8873H79.8611L79.8594 33.6672C79.8576 26.6069 79.7032 25.2625 78.644 23.0845C76.3716 18.4101 70.8784 15.6039 65.7869 16.5158ZM15.7349 21.5017C22.7903 24.9811 20.5415 35.0195 12.7066 35.0195C4.45607 35.0195 2.59139 24.0956 10.3421 21.1675C11.6314 20.6806 14.4198 20.8533 15.7349 21.5017ZM42.2854 21.4529C43.9983 22.0996 46.0294 23.9997 46.4383 25.3378L46.5872 25.8248H39.6707C35.8668 25.8248 32.7543 25.7722 32.7543 25.7078C32.7543 22.741 38.6853 20.0931 42.2854 21.4529ZM69.1691 21.0919C77.7341 22.8843 76.5477 35.2329 67.8104 35.2329C59.1641 35.2329 57.8762 22.7298 66.3523 21.074C67.6548 20.8195 67.8753 20.8209 69.1691 21.0919Z" fill="white"/>
</g>
<defs>
<clipPath id="clip0_469:380">
<rect width="117" height="45" fill="white" transform="translate(0.766602 0.512329)"/>
</clipPath>
</defs>
</svg>
