<svg width="165" height="49" viewBox="0 0 165 49" fill="none" xmlns="http://www.w3.org/2000/svg">
<g clip-path="url(#clip0_469:383)">
<path d="M0.744629 48.0274V0.0123291H34.372V48.0274H0.744629ZM29.5061 43.1907V4.84909H5.58673V43.1907H29.5061ZM56.7158 21.549H54.6354C51.9085 17.7074 49.1931 13.8898 46.49 9.56862V21.549H44.1394V4.83725H46.2198C48.9467 8.65478 51.6617 12.4494 54.3415 16.7474V4.83725H56.6924V21.549H56.7158ZM62.1696 14.9438C62.8395 12.7538 63.5095 10.7161 64.1089 8.14006C64.7788 10.7161 65.3783 12.7538 66.0015 14.9438H62.1696ZM63.2741 4.84909L57.4677 21.549H59.9597L61.4172 16.9933H66.4713L67.7874 21.549H70.9965L65.6956 4.83725H63.3451L63.2741 4.84909ZM73.7234 21.549V7.08569H69.3155V4.84909H80.9755V7.08569H76.568V21.549H73.6881H73.7234ZM81.9513 21.549V4.83725H84.8073V21.549H81.9513ZM93.6576 19.4174C90.6605 19.4174 89.6027 16.1264 89.6027 12.9294C89.6027 9.73243 90.7782 6.91003 93.6576 6.91003C96.5374 6.91003 97.701 9.84967 97.701 12.9294C97.701 16.0096 96.6551 19.4174 93.6576 19.4174ZM93.6576 21.7598C98.0417 21.7598 100.769 17.8716 100.769 12.8829C100.769 8.19847 97.7478 4.47408 93.6576 4.47408C89.5674 4.47408 86.5466 8.19847 86.5466 12.8829C86.5466 17.9419 89.2739 21.8415 93.6576 21.8415V21.7598ZM115.061 21.549H112.981C110.254 17.7074 107.539 13.8898 104.836 9.56862V21.549H102.485V4.83725H104.565C107.292 8.65478 110.008 12.4494 112.687 16.7474V4.83725H115.038V21.549H115.061ZM120.55 14.9438C121.22 12.7538 121.89 10.7161 122.49 8.14006C123.16 10.7161 123.759 12.7538 124.382 14.9438H120.503H120.55ZM121.655 4.84909L115.861 21.5604H118.352L119.81 17.0047H124.864L126.18 21.5604H129.389L124.041 4.84909H121.69H121.655ZM130.223 4.83725H133.08V19.3002H138.757V21.549H130.223V4.83725ZM54.9409 35.5319V42.4296C53.4284 43.0658 51.81 43.4153 50.1689 43.4603C45.2325 43.4603 42.1173 39.6424 42.1173 34.7239C42.1173 30.1682 45.2325 26.175 50.2628 26.175C51.7182 26.1832 53.1366 26.6324 54.3296 27.463L53.4013 29.4423C52.4726 28.8892 51.4154 28.5865 50.3337 28.564C47.2657 28.564 45.1853 30.9766 45.1853 34.7709C45.1853 38.5651 47.5359 41.0713 50.0516 41.0713C50.745 41.101 51.4351 40.9603 52.0611 40.6616V35.5319H54.9409ZM65.2257 28.7041H60.43V33.2835H65.1314V35.5319H60.43V40.9308H66.0835V43.1792H57.5505V26.4442H65.2143V28.6926L65.2257 28.7041ZM74.0879 41.0713C71.0908 41.0713 70.0445 37.7804 70.0445 34.5834C70.0445 31.3864 71.2199 28.564 74.0879 28.564C76.9558 28.564 78.1432 31.5032 78.1432 34.5834C78.1428 37.6631 77.085 41.0713 74.0879 41.0713ZM74.0879 43.4133C78.472 43.4133 81.1989 39.5251 81.1989 34.5364C81.1989 29.8524 78.178 26.128 74.0879 26.128C69.9977 26.128 66.9773 29.8524 66.9773 34.5364C66.9773 39.5721 69.7038 43.4603 74.0879 43.4603V43.4133ZM95.0094 35.5319V42.4296C93.4968 43.0658 91.8785 43.4153 90.2374 43.4603C85.301 43.4603 82.1858 39.6424 82.1858 34.7239C82.1858 30.1682 85.301 26.175 90.3317 26.175C91.7869 26.1833 93.2052 26.6325 94.3981 27.463L93.4698 29.4423C92.541 28.8891 91.4836 28.5864 90.4018 28.564C87.3342 28.564 85.2538 30.9766 85.2538 34.7709C85.2538 38.5651 87.6044 41.0713 90.1197 41.0713C90.8134 41.101 91.5037 40.9603 92.1299 40.6616V35.5319H95.0094ZM100.522 28.7041H101.791C102.153 28.6683 102.518 28.7138 102.86 28.8372C103.202 28.9606 103.512 29.1588 103.767 29.4172C104.022 29.6757 104.215 29.9877 104.333 30.3305C104.451 30.6732 104.49 31.0379 104.448 31.3978C104.5 31.796 104.47 32.2006 104.359 32.5868C104.249 32.9729 104.06 33.3323 103.804 33.6429C103.548 33.9534 103.232 34.2085 102.873 34.3924C102.515 34.5763 102.123 34.6851 101.721 34.712L100.546 34.7823V28.6926L100.522 28.7041ZM107.809 43.1678L104.483 36.2464C105.37 35.7556 106.109 35.0352 106.619 34.1613C107.13 33.2874 107.395 32.2923 107.386 31.281C107.386 28.037 105.4 26.456 102.191 26.456H97.7129V43.1678H100.592V36.8669H101.885L104.589 43.1678H107.868H107.809Z" fill="white"/>
<path d="M112.546 36.5625C113.216 34.3725 113.886 32.3349 114.486 29.7584C115.156 32.3349 115.755 34.3607 116.378 36.5625H112.499H112.546ZM113.651 26.4441L107.856 43.1555H110.36L111.817 38.5998H116.872L118.188 43.1555H121.397L116.049 26.4441H113.698H113.651ZM126.815 26.4441H122.337V43.1555H125.217V36.8669H126.51C129.535 36.8869 132.003 34.4603 132.023 31.4463C132.024 31.3908 132.023 31.3356 132.022 31.2805C131.975 28.0365 129.989 26.4441 126.815 26.4441ZM126.404 34.7001L125.228 34.7704V28.6926H126.521C126.881 28.6607 127.244 28.709 127.583 28.8341C127.921 28.9592 128.228 29.1579 128.48 29.4158C128.732 29.6737 128.924 29.9843 129.04 30.3251C129.157 30.6659 129.196 31.0282 129.154 31.3859C129.209 31.7902 129.178 32.2014 129.065 32.5933C128.951 32.9853 128.758 33.3496 128.496 33.6633C128.234 33.977 127.91 34.2331 127.544 34.4157C127.178 34.5982 126.778 34.7031 126.369 34.7238L126.404 34.7001ZM145.304 43.1677H142.424V35.1221H136.453V43.1677H133.597V26.4441H136.453V32.8614H142.424V26.4907H145.304V43.1555V43.1677ZM148.054 43.1677V26.4441H150.911V43.1555H148.054V43.1677ZM163.839 29.4892C162.953 28.9309 161.937 28.612 160.889 28.5639C157.963 28.5639 155.835 30.9762 155.835 34.7704C155.835 38.5646 158.186 41.0713 160.96 41.0713C161.979 41.0686 162.977 40.7805 163.839 40.24L164.627 42.3127C163.498 43.0428 162.188 43.448 160.842 43.4835C155.906 43.4835 152.791 39.666 152.791 34.7471C152.791 30.1918 155.882 26.1982 160.89 26.1982C162.274 26.2412 163.615 26.6893 164.745 27.4867L163.839 29.4892Z" fill="white"/>
</g>
<defs>
<clipPath id="clip0_469:383">
<rect width="164" height="48" fill="white" transform="translate(0.744629 0.0123291)"/>
</clipPath>
</defs>
</svg>
