<?xml version="1.0" encoding="utf-8"?>
<!-- Generator: Adobe Illustrator 24.1.2, SVG Export Plug-In . SVG Version: 6.00 Build 0)  -->
<svg version="1.1" id="Glyph" xmlns="http://www.w3.org/2000/svg" xmlns:xlink="http://www.w3.org/1999/xlink" x="0px" y="0px"
	 viewBox="0 0 200 200" style="enable-background:new 0 0 200 200;" xml:space="preserve">
<style type="text/css">
	.st0{fill:#1583E9;}
</style>
<g>
	<path class="st0" d="M152.6,146.4c1.6,0,2.9-1.3,2.9-2.9v-14c0-1.6-1.3-2.9-2.9-2.9H53.8c-1.6,0-2.9,1.3-2.9,2.9v14
		c0,1.6,1.3,2.9,2.9,2.9H152.6z M116.7,140.6h-10.6v-8.2h10.6V140.6z M122.4,132.4H133v8.2h-10.6V132.4z M100.3,140.6H89.7v-8.2
		h10.6V140.6z M84,140.6H73.4v-8.2H84V140.6z M149.7,140.6h-10.9v-8.2h10.9V140.6z M56.7,132.4h10.9v8.2H56.7V132.4z"/>
	<path class="st0" d="M195.4,178.3h-8.3V68.8h1.2c1.6,0,2.9-1.3,2.9-2.9s-1.3-2.9-2.9-2.9h-1.2V52.9h1.2c1.6,0,2.9-1.3,2.9-2.9
		s-1.3-2.9-2.9-2.9c-4.7,0-31.2,0-36.6,0c-1.6,0-2.9,1.3-2.9,2.9c0,1.6,1.3,2.9,2.9,2.9h1.2v10.2h-1.2c-1.6,0-2.9,1.3-2.9,2.9
		s1.3,2.9,2.9,2.9h1.2v12.5l-19.8-19.8c-1.8-1.8-4.2-2.8-6.8-2.8h-12.7v-23h1.7c1.6,0,2.9-1.3,2.9-2.9S117,30,115.4,30h-1.7V18.8
		h1.7c1.6,0,2.9-1.3,2.9-2.9s-1.3-2.9-2.9-2.9c-7.3,0-46.3,0-54.4,0c-1.6,0-2.9,1.3-2.9,2.9s1.3,2.9,2.9,2.9h1.7V30H61
		c-1.6,0-2.9,1.3-2.9,2.9s1.3,2.9,2.9,2.9h1.7v12.9c0,1.6,1.3,2.9,2.9,2.9c1.6,0,2.9-1.3,2.9-2.9V35.7h39.6v78H68.4V60.2
		c0-1.6-1.3-2.9-2.9-2.9c-1.6,0-2.9,1.3-2.9,2.9v53.6h-11v-13H53c1.6,0,2.9-1.3,2.9-2.9S54.6,95,53,95h-1.4v-1
		c0-1.6-1.3-2.9-2.9-2.9s-2.9,1.3-2.9,2.9v1h-1.4c-1.6,0-2.9,1.3-2.9,2.9s1.3,2.9,2.9,2.9h1.4v13h-6.2c-2.9,0-5.2,2.3-5.2,5.2v18.9
		h-5.7c-5.9,0-11.5,2.6-15.3,7.1c-1,1.2-0.9,3,0.4,4.1c1.2,1,3,0.9,4.1-0.4c2.7-3.2,6.7-5.1,10.9-5.1h5.7v7.7h-5.7
		c-3.6,0-6.5,2.9-6.5,6.5v20.5h-7.7v-20.5c0-1.6-1.3-2.9-2.9-2.9s-2.9,1.3-2.9,2.9v20.5H4.6c-1.6,0-2.9,1.3-2.9,2.9S3,184,4.6,184
		h190.8c1.6,0,2.9-1.3,2.9-2.9S197,178.3,195.4,178.3L195.4,178.3z M68.4,30V18.8h39.6V30L68.4,30L68.4,30z M158.7,52.9h22.6v10.2
		h-22.6V52.9z M126.4,64.5c1,0,2,0.4,2.7,1.1L153,89.5v10.9L125.6,73c-0.5-0.5-1.3-0.8-2-0.8h-9.9v-7.7L126.4,64.5L126.4,64.5z
		 M28,157.7c0-0.4,0.3-0.7,0.7-0.7h5.7v21.3H28V157.7z M40.2,119.5h87.3c1.6,0,2.9-1.3,2.9-2.9c0-1.6-1.3-2.9-2.9-2.9h-13.8V77.9
		h8.7l30.6,30.6v5.2H139c-1.6,0-2.9,1.3-2.9,2.9c0,1.6,1.3,2.9,2.9,2.9h27.2v58.8h-38.9v-20c0-1.6-1.3-2.9-2.9-2.9H82
		c-1.6,0-2.9,1.3-2.9,2.9v20H40.2C40.2,175.7,40.2,122.1,40.2,119.5L40.2,119.5z M84.8,178.3v-17.1h36.7v17.1H84.8z M172,178.3
		v-59.3c0-2.9-2.3-5.2-5.2-5.2h-8.1c0-9,0-35.6,0-44.9h22.6v109.4L172,178.3z"/>
</g>
</svg>
