<svg width="160" height="160" viewBox="0 0 160 160" fill="none"
                            xmlns="http://www.w3.org/2000/svg">
                            <g id="illustration">
                                <g clip-path="url(#clip0_10544_2077)">
                                    <path id="Vector"
                                        d="M120.328 41.7542C114.094 28.9957 102.539 19.593 89.3728 14.3414C73.7286 8.09964 56.6464 8.02391 40.467 12.4202C21.7811 17.4966 4.874 27.8455 -10.1421 39.84C-13.9184 42.8521 -17.5853 46.0091 -21.103 49.3101C-20.7297 44.8072 -21.4092 40.3521 -24.3211 36.8274C-29.3885 30.6931 -38.3176 31.0908 -45.508 31.8115C-52.5057 32.5144 -59.424 33.8771 -66.2708 35.6161L-72.2581 38.1545C-70.1117 37.5315 -67.9567 36.9287 -65.7941 36.3626C-56.8127 34.0295 -47.2142 31.9052 -37.8892 32.1767C-33.9977 32.2886 -29.9316 33.02 -26.7883 35.466C-22.8936 38.4942 -21.6526 43.4048 -21.8356 48.13C-21.8596 48.8098 -21.9195 49.4809 -21.9929 50.1577C-24.9974 53.0259 -27.8874 56.013 -30.6243 59.1344C-33.6544 62.6034 -36.4967 66.2319 -39.0797 70.0374C-41.29 73.2864 -43.7247 76.6863 -44.5871 80.5834C-45.144 83.1234 -45.3044 86.5794 -43.068 88.3975C-40.6092 90.4002 -37.4809 89.0898 -35.5769 87.0071C-32.4582 83.5962 -30.8773 78.5415 -29.1087 74.3638C-27.1579 69.766 -25.3122 65.1092 -23.6867 60.3863C-22.6385 57.343 -21.6342 53.8561 -21.2132 50.3533C-10.5175 40.0311 1.7719 31.05 14.6519 23.9152C30.4559 15.158 48.533 9.08017 66.7923 10.0998C81.976 10.9486 97.2012 16.6744 108.418 27.0176C111.446 29.8153 114.112 32.9498 116.372 36.3524C112.07 30.8901 106.835 25.4565 100.325 22.8912C69.5544 5.92331 28.6301 24.4141 13.0922 54.0483C4.35322 70.7236 5.67116 88.9624 14.6502 105.173C23.2508 120.699 38.9567 128.899 56.6497 128.413C66.5146 128.145 76.2137 125.332 85.1708 121.279C86.2319 120.798 87.2805 120.305 88.3272 119.79C91.8516 133.051 91.7197 147.209 88.073 160.482C85.9885 168.07 82.7776 175.363 78.4781 181.976C73.7785 189.214 67.5946 196.332 59.3924 199.634C55.0338 201.387 50.6271 201.533 46.0435 200.79C41.8909 200.119 37.8372 199.247 33.6008 199.568C25.3399 200.201 17.8721 204.347 11.3793 209.245C3.99455 214.815 -2.41065 221.525 -9.27915 227.689C-16.5648 234.23 -24.2504 240.318 -32.2902 245.911C-36.3519 248.741 -40.6208 252.122 -45.2448 253.947C-49.5945 255.663 -53.8726 254.432 -57.3686 251.569C-63.7741 246.321 -65.786 237.704 -71.7968 232.121C-83.3103 221.417 -101.277 228.756 -112.06 236.7C-126.199 247.118 -135.875 262.15 -149.257 273.372C-161.346 283.504 -177.983 291.865 -193.796 285.623C-209.019 279.617 -217.422 263.37 -221.942 248.609C-226.883 232.496 -227.611 215.347 -225.593 198.667C-223.551 181.722 -218.764 165.152 -212.346 149.349C-211.474 147.194 -210.566 145.047 -209.63 142.912C-205.293 140.73 -200.956 138.549 -196.664 136.299C-194.686 135.261 -188.651 130.757 -187.928 128.872C-185.497 122.612 -193.52 120.728 -198.013 120.01C-194.771 114.49 -191.255 109.126 -187.43 103.98C-179.053 92.704 -169.189 82.6865 -157.875 74.4459L-160.957 75.7525C-176.508 87.5993 -189.004 102.95 -198.928 119.872C-200.716 119.602 -202.51 119.358 -204.294 119.134C-212.099 116.99 -219.722 114.291 -227.166 111.07C-229.119 110.223 -234.583 111.671 -232.524 116.849L-220.421 143.111C-220.126 143.751 -219.673 144.213 -219.138 144.512C-218.418 145.777 -216.893 146.597 -215.391 145.833C-213.862 145.057 -212.326 144.278 -210.794 143.509C-213.404 149.574 -215.721 155.707 -217.798 161.84C-228.656 194.011 -232.879 231.842 -217.024 263.098C-210.119 276.703 -198.15 288.745 -181.863 288.551C-165.449 288.353 -150.982 277.141 -140.159 265.816C-127.322 252.385 -115.28 235.49 -96.8625 229.403C-89.1918 226.869 -79.8298 226.566 -73.2534 231.878C-66.4131 237.396 -64.5356 246.867 -57.6149 252.367C-55.1153 254.353 -52.0512 255.724 -48.7918 255.554C-44.1243 255.305 -39.934 251.966 -36.1954 249.488C-27.621 243.796 -19.4102 237.549 -11.6454 230.797C-4.26177 224.374 2.49513 217.228 10.1807 211.14C17.7274 205.158 26.6568 200.001 36.5932 200.261C41.3293 200.381 45.8833 201.942 50.6233 202.053C54.6088 202.141 58.5126 201.092 62.0472 199.266C69.6677 195.31 75.4309 188.37 79.8882 181.203C88.2581 167.738 92.2828 151.73 91.5849 135.955C91.3343 130.377 90.4702 124.844 89.0178 119.473C91.8294 118.058 94.5827 116.524 97.2794 114.894C100.224 113.112 103.938 111.314 106.206 108.598C109.659 111.208 111.758 114.703 112.259 119.154C112.42 120.552 114.42 120.756 114.941 119.491C123.083 99.689 133.398 79.7229 128.004 57.8951C126.563 52.0968 123.692 46.7052 120.328 41.7542ZM-24.8546 61.4474C-26.5094 66.0632 -28.313 70.6304 -30.2518 75.1434C-31.1956 77.3372 -32.1656 79.5262 -33.1838 81.6957C-34.2099 83.8846 -35.4124 86.2996 -37.4559 87.732C-39.5548 89.2038 -42.4894 88.8935 -43.6415 86.4404C-44.46 84.6988 -44.2495 82.513 -43.8447 80.6911C-42.8626 76.3207 -39.8561 72.3994 -37.3062 68.7992C-34.7748 65.2308 -32.0324 61.82 -29.1147 58.5582C-26.8834 56.0577 -24.5509 53.6258 -22.1403 51.2646C-22.6357 54.743 -23.6675 58.146 -24.8546 61.4474Z"
                                        fill="#f3f6fc"></path>
                                    <path id="Vector_2"
                                        d="M24.9861 87.4787C25.0142 87.3386 25.0422 87.1985 25.0703 87.0584C24.9019 85.4469 24.8177 83.8074 24.8598 82.1679C25.1124 74.1947 27.8351 66.3476 32.2279 59.7056C33.4208 57.8839 36.8031 53.6381 37.0137 53.7081C40.9714 49.5043 45.6589 46.0152 50.7815 43.3107C58.4724 39.247 66.9633 36.8789 75.5665 35.7719C84.2959 34.6369 93.3061 34.6929 101.965 36.3464C110.512 37.9859 118.863 41.3489 125.501 47.0521C131.059 51.8164 135.213 58.2342 137.374 65.2266C138.245 67.2304 138.932 69.3043 139.367 71.4903C140.925 79.2113 139.508 87.2405 136.196 94.3169C132.757 101.674 127.284 107.937 120.575 112.477C113.249 117.438 104.744 120.409 96.0709 121.922C87.7063 123.379 79.047 123.66 70.5982 122.749C63.7073 122.006 56.8725 120.437 50.4728 117.774C45.2519 118.223 40.0732 118.937 34.9787 120.198C30.4455 121.305 26.0246 122.847 21.8424 124.935C21.4775 125.117 20.9863 124.907 21.0003 124.444C21.4213 112.057 22.7546 99.6838 24.9861 87.4787ZM28.2421 70.2711C26.9088 74.1246 26.1229 78.1883 25.9966 82.266C26.3474 80.5284 28.0737 72.5552 31.063 66.3056C32.284 63.7412 33.3366 61.0928 34.4874 58.5005C31.8349 62.0877 29.7017 66.0533 28.2421 70.2711ZM114.737 41.5311C113.193 40.8165 111.607 40.1999 109.993 39.6534C116.07 43.0445 122.007 46.7718 127.157 51.4661C129.178 53.3018 131.059 55.3196 132.729 57.4916C128.561 50.3731 122.203 44.9782 114.737 41.5311ZM59.6233 119.666C67.1177 121.6 74.8788 122.286 82.6118 122.104C91.2711 121.894 99.9865 120.577 108.127 117.564C115.958 114.663 123.27 110.123 128.743 103.762C133.838 97.8622 137.417 90.5195 138.539 82.7845C138.764 81.2011 138.876 79.6176 138.862 78.0342C138.539 82.28 137.403 86.4558 135.424 90.3233C131.817 97.3577 125.852 102.963 119.13 107.012C111.481 111.623 102.836 114.089 94.0499 115.364C84.0293 116.821 73.8823 116.821 63.7775 117.088C60.1846 117.186 56.5918 117.312 53.013 117.564C55.1603 118.391 57.3777 119.091 59.6233 119.666ZM50.6412 116.653C59.3005 115.925 68.0159 115.953 76.6892 115.658C86.5695 115.322 96.52 114.523 106.021 111.623C113.544 109.325 120.701 105.513 126.47 100.146C132.083 94.9195 136.28 88.1373 137.501 80.5004C138.287 75.624 137.824 70.6355 136.42 65.9132C135.676 64.1196 134.75 62.368 133.669 60.7005C129.319 53.9884 122.765 49.0699 116.21 44.6419C108.197 39.233 105.811 38.5184 105.811 38.3642C100.492 36.977 94.9762 36.3184 89.5027 36.1923C80.9276 35.9821 72.2684 36.9349 64.0161 39.2751C55.848 41.6012 48.0167 45.3846 41.5328 50.9056C39.9749 52.2368 38.5154 53.6661 37.154 55.1935C35.4558 58.9909 33.7857 62.8024 32.1437 66.6278C30.4736 70.5094 29.5473 74.3909 28.0596 78.6087C28.0175 78.7488 26.7123 84.438 26.1931 87.2125C26.4176 89.2163 26.7965 91.1921 27.386 93.1399C29.5052 100.132 34.0664 106.144 39.8627 110.544C43.1608 113.052 46.8098 115.042 50.6412 116.653ZM47.9746 116.891C48.0869 116.877 48.2132 116.877 48.3255 116.863C41.7994 113.851 35.8207 109.535 31.5121 103.747C28.5649 99.7959 26.586 95.2698 25.5896 90.5055C24.2563 98.2825 23.2879 106.116 22.6844 113.977C22.4458 117.172 22.2634 120.367 22.1371 123.561C30.235 119.708 39.0767 117.816 47.9746 116.891Z"
                                        fill="#083dc8" stroke="#083dc8" stroke-width="0.6"></path>
                                </g>
                            </g>
                            <defs>
                                <clipPath id="clip0_10544_2077">
                                    <path d="M0 0H160V160H0V0Z" fill="white"></path>
                                </clipPath>
                            </defs>
                        </svg>