<svg width="188" height="95" viewBox="0 0 188 95" fill="none" xmlns="http://www.w3.org/2000/svg">
<g clip-path="url(#clip0_1048_7446)">
<path fill-rule="evenodd" clip-rule="evenodd" d="M37.2336 19.7201C36.7783 19.7201 36.3467 19.8206 35.9624 19.9566C36.7902 20.5124 37.2514 21.2455 37.4819 22.0851C37.4997 22.2033 37.5292 22.2802 37.5411 22.3925C37.5529 22.5049 37.5765 22.5877 37.5765 22.6882C37.6357 24.1249 37.204 24.3023 36.8907 25.1537C36.6685 25.668 36.5734 26.2283 36.6136 26.7871C36.6537 27.3459 36.8278 27.8869 37.1213 28.3642C37.1735 28.4909 37.2389 28.6118 37.3164 28.7248C36.6956 24.5979 40.1366 23.9771 40.7752 22.6941C40.8225 21.5116 39.8883 20.8198 39.1611 20.2936C38.5841 19.9298 37.9157 19.7371 37.2336 19.7378V19.7201ZM42.4189 20.6484C42.3597 21.0208 42.4011 20.9262 42.3834 21.1214L42.3479 21.5471L42.2297 21.9373C42.1936 22.0697 42.1502 22.2 42.0996 22.3275L41.9222 22.7C41.8749 22.7591 41.8394 22.8301 41.7921 22.8951L41.6916 23.0429L41.4551 23.3681C41.3546 23.4686 41.2778 23.581 41.1595 23.6637C41.0413 23.7465 40.9644 23.8588 40.8521 23.9416C40.5091 24.2018 40.1189 24.3969 39.7582 24.6511C39.64 24.7339 39.5217 24.7989 39.4331 24.8876C39.3444 24.9763 39.2202 25.0532 39.1256 25.1478C39.031 25.2424 38.9305 25.3429 38.83 25.4552C38.7295 25.5676 38.6526 25.6681 38.5935 25.7804L38.357 26.1233L38.1796 26.4958L38.0495 26.8683L37.9313 27.2822C37.9135 27.3413 37.9135 27.43 37.8958 27.495C37.8781 27.5601 37.8781 27.6251 37.8603 27.6901L37.8426 28.104C37.8403 28.2029 37.8462 28.3018 37.8603 28.3996C37.8603 28.5297 37.8781 28.6598 37.9076 28.8135C37.9372 28.9672 37.9549 29.0737 37.9904 29.2037L38.1205 29.594C38.156 29.6767 38.2033 29.7595 38.2387 29.8305L34.4902 28.376L32.5982 27.8853L31.5694 27.6488C30.5879 27.4539 29.5973 27.3079 28.6014 27.2112C27.604 27.1013 26.6013 27.046 25.5978 27.0457L23.4693 27.1285C22.4688 27.2004 21.4724 27.3207 20.4835 27.4891L19.7504 27.6192L18.2841 27.9444L17.5509 28.1395L16.8414 28.4469L16.3093 28.6834L15.7772 28.9436C15.7299 28.9613 15.6944 28.9791 15.6589 28.9909L15.1504 29.251C15.0322 29.2983 14.9139 29.3693 14.8252 29.4166C14.7779 29.4521 14.707 29.4757 14.6774 29.4994L14.2517 29.7359C14.1039 29.8186 13.9738 29.9014 13.8615 29.9724L13.5363 30.2089L13.1816 30.469L12.9037 30.7055C12.7263 30.8356 12.6435 30.9184 12.5608 30.9834L12.206 31.3263L11.8808 31.6338L11.6029 31.9294C11.5675 31.9649 11.5202 31.9885 11.4847 32.0299C11.4019 32.1304 11.3073 32.225 11.2068 32.3255L10.7693 32.7985L9.88239 33.644C9.59407 33.9012 9.28997 34.1401 8.97187 34.3594L7.9904 34.9803C7.65715 35.1634 7.31366 35.3272 6.96162 35.471C6.6187 35.6188 6.25212 35.7489 5.89737 35.8612C5.21152 36.009 4.51385 36.2869 3.90486 36.3342C3.77479 36.3342 3.62697 36.3697 3.49099 36.3815L3.07711 36.482L2.68688 36.6298C2.55681 36.6771 2.42673 36.7481 2.29666 36.8072C2.16658 36.8663 2.06016 36.955 1.94191 37.0437C1.82623 37.1275 1.71748 37.2204 1.61672 37.3216C1.49847 37.4044 1.38022 37.5167 1.29154 37.6172L1.01365 37.9424C0.930873 38.0725 0.836273 38.1789 0.777148 38.3149C0.718023 38.4509 0.611598 38.5514 0.540649 38.6874L0.363274 39.1131L0.215461 39.5388L0.132686 39.929C0.0853861 40.1241 0.0853862 40.3192 0.0735612 40.4198C0.0617362 40.5203 0.0380859 40.6326 0.0380859 40.7449C0.0380859 40.8041 0.0380861 40.8927 0.0558236 40.9578C0.073561 41.076 0.0912985 41.1706 0.114948 41.2652L0.233198 41.5609C0.280498 41.6791 0.351448 41.7737 0.410573 41.8683L0.623423 42.1639L0.901312 42.4241C1.00182 42.5246 1.09642 42.6015 1.20876 42.6842C1.59899 43.0272 1.6995 43.1395 2.20206 43.3937C2.28484 43.441 2.36761 43.4765 2.46221 43.5238C2.54499 43.7603 2.58046 43.8786 2.61002 44.0145C2.63959 44.1505 2.6928 44.2924 2.7401 44.4048L2.87017 44.7004L3.10667 45.1379L3.34317 45.4808L3.62106 45.7883C3.72157 45.8888 3.81617 45.9657 3.92851 46.0662L4.2537 46.3027C4.368 46.3832 4.48862 46.4544 4.61436 46.5155C4.73261 46.5747 4.85086 46.6456 4.98685 46.6929C5.08736 46.7402 5.1997 46.7757 5.31203 46.8112C5.42437 46.8466 5.52488 46.8703 5.58992 46.8939C5.54262 47.7808 5.5308 48.6677 5.64905 48.9042C5.79686 49.2294 6.51227 48.2361 7.2336 47.095C7.13308 48.2775 7.06805 49.5427 7.2336 49.933C7.39915 50.3232 8.39245 49.0697 9.24385 47.6626C20.8087 44.9901 31.3566 52.9838 32.48 64.2649C32.2671 62.5029 30.0972 61.5274 29.1098 61.7698C28.6191 62.9759 27.7914 64.525 26.4492 65.4947C26.5653 64.4048 26.5094 63.3035 26.2837 62.231C25.9289 63.7327 25.2194 65.1281 24.2616 66.3401C23.5146 66.391 22.7666 66.2567 22.0839 65.9494C21.4011 65.6421 20.8047 65.1711 20.3475 64.5782C20.2884 64.5309 20.2647 64.4304 20.2174 64.3654L20.046 63.9633C19.9987 63.8451 19.9632 63.7268 19.9455 63.6204C19.9277 63.514 19.9277 63.3839 19.9277 63.2656V63.0291C19.9455 62.9109 19.975 62.7926 20.0105 62.6862L20.1288 62.3433C20.1879 62.225 20.247 62.1068 20.3239 62.0004C20.6018 61.2199 20.6018 60.5814 20.0874 60.2089C19.9869 60.1498 19.8923 60.0906 19.7799 60.0433C19.7208 60.0256 19.6321 59.996 19.5671 59.9842L19.437 59.9369L19.0941 59.8541C18.9825 59.8224 18.8671 59.8065 18.7511 59.8068C18.6319 59.7868 18.5114 59.775 18.3905 59.7714C18.3077 59.7714 18.2249 59.7891 18.154 59.7891C18.0239 59.7891 17.9175 59.8068 17.7992 59.8364L17.4563 59.8955L17.1134 60.0138L16.7882 60.1616L16.4807 60.3271C12.679 62.8104 14.9435 68.6046 17.545 70.2956C16.5635 70.473 15.5702 70.6858 15.2982 70.8987C15.9664 71.3539 16.6995 71.7146 17.4681 72.0812L20.111 72.8616C21.4603 73.1509 22.8429 73.2544 24.2202 73.1691C31.4453 72.6606 37.3696 67.1679 38.4457 59.9251L38.5462 60.3508L38.694 61.2613C38.7295 61.4269 38.7413 61.5688 38.7531 61.6988L38.7886 62.1896L38.8241 62.7217V62.9818C38.8241 63.0646 38.8418 63.1592 38.8418 63.242C38.8418 63.3248 38.8241 63.4371 38.8241 63.5376V63.7741C38.8241 63.8924 38.8063 63.987 38.8063 64.0993C38.8063 64.1584 38.8063 64.2294 38.7886 64.3122L38.7709 64.6669C38.7531 64.7142 38.7531 64.7674 38.7531 64.8147L38.7058 65.1872C38.7058 65.2345 38.7058 65.2877 38.6881 65.335L38.629 65.808V65.8376L38.5285 66.2928L38.4279 66.7836L38.1678 67.7887L38.0022 68.309L37.6475 69.255L37.4524 69.728L37.2159 70.1833C37.1981 70.2306 37.1804 70.266 37.1686 70.3015C36.0814 72.4791 34.5001 74.3722 32.5509 75.8297C32.4208 75.9125 32.2908 76.0071 32.1607 76.1076C32.1252 76.1431 32.0779 76.1549 32.0424 76.1904L31.6877 76.4269L31.735 76.5274H31.7527L32.4386 76.4269H32.4563L33.7275 76.1904C33.8457 76.1726 33.964 76.1431 34.0823 76.1076L34.3188 76.0603L34.6617 76.0012L34.9573 75.9184C36.5735 75.5242 38.1553 75.0002 39.6873 74.3516C37.0668 77.9225 33.5816 80.7688 29.5592 82.6232C31.4425 82.4984 33.3073 82.1754 35.1228 81.6594C41.6975 79.7201 47.2257 75.2976 50.5367 69.3437C49.8686 73.11 48.3668 76.6988 46.1497 79.8325C47.7342 78.7859 49.1828 77.5857 50.5072 76.214C54.1611 72.3945 56.5616 67.5522 57.3657 62.3492C57.9214 64.9271 58.0752 67.5877 57.8387 70.2128C69.6164 53.7879 58.8201 36.7599 54.2912 32.2723C54.232 32.3906 54.2084 32.5798 54.1966 32.7808L54.031 33.8746L53.7531 34.9507L53.3629 35.9972L52.8722 36.9905L52.2809 37.9188L51.6128 38.8056C51.3763 39.1013 51.1043 39.3614 50.8442 39.6216L50.3712 40.0354L49.9987 40.3606C49.7085 40.5918 49.4044 40.8051 49.0882 40.9992L48.1244 41.5549L47.0957 42.0102C46.7486 42.1416 46.3954 42.256 46.0373 42.3531L44.9435 42.5896C44.571 42.6488 44.1926 42.6901 43.832 42.7197L43.0515 42.7552C42.679 42.7552 42.3006 42.7197 41.94 42.6961C41.5662 42.6684 41.1948 42.6151 40.8284 42.5364C40.4559 42.4773 40.0953 42.3709 39.7346 42.2585H39.7169L40.7929 42.1285L41.8867 41.892L42.951 41.549C43.3057 41.419 43.6605 41.2534 43.9798 41.0938C44.3155 40.9306 44.6431 40.751 44.9612 40.5557L45.8718 39.9645C46.1646 39.7376 46.443 39.4928 46.7054 39.2313C46.978 38.9816 47.2347 38.715 47.4741 38.4331L48.1599 37.5463C48.1954 37.499 48.219 37.428 48.2604 37.3807L48.7334 36.6003L49.2242 35.607L49.6144 34.5605C49.7326 34.2175 49.8095 33.851 49.8923 33.4962L50.0578 32.4024L50.1169 31.2909L50.0874 30.5104L49.9573 29.4166L49.7208 28.3228L49.3661 27.2763C49.236 26.9333 49.0704 26.5904 48.9108 26.2711L48.355 25.3074L47.7638 24.4087L47.0129 23.581L46.5872 23.1671L44.3227 21.5707C44.2044 21.5116 44.1098 21.4525 43.9975 21.4052C43.4654 21.0622 42.951 20.8849 42.4484 20.7193L42.4189 20.6484Z" fill="black"/>
<path d="M75.0684 62.1364C75.4469 61.9564 75.846 61.8234 76.2568 61.7402C77.1732 61.5924 77.6935 61.4683 77.8413 61.3678C78.0896 61.2199 78.2552 61.013 78.338 60.8238C78.4385 60.4691 78.4858 59.7596 78.4858 58.6185V56.4604L78.5094 54.6985L78.4326 52.0674V50.5124C78.4326 49.4718 78.3557 48.6027 78.1842 47.9582C78.1369 47.7099 77.9123 47.4616 77.5634 47.2132C77.0904 46.8585 76.3809 46.5451 75.2103 46.2199L75.1866 45.0374L75.7542 44.9192C75.9316 44.8955 76.5997 44.7182 77.7645 44.4225L79.5264 43.7308L79.9403 43.5061C80.1518 43.3261 80.375 43.1602 80.6084 43.0095C81.2765 42.483 81.8763 41.8752 82.3939 41.2002L83.7065 41.0997L83.6592 43.9022C83.6356 44.1742 83.6356 44.3989 83.6356 44.5704L83.6592 45.7115C85.0487 44.529 86.2903 43.7012 87.4314 43.2282C88.7548 42.6436 90.1826 42.3319 91.6293 42.3118C93.0862 42.2824 94.5189 42.6879 95.7444 43.4765C96.9032 44.2452 97.6955 45.132 98.1094 46.1372C98.5232 47.1423 98.6533 49.2117 98.6533 52.2625L98.5528 60.3981C98.5472 60.7227 98.616 61.0443 98.7538 61.3382C99.1929 61.5392 99.6625 61.6651 100.143 61.7107L101.361 61.9354C101.516 62.1699 101.595 62.4467 101.586 62.7276L101.562 63.5436L96.6785 63.1888L95.2418 63.2361H94.1007L90.8015 63.4844H89.956C89.9324 63.2598 89.9324 63.1119 89.9324 62.9878L89.9797 62.0181C90.2044 61.9708 90.7956 61.8999 91.718 61.7698C91.9663 61.7462 92.2383 61.6693 92.5634 61.5924C92.8886 61.4742 93.0837 61.3205 93.131 61.1963C93.2493 60.9007 93.3321 60.3804 93.3321 59.5822L93.2848 56.3599L93.3084 53.4805C93.3084 49.9566 93.1074 47.7749 92.7172 46.9354C92.1259 45.6701 91.1326 45.0434 89.8673 45.0434C88.8659 45.0668 87.8822 45.3133 86.988 45.7647C85.8508 46.3211 84.8059 47.0489 83.8898 47.9227L83.8425 48.3366L83.8898 49.8975L83.8662 51.553L83.9667 55.5439L83.9194 56.1648C83.9194 58.8668 84.0199 60.404 84.2446 60.7529C84.4692 61.1017 85.2852 61.4742 86.7278 61.894L86.8047 62.5148C86.8047 62.7158 86.7278 63.0114 86.6273 63.4312L85.3147 63.4549C84.7663 63.4381 84.2195 63.3888 83.677 63.3071L80.9454 63.2834L75.1925 63.4608C75.1237 63.2961 75.0895 63.119 75.092 62.9405L75.1157 62.1482L75.0684 62.1364ZM104.359 50.2759C104.802 48.8569 105.175 47.9227 105.524 47.4734C106.44 46.1135 107.433 45.1084 108.48 44.2806C109.526 43.4529 110.49 43.0154 111.33 42.767C112.197 42.4873 113.098 42.3282 114.008 42.294C115.276 42.2596 116.543 42.3848 117.78 42.6665C118.647 42.8495 119.472 43.1945 120.21 43.6835C121.026 44.2475 121.774 44.9042 122.439 45.6405C123.023 46.3429 123.485 47.1384 123.805 47.9937C124.201 49.0309 124.411 50.1296 124.426 51.2396L121.647 51.1924C119.968 51.1538 118.291 51.0789 116.615 50.9677L114.629 50.8672L111.951 50.8908H109.792L109.745 51.4821C109.745 52.3689 109.863 53.2913 110.07 54.2846C110.277 55.2779 110.614 56.0938 111.04 56.8388C111.461 57.5589 112.008 58.1977 112.654 58.7249C113.245 59.2688 113.967 59.6413 114.641 59.8896L116.077 60.3626L118.655 60.2444C119.366 60.0992 120.062 59.8915 120.737 59.6236C121.514 59.252 122.253 58.8044 122.942 58.2873L124.455 59.4698C122.995 61.0544 121.452 62.2487 119.891 63.0173C118.33 63.786 116.568 64.0816 114.57 64.0816C113.257 64.0816 112.187 63.9811 111.347 63.7268C110.276 63.4472 109.261 62.9874 108.344 62.367C107.446 61.7283 106.649 60.9591 105.979 60.0847C105.269 59.1979 104.838 58.2223 104.519 57.2586C104.122 55.9933 103.898 54.9763 103.898 54.2314C103.885 52.9161 104.004 51.6029 104.252 50.3114L104.359 50.2759ZM118.844 49.2117C118.821 48.2657 118.643 47.4024 118.301 46.5333C117.958 45.6642 117.414 45.0434 116.663 44.5822C116.015 44.1302 115.247 43.8793 114.457 43.8609C113.275 43.8609 112.347 44.3575 111.43 45.3212C110.514 46.285 110.041 47.6862 109.917 49.3122L115.593 49.3358L117.13 49.259L118.17 49.1821L118.839 49.2058L118.844 49.2117ZM128.304 56.4367C128.664 56.3551 129.03 56.3056 129.398 56.2889L129.919 56.3126L130.143 56.5609L131.929 59.4403C132.496 60.1084 133.07 60.6583 133.703 61.078C134.075 61.3264 134.672 61.622 135.488 61.894C136.054 62.0945 136.65 62.1946 137.25 62.1896C138.237 62.2149 139.196 61.8592 139.928 61.1963C140.673 60.5045 141.111 59.7773 141.111 58.9909C141.111 58.4706 140.963 58.0213 140.697 57.6547C140.431 57.2881 139.852 56.9097 139.012 56.4722C138.598 56.2948 137.552 55.9992 135.861 55.5853L132.975 54.7694C132.212 54.4847 131.507 54.064 130.894 53.5278C130.312 53.0261 129.839 52.4103 129.505 51.7186C129.091 50.7726 128.913 49.9566 128.913 49.3536C128.913 48.0883 129.115 47.0713 129.457 46.2554C129.834 45.4494 130.365 44.7245 131.018 44.121C131.491 43.648 132.201 43.2341 133.176 42.8557C134.173 42.4753 135.231 42.2828 136.298 42.2881C137.695 42.2694 139.09 42.3783 140.467 42.6133C141.517 42.7906 142.536 43.1172 143.494 43.583C143.612 43.9555 143.742 44.8482 143.937 46.214L144.209 48.6677C144.209 48.786 144.185 48.916 144.132 49.0402C143.778 49.1548 143.41 49.2223 143.038 49.2412C142.891 49.2412 142.642 49.2176 142.317 49.1939C142.105 48.8558 141.908 48.5086 141.726 48.1533C140.934 46.6634 140.112 45.6228 139.272 45.0315C138.433 44.4403 137.487 44.1151 136.316 44.1151C135.145 44.1151 134.205 44.4698 133.437 45.1084C133.155 45.3545 132.933 45.661 132.787 46.005C132.64 46.349 132.573 46.7216 132.591 47.095C132.591 47.6389 132.887 48.1888 133.478 48.7505C134.069 49.3122 135.062 49.7674 136.505 50.0631C138.693 50.5361 140.301 51.0327 141.318 51.4998C142.808 52.1916 143.872 53.0371 144.469 53.9831C145.066 54.9291 145.386 56.0169 145.386 57.2586C145.386 59.192 144.641 60.8061 143.18 62.095C141.72 63.3839 139.633 64.0047 136.83 64.0047C135.877 63.9596 134.927 63.8768 133.98 63.7564C133.289 63.6795 132.467 63.5081 131.527 63.2598C130.906 63.0461 130.294 62.8054 129.694 62.5384C129.539 62.4487 129.404 62.328 129.298 62.1837C129.25 62.0359 129.12 61.3382 128.973 60.1025L128.559 56.4545L128.304 56.4367ZM148.738 44.529C150.689 43.713 152.108 42.8912 152.977 42.164C153.846 41.4367 154.787 40.0532 155.78 38.2617H157.199C157.348 38.7017 157.424 39.163 157.424 39.6275L157.4 41.6614L157.323 43.1218L157.347 43.6894L157.914 43.713L160.244 43.6125L162.106 43.5652C162.205 43.9543 162.262 44.3526 162.278 44.7536C162.278 45.1498 162.201 45.5991 162.077 46.0899C161.666 46.1511 161.251 46.1847 160.835 46.1904C160.717 46.1904 160.439 46.1904 160.043 46.1431H158.754L158.305 46.1194L157.122 46.1667L157.075 55.6267L157.175 59.0737C157.281 59.5481 157.484 59.9951 157.772 60.3863C158.169 60.5693 158.601 60.6622 159.038 60.6583C159.481 60.6583 159.806 60.611 160.031 60.54C160.256 60.4691 160.622 60.2148 161.125 59.8187C161.225 59.7182 161.397 59.6177 161.598 59.4639C161.969 59.7322 162.303 60.0483 162.591 60.404L162.692 60.6996C162.081 61.6344 161.224 62.3815 160.214 62.8577C159.174 63.378 158.056 63.6263 156.868 63.6263C155.307 63.6263 154.065 63.1297 153.096 62.1659C152.126 61.2022 151.659 59.659 151.659 57.6015L151.759 53.2381V46.1372L150.991 46.1135L149.182 46.1372L148.856 46.0603C148.765 45.9415 148.713 45.7966 148.709 45.6464L148.756 44.4639L148.738 44.529Z" fill="black"/>
</g>
<defs>
<clipPath id="clip0_1048_7446">
<rect width="187.722" height="93.8609" fill="white" transform="translate(0.0380859 0.856079)"/>
</clipPath>
</defs>
</svg>
