<svg xmlns="http://www.w3.org/2000/svg" width="195" height="56" fill="#000" fill-rule="evenodd" xmlns:v="https://vecta.io/nano"><path d="M177.349 20.509c.406-.23.865-.327 1.337-.327l.005.008c.473 0 .935.098 1.338.327l12.855 7.424c.832.481 1.338 1.385 1.338 2.347v14.821c0 .962-.506 1.863-1.338 2.347l-12.855 7.397c-.411.241-.862.355-1.338.355-.469 0-.927-.117-1.337-.355l-4.313-2.542c-.64-.359-.319-.473-.109-.546.855-.297 1.026-.357 1.938-.873.095-.053.229-.058.327 0l3.303 1.965c.116.066.268.066.382 0l12.855-7.397c.12-.068.191-.213.191-.355V30.284c0-.145-.096-.281-.218-.355l-12.829-7.397c-.118-.069-.261-.069-.382 0l-12.828 7.397c-.124.071-.218.214-.218.355v14.821c0 .138.095.26.218.327l3.49 2.047c1.908.954 3.084-.181 3.084-1.31V31.54c0-.203.176-.355.382-.355h1.611c.202 0 .382.148.382.355v14.622c0 2.547-1.379 4.012-3.794 4.012h-.034c-.727 0-1.335 0-2.941-.791l-3.357-1.935c-.832-.481-1.338-1.385-1.338-2.347V30.28a2.71 2.71 0 0 1 1.338-2.347l12.855-7.424zm-1.064 14.412c0-2.59 2.18-4.148 5.841-4.148l.001-.002c4.114 0 6.156 1.441 6.414 4.504.01.106-.04.195-.109.273s-.171.137-.274.137h-1.669c-.172 0-.319-.137-.354-.303-.4-1.778-1.375-2.347-4.013-2.347-2.952 0-3.275 1.031-3.275 1.802 0 .934.384 1.188 4.367 1.72 3.946.522 5.841 1.271 5.841 4.04 0 2.801-2.346 4.394-6.414 4.394-5.62 0-6.796-2.558-6.796-4.722a.39.39 0 0 1 .382-.382h1.669c.185 0 .325.146.354.327.25 1.693.997 2.542 4.395 2.542 2.704 0 3.848-.612 3.848-2.047 0-.827-.328-1.444-4.531-1.856-3.513-.348-5.677-1.123-5.677-3.93zM102.701.862a.83.83 0 0 1 .41-.109h0a.8.8 0 0 1 .409.082l8.106 4.531c.521.291.846.85.846 1.446v39.193a1.63 1.63 0 0 1-.819 1.419l-13.619 7.861a1.63 1.63 0 0 1-1.638 0l-13.619-7.861c-.507-.292-.82-.834-.819-1.419v-15.72c0-.588.31-1.153.819-1.446l13.619-7.86c.507-.293 1.131-.293 1.638 0l3.412 1.965a.57.57 0 0 0 .573 0c.177-.103.273-.286.273-.491V1.572a.83.83 0 0 1 .409-.71zm-87.94 19.706c.233-.136.477-.181.737-.191h.001.163c.262.011.507.056.737.191l13.619 7.86c.509.291.822.833.819 1.419l-.027 21.098a.82.82 0 0 1-.41.709c-.252.152-.564.152-.819 0l-8.079-4.64c-.505-.3-.846-.832-.846-1.419v-9.853a1.63 1.63 0 0 0-.819-1.419L16.4 32.332a1.61 1.61 0 0 0-.819-.218 1.61 1.61 0 0 0-.819.218l-3.439 1.992c-.51.292-.819.831-.819 1.419v9.853c0 .586-.334 1.115-.846 1.419l-8.079 4.64c-.252.152-.566.152-.819 0-.258-.143-.41-.416-.41-.709L.323 29.848a1.63 1.63 0 0 1 .819-1.419l13.619-7.86zm123.122 0c-.288-.001-.57.075-.819.218l-13.62 7.861c-.508.294-.819.831-.819 1.419v15.721c0 .591.333 1.127.846 1.419l13.51 7.701c.499.285 1.108.306 1.61.027l8.189-4.558c.259-.144.435-.413.436-.709s-.153-.562-.41-.709l-13.702-7.861c-.256-.147-.436-.443-.436-.737v-4.916c0-.294.182-.563.436-.709l4.258-2.457a.82.82 0 0 1 .819 0l4.26 2.457c.254.146.41.417.409.709v3.876c0 .293.156.563.41.709s.564.148.819 0l8.16-4.748a1.64 1.64 0 0 0 .82-1.419v-3.793a1.64 1.64 0 0 0-.819-1.419l-13.538-7.861a1.62 1.62 0 0 0-.819-.218v-.001zM97.379 32.359a.46.46 0 0 0-.219-.054h0c-.071 0-.127.017-.191.054l-4.667 2.702c-.127.074-.219.208-.219.355v5.405c0 .146.091.281.219.355l4.667 2.702c.127.072.283.072.41 0l4.668-2.702a.42.42 0 0 0 .218-.355v-5.404c0-.146-.092-.281-.218-.355l-4.668-2.702zM55.592 21.102c.249-.144.532-.219.819-.219h-.002a1.62 1.62 0 0 1 .819.218l13.62 7.833c.51.293.819.858.819 1.446v15.721c.001.586-.312 1.127-.819 1.419l-13.62 7.861a1.63 1.63 0 0 1-1.638 0L41.971 47.52a1.63 1.63 0 0 1-.819-1.419V30.382c0-.587.309-1.153.819-1.446l13.619-7.833zm82.1 13.837c.049-.027.109-.027.164-.027h-.001.011c.048 0 .08 0 .126.027l2.62 1.529c.097.057.164.16.164.273v3.002c0 .113-.067.217-.164.273l-2.62 1.501c-.092.057-.208.057-.3 0l-2.62-1.501a.32.32 0 0 1-.164-.273V36.74c.002-.114.064-.218.164-.273l2.62-1.529z"/></svg>