<svg width="631" height="214" viewBox="0 0 631 214" fill="none" xmlns="http://www.w3.org/2000/svg">
<circle cx="120.111" cy="106.8" r="21.3284" fill="black"/>
<path fill-rule="evenodd" clip-rule="evenodd" d="M120.113 63.4346C148.749 63.4346 175.351 67.5436 195.409 74.4489C219.576 82.769 234.435 95.3802 234.435 106.8C234.435 118.7 218.688 132.097 192.736 140.696C173.115 147.196 147.296 150.59 120.113 150.59C92.2425 150.59 65.851 147.405 46.0094 140.624C20.9061 132.044 5.78613 118.473 5.78613 106.8C5.78613 95.4729 19.9733 82.9591 43.8007 74.6517C63.9336 67.6325 91.1928 63.4346 120.109 63.4346H120.113Z" stroke="black" stroke-width="10.2035"/>
<path fill-rule="evenodd" clip-rule="evenodd" d="M82.3625 85.2422C96.6687 60.4357 113.517 39.4436 129.52 25.5174C148.8 8.73855 167.148 2.16747 177.04 7.87168C187.349 13.8165 191.088 34.1518 185.572 60.9284C181.405 81.1731 171.442 105.234 157.862 128.782C143.939 152.925 127.996 174.196 112.211 187.993C92.2378 205.453 72.9276 211.772 62.8155 205.94C53.0031 200.286 49.2507 181.741 53.9579 156.949C57.9352 136.002 67.9164 110.291 82.3578 85.2418L82.3625 85.2422Z" stroke="black" stroke-width="10.2035"/>
<path fill-rule="evenodd" clip-rule="evenodd" d="M82.3971 128.845C68.0505 104.067 58.2827 78.981 54.2055 58.1624C49.2976 33.0787 52.7677 13.9002 62.6507 8.17944C72.9494 2.21717 92.4344 9.13347 112.878 27.2856C128.334 41.0094 144.206 61.6533 157.826 85.1792C171.789 109.299 182.255 133.735 186.326 154.301C191.477 180.325 187.308 200.21 177.205 206.058C167.402 211.733 149.464 205.725 130.337 189.265C114.176 175.358 96.8853 153.87 82.3971 128.845Z" stroke="black" stroke-width="10.2035"/>
<path fill-rule="evenodd" clip-rule="evenodd" d="M356.86 161.292L330.718 121.796C343.93 120.63 355.835 111.057 355.835 93.5678C355.835 75.7715 343.206 64.3818 325.489 64.3818H286.583V161.218H298.635V122.741H317.947L342.629 161.218L356.86 161.292ZM324.048 112.217H298.643V75.1946H324.048C335.524 75.1946 343.361 82.7427 343.361 93.6353C343.361 104.528 335.518 112.229 324.048 112.229V112.217ZM401.724 163.029C413.2 163.029 422.632 159.255 429.603 152.29L424.375 145.171C418.852 150.835 410.727 154.026 402.743 154.026C387.647 154.026 378.35 142.993 377.478 129.786H434.243V127.025C434.243 105.976 421.754 89.4195 400.552 89.4195C380.516 89.4195 366.003 105.829 366.003 126.154C366.003 148.08 380.958 162.973 401.718 162.973L401.724 163.029ZM423.51 121.79H377.485C378.068 111.051 385.463 98.4097 400.424 98.4097C416.398 98.4097 423.363 111.333 423.51 121.79ZM506.565 161.286V113.082C506.565 96.0961 494.231 89.4132 479.417 89.4132C467.941 89.4132 458.945 93.1873 451.397 101.03L456.478 108.578C462.719 101.901 469.549 98.8514 477.968 98.8514C488.131 98.8514 495.685 104.221 495.685 113.659V126.288C490.021 119.753 482.037 116.703 472.452 116.703C460.546 116.703 447.905 124.11 447.905 139.789C447.905 155.033 460.534 163.022 472.452 163.022C481.89 163.022 489.88 159.684 495.685 153.296V161.274L506.565 161.286ZM476.372 155.186C466.21 155.186 459.092 148.804 459.092 139.943C459.092 130.94 466.21 124.552 476.372 124.552C484.068 124.552 491.469 127.454 495.684 133.266V146.478C491.475 152.283 484.068 155.192 476.372 155.192V155.186ZM559.216 163.029C571.992 163.029 579.541 157.8 584.916 150.835L577.657 144.158C573.011 150.399 567.059 153.302 559.86 153.302C544.905 153.302 535.62 141.685 535.62 126.153C535.62 110.622 544.911 99.1521 559.86 99.1521C567.12 99.1521 573.073 101.914 577.657 108.296L584.916 101.619C579.547 94.6478 571.992 89.4255 559.216 89.4255C538.308 89.4255 524.225 105.399 524.225 126.16C524.225 147.067 538.308 162.98 559.216 162.98V163.029ZM617.881 163.029C624.264 163.029 628.191 161.139 630.952 158.531L627.761 150.399C626.307 151.995 623.466 153.302 620.354 153.302C615.568 153.302 613.236 149.528 613.236 144.3V100.742H627.473V91.1623H613.236V71.9975H602.343V91.1623H590.727V100.748H602.343V146.632C602.343 157.088 607.572 163.041 617.881 163.041V163.029Z" fill="black"/>
</svg>
