<svg xmlns="http://www.w3.org/2000/svg" width="315" height="52" fill="#0b0b0c" xmlns:v="https://vecta.io/nano"><path d="M34.04 25.938c0 2.813-2.28 5.093-5.093 5.093s-5.093-2.28-5.093-5.093 2.28-5.093 5.093-5.093 5.093 2.28 5.093 5.093z"/><g fill-rule="evenodd"><path d="M28.948 16.725c-6.809 0-13.186.991-17.846 2.615-2.755.96-4.886 2.143-6.306 3.357-1.445 1.237-2.006 2.372-2.006 3.241 0 .905.609 2.124 2.156 3.448 1.514 1.297 3.777 2.557 6.677 3.548h0c4.573 1.563 10.737 2.318 17.325 2.318 6.412 0 12.448-.802 16.983-2.305 3.008-.997 5.36-2.251 6.936-3.549 1.61-1.326 2.239-2.545 2.239-3.461 0-.865-.582-2.009-2.085-3.264-1.471-1.228-3.666-2.419-6.464-3.382l.371-1.077-.371 1.077c-4.645-1.599-10.867-2.568-17.608-2.568zm-18.597.459c4.956-1.728 11.597-2.742 18.597-2.742 6.934 0 13.417.993 18.352 2.692 2.973 1.024 5.438 2.331 7.183 3.788 1.714 1.43 2.906 3.155 2.906 5.017 0 1.925-1.252 3.727-3.071 5.224-1.853 1.526-4.48 2.897-7.669 3.954-4.836 1.602-11.131 2.42-17.701 2.42-6.722 0-13.162-.766-18.063-2.441-3.094-1.058-5.634-2.442-7.424-3.975-1.757-1.505-2.954-3.3-2.954-5.183 0-1.835 1.134-3.547 2.805-4.976 1.697-1.451 4.104-2.755 7.039-3.778h0z"/><path d="M38.103 3.481c-1.799.661-3.927 1.968-6.159 3.91-3.705 3.225-7.653 8.131-11.021 13.971-3.402 5.899-5.729 11.918-6.65 16.766-.544 2.866-.585 5.303-.242 7.14.349 1.87 1.052 2.922 1.806 3.357.784.452 2.144.533 4.064-.145 1.88-.664 4.102-1.995 6.409-4.011l.751.859-.751-.859c3.639-3.181 7.372-8.142 10.663-13.85 3.203-5.555 5.524-11.184 6.488-15.863.639-3.103.727-5.768.391-7.782-.344-2.057-1.086-3.211-1.88-3.669l.57-.988-.57.988c-.749-.432-2.032-.499-3.869.176zm-.788-2.143c2.095-.77 4.185-.941 5.797-.011 1.668.962 2.603 2.946 2.991 5.27.396 2.368.272 5.328-.406 8.619-1.028 4.99-3.464 10.851-6.746 16.543-3.358 5.823-7.239 11.02-11.139 14.428-2.462 2.152-4.93 3.661-7.152 4.445-2.182.77-4.335.91-5.965-.03h0c-1.59-.917-2.506-2.754-2.909-4.915-.41-2.195-.337-4.931.243-7.985.979-5.156 3.418-11.416 6.915-17.48l.989.57-.989-.57c3.464-6.007 7.563-11.126 11.5-14.553h0c2.372-2.064 4.737-3.546 6.87-4.33z"/><path d="M19.916 3.581c-1.954-.729-3.324-.663-4.117-.203h0c-.749.433-1.447 1.511-1.78 3.44-.325 1.889-.257 4.385.311 7.288l-1.12.219 1.12-.219c.943 4.821 3.222 10.691 6.6 16.526 3.412 5.893 7.464 10.916 11.204 14.134 2.211 1.903 4.303 3.155 6.065 3.776 1.794.631 3.057.547 3.81.112l.572.988-.572-.988c.783-.454 1.533-1.591 1.904-3.593.364-1.96.321-4.55-.274-7.556-.938-4.741-3.373-10.453-6.674-16.155-3.213-5.549-6.931-10.371-10.503-13.543h0c-2.369-2.104-4.634-3.511-6.546-4.225zm8.063 2.517c-2.512-2.231-5.015-3.817-7.264-4.656-2.208-.824-4.394-1.005-6.06-.04-1.611.933-2.507 2.829-2.886 5.028-.386 2.24-.283 5.028.321 8.115 1.002 5.122 3.39 11.23 6.864 17.231l.988-.572-.988.572c3.507 6.058 7.713 11.298 11.691 14.721 2.356 2.027 4.69 3.457 6.796 4.199 2.074.73 4.124.853 5.712-.066 1.629-.943 2.583-2.878 3.005-5.153.43-2.317.355-5.208-.28-8.416-1.006-5.081-3.57-11.038-6.937-16.856-3.292-5.686-7.154-10.724-10.963-14.106z"/></g><path d="M71.895 9.675v30.759h4.093V27.295h9.994c1.005 0 1.809.158 2.413.474a3.77 3.77 0 0 1 1.465 1.206c.373.488.646 1.077.819 1.766a21.18 21.18 0 0 1 .431 2.111 14.88 14.88 0 0 1 .258 2.283l.086 2.197c.029.66.086 1.264.172 1.809.115.546.316.977.603 1.292h4.566a5.61 5.61 0 0 1-.991-1.766c-.201-.689-.359-1.407-.474-2.154a19.82 19.82 0 0 1-.215-2.283l-.129-2.283c-.086-.747-.215-1.465-.388-2.154-.144-.689-.388-1.307-.732-1.852a4.32 4.32 0 0 0-1.335-1.465c-.546-.402-1.264-.689-2.154-.862v-.086c1.867-.517 3.217-1.479 4.049-2.886.862-1.407 1.292-3.044 1.292-4.911 0-2.499-.833-4.466-2.499-5.902-1.637-1.436-3.92-2.154-6.85-2.154H71.895zm12.622 14.173h-8.53V13.121h10.167c1.924 0 3.317.488 4.179 1.465s1.292 2.24 1.292 3.791c0 1.12-.201 2.039-.603 2.757a4.58 4.58 0 0 1-1.551 1.68c-.632.402-1.379.675-2.24.819s-1.766.215-2.714.215zm31.731 3.317h-12.795c.058-.862.244-1.666.56-2.412.316-.776.747-1.45 1.293-2.025a5.71 5.71 0 0 1 1.938-1.335c.776-.345 1.637-.517 2.585-.517.919 0 1.752.172 2.499.517.775.316 1.436.761 1.981 1.335a5.61 5.61 0 0 1 1.336 1.982c.344.775.546 1.594.603 2.455zm3.532 6.203h-3.618c-.316 1.465-.977 2.556-1.982 3.274-.976.718-2.24 1.077-3.791 1.077-1.206 0-2.254-.201-3.145-.603s-1.622-.933-2.197-1.594c-.574-.689-.991-1.465-1.249-2.326-.259-.89-.373-1.824-.345-2.8h16.672c.058-1.35-.072-2.771-.388-4.265a11.76 11.76 0 0 0-1.637-4.136c-.775-1.264-1.823-2.298-3.144-3.102-1.293-.833-2.93-1.249-4.912-1.249-1.522 0-2.929.287-4.221.862-1.264.574-2.37 1.379-3.317 2.413-.919 1.034-1.637 2.255-2.154 3.662s-.776 2.958-.776 4.653c.057 1.694.302 3.26.733 4.696.459 1.436 1.134 2.671 2.024 3.705s1.982 1.838 3.274 2.412c1.321.574 2.872.862 4.653.862 2.527 0 4.624-.632 6.289-1.896s2.743-3.145 3.231-5.643zm23.871 6.98c-.632.373-1.508.56-2.628.56-.947 0-1.708-.259-2.283-.775-.545-.546-.818-1.422-.818-2.628-1.006 1.206-2.183 2.082-3.533 2.628-1.321.517-2.757.775-4.308.775a11.86 11.86 0 0 1-2.886-.345c-.89-.23-1.666-.589-2.326-1.077s-1.192-1.12-1.594-1.895c-.374-.804-.56-1.766-.56-2.886 0-1.264.215-2.297.646-3.102s.991-1.45 1.68-1.939a7.83 7.83 0 0 1 2.412-1.163l2.801-.646 2.843-.431a20.57 20.57 0 0 0 2.412-.431c.689-.201 1.235-.474 1.637-.819.402-.373.603-.905.603-1.594 0-.804-.158-1.45-.474-1.939a2.9 2.9 0 0 0-1.163-1.12c-.459-.258-.991-.431-1.594-.517a11.61 11.61 0 0 0-1.723-.129c-1.551 0-2.843.302-3.877.905-1.034.574-1.594 1.68-1.68 3.317h-3.662c.058-1.378.345-2.542.862-3.489a6.34 6.34 0 0 1 2.068-2.283c.861-.603 1.838-1.034 2.929-1.292 1.12-.258 2.312-.388 3.576-.388a20.48 20.48 0 0 1 2.972.215c1.005.144 1.91.445 2.714.905.804.431 1.45 1.048 1.939 1.852s.732 1.852.732 3.145v11.459c0 .862.043 1.493.129 1.895.115.402.46.603 1.034.603.316 0 .689-.072 1.12-.215v2.843zm-5.945-11.416c-.459.345-1.062.603-1.809.775l-2.369.388-2.456.345c-.833.115-1.58.316-2.24.603a4.16 4.16 0 0 0-1.637 1.249c-.402.517-.603 1.235-.603 2.154 0 .603.115 1.12.344 1.551.259.402.575.732.948.991a4.22 4.22 0 0 0 1.379.56 7.52 7.52 0 0 0 1.637.172c1.206 0 2.24-.158 3.101-.474.862-.345 1.566-.761 2.111-1.249.546-.517.948-1.063 1.207-1.637.258-.603.387-1.163.387-1.68v-3.748zm24.474-3.619h3.791c-.143-1.321-.488-2.456-1.034-3.403-.545-.977-1.249-1.781-2.111-2.412-.833-.632-1.809-1.091-2.929-1.379-1.091-.316-2.269-.474-3.533-.474-1.751 0-3.288.316-4.609.948a9.08 9.08 0 0 0-3.317 2.542c-.862 1.063-1.508 2.326-1.939 3.791-.431 1.436-.646 2.987-.646 4.653s.215 3.202.646 4.609c.46 1.379 1.12 2.57 1.982 3.576.89 1.005 1.982 1.781 3.274 2.326 1.321.546 2.829.819 4.523.819 2.844 0 5.084-.747 6.721-2.24 1.665-1.493 2.699-3.619 3.101-6.376h-3.748c-.229 1.723-.861 3.059-1.895 4.006-1.005.948-2.412 1.422-4.222 1.422-1.149 0-2.139-.23-2.972-.689s-1.508-1.063-2.025-1.809c-.517-.775-.905-1.651-1.163-2.628a13.11 13.11 0 0 1-.345-3.016 14.84 14.84 0 0 1 .345-3.231c.23-1.063.603-1.996 1.12-2.8.546-.804 1.264-1.45 2.154-1.939s1.996-.732 3.317-.732c1.551 0 2.786.388 3.705 1.163s1.522 1.867 1.809 3.274zm13.101-7.151v-6.677h-3.662v6.677h-3.791v3.231h3.791v14.173c0 1.034.101 1.867.302 2.499s.502 1.12.905 1.465c.43.345.976.589 1.637.732.689.115 1.507.172 2.455.172h2.8v-3.231h-1.68a19.16 19.16 0 0 1-1.421-.043c-.345-.057-.618-.158-.819-.302a1.17 1.17 0 0 1-.431-.603c-.057-.259-.086-.603-.086-1.034V21.393h4.437v-3.231h-4.437zm21.055-8.487v30.759h3.877V15.749h.086l16.069 24.685h4.48V9.675h-3.877v24.943h-.086L200.687 9.675h-4.351zm50.26 30.673c-.632.373-1.508.56-2.628.56-.947 0-1.708-.259-2.283-.775-.546-.546-.818-1.422-.818-2.628-1.006 1.206-2.183 2.082-3.533 2.628-1.321.517-2.757.775-4.308.775a11.86 11.86 0 0 1-2.886-.345c-.89-.23-1.666-.589-2.326-1.077s-1.192-1.12-1.594-1.895c-.374-.804-.56-1.766-.56-2.886 0-1.264.215-2.297.646-3.102s.991-1.45 1.68-1.939a7.83 7.83 0 0 1 2.412-1.163l2.8-.646 2.844-.431a20.57 20.57 0 0 0 2.412-.431c.689-.201 1.235-.474 1.637-.819.402-.373.603-.905.603-1.594 0-.804-.158-1.45-.474-1.939a2.9 2.9 0 0 0-1.163-1.12c-.459-.258-.991-.431-1.594-.517a11.61 11.61 0 0 0-1.723-.129c-1.551 0-2.843.302-3.877.905-1.034.574-1.594 1.68-1.68 3.317h-3.662c.058-1.378.345-2.542.862-3.489a6.34 6.34 0 0 1 2.068-2.283c.861-.603 1.838-1.034 2.929-1.292 1.12-.258 2.312-.388 3.576-.388a20.48 20.48 0 0 1 2.972.215c1.005.144 1.91.445 2.714.905.804.431 1.45 1.048 1.939 1.852s.732 1.852.732 3.145v11.459c0 .862.043 1.493.129 1.895.115.402.46.603 1.034.603.316 0 .689-.072 1.12-.215v2.843zm-5.945-11.416c-.459.345-1.062.603-1.809.775l-2.369.388-2.456.345c-.833.115-1.58.316-2.24.603a4.16 4.16 0 0 0-1.637 1.249c-.402.517-.603 1.235-.603 2.154 0 .603.115 1.12.344 1.551.259.402.575.732.948.991a4.22 4.22 0 0 0 1.379.56 7.52 7.52 0 0 0 1.637.172c1.206 0 2.24-.158 3.101-.474.862-.345 1.566-.761 2.111-1.249.546-.517.948-1.063 1.207-1.637.258-.603.387-1.163.387-1.68v-3.748zm14.437-10.77v-6.677h-3.662v6.677h-3.791v3.231h3.791v14.173c0 1.034.1 1.867.301 2.499s.503 1.12.905 1.465c.431.345.977.589 1.637.732.689.115 1.508.172 2.456.172h2.8v-3.231h-1.68c-.575 0-1.049-.014-1.422-.043-.345-.057-.617-.158-.818-.302s-.345-.345-.431-.603c-.058-.259-.086-.603-.086-1.034V21.393h4.437v-3.231h-4.437zm12.382-4.007v-4.48h-3.662v4.48h3.662zm-3.662 4.006v22.272h3.662V18.162h-3.662zm19.372 22.273l8.142-22.272h-3.834l-6.074 18.567h-.086l-6.247-18.567h-4.092l8.271 22.272h3.92zm26.968-13.269h-12.795c.058-.862.244-1.666.56-2.412.316-.776.747-1.45 1.293-2.025a5.71 5.71 0 0 1 1.938-1.335c.776-.345 1.637-.517 2.585-.517.919 0 1.752.172 2.499.517.775.316 1.436.761 1.981 1.335a5.61 5.61 0 0 1 1.336 1.982c.344.775.546 1.594.603 2.455zm3.532 6.203h-3.618c-.316 1.465-.977 2.556-1.982 3.274-.976.718-2.24 1.077-3.791 1.077-1.206 0-2.254-.201-3.145-.603s-1.622-.933-2.197-1.594c-.574-.689-.991-1.465-1.249-2.326-.259-.89-.373-1.824-.345-2.8h16.672c.058-1.35-.072-2.771-.388-4.265A11.76 11.76 0 0 0 312 21.995c-.775-1.264-1.823-2.298-3.144-3.102-1.293-.833-2.93-1.249-4.911-1.249-1.523 0-2.93.287-4.222.862-1.264.574-2.37 1.379-3.317 2.413-.919 1.034-1.637 2.255-2.154 3.662s-.776 2.958-.776 4.653c.058 1.694.302 3.26.733 4.696.459 1.436 1.134 2.671 2.024 3.705s1.982 1.838 3.274 2.412c1.321.574 2.872.862 4.653.862 2.527 0 4.624-.632 6.29-1.896s2.742-3.145 3.23-5.643z"/></svg>