<svg xmlns="http://www.w3.org/2000/svg" width="246" height="66" fill="#000" xmlns:v="https://vecta.io/nano"><path d="M245.375 53.459c-2.576 0-5.151-.031-7.727.005-1.128.016-1.88-.487-2.418-1.412l-4.591-7.896-.19-.301-2.458 4.24-2.188 3.694a4.62 4.62 0 0 1-.954 1.153c-.31.254-.751.48-1.137.487l-7.271.02a1.03 1.03 0 0 1-.183-.044l1.041-1.621 7.794-11.984c.212-.325.233-.534.005-.873l-8.194-12.276-.328-.502h.578l7.136-.01c1.097-.015 1.847.377 2.412 1.363l4.369 7.285.183.275 3.875-6.798.693-1.181c.388-.607.946-.936 1.677-.936h7.18c.095.009.19.023.284.044l-1.693 2.483-6.856 9.98c-.161.232-.183.392-.024.64l8.727 13.777a2.49 2.49 0 0 0 .258.295v.092zM.76 48.336l.204-1.521c.366-3.391 1.618-6.444 3.552-9.229 1.668-2.403 3.74-4.412 6.081-6.152.06-.045.126-.082.222-.145a1.46 1.46 0 0 1 .142.274l.935 3.568c.099.347 0 .519-.252.727-2.665 2.196-4.793 4.804-6.129 8.014-.67 1.62-1.055 3.317-1.011 5.067.121 4.884 3.019 10.559 9.605 12.044 2.078.468 4.179.555 6.306.404 4.887-.348 9.155-2.325 13.202-4.912 3.868-2.47 7.145-5.541 9.561-9.475.375-.609.705-1.246 1.067-1.864.137-.234.097-.403-.076-.611-2.429-2.919-.977-7.1 2.739-7.903 2.791-.602 5.58 1.633 5.709 4.482.118 2.653-1.854 4.666-3.97 5.02-.198.033-.416.286-.52.49a35.69 35.69 0 0 1-4.111 6.361c-4.387 5.375-9.926 9.044-16.552 11.042-1.957.589-3.972 1.098-5.996 1.332-5.277.611-10.259-.275-14.665-3.46-3.056-2.207-4.771-5.267-5.536-8.902-.209-.992-.265-2.013-.396-3.019-.024-.183-.072-.354-.109-.531v-1.102zm49.673 17.381c-.252-.051-.506-.089-.761-.113-3.426-.141-6.649-1.073-9.752-2.478-.053-.025-.102-.06-.195-.118l2.057-1.612 1.487-1.214c.127-.091.375-.155.512-.099 2.023.847 4.16 1.39 6.341 1.612 3.824.373 7.43-.231 10.49-2.736 2.528-2.068 4.173-4.71 4.652-7.982.366-2.495-.175-4.869-1.142-7.164-2.159-5.116-5.855-8.836-10.559-11.644-3.687-2.201-7.642-3.671-11.884-4.342a33.38 33.38 0 0 0-6.279-.38c-.412.013-.65.153-.853.529-.938 1.738-2.959 2.758-4.824 2.47-2.074-.321-3.685-1.8-4.117-3.774a4.84 4.84 0 0 1 2.836-5.461 4.76 4.76 0 0 1 3.238-.201c1.07.314 1.996.993 2.616 1.918.263.391.532.49.963.484 4.676-.065 9.252.54 13.684 2.078 6.533 2.263 11.924 6.112 16.072 11.649 2.057 2.744 3.435 5.819 4.003 9.213.581 3.466.387 6.87-1.26 10.054-1.464 2.836-3.74 4.897-6.463 6.487a19.7 19.7 0 0 1-8.099 2.616l-1.943.206-.823.004zm52.578-12.301v-38.3h.517l12.532.005c3.085.015 6.105.415 8.935 1.75 3.597 1.696 5.536 4.539 5.855 8.497.244 3.064-.434 5.869-2.37 8.308-1.246 1.572-2.835 2.704-4.665 3.495l-.515.221c.137.091.236.168.342.231a7.84 7.84 0 0 1 2.701 2.674l7.718 12.624c.092.151.176.306.301.527h-.506c-2.531 0-5.061-.005-7.593 0-1.486 0-2.577-.601-3.322-1.921l-6.086-10.673c-.608-1.076-1.473-1.618-2.71-1.587-.732.018-1.457 0-2.221 0V53.41l-8.913.005zm8.924-31.642v11.411c1.723-.051 3.414-.046 5.095-.171 1.291-.086 2.513-.611 3.464-1.488 1.201-1.098 1.611-2.527 1.688-4.106.135-2.755-1.326-4.724-4.012-5.353-2.048-.48-4.129-.189-6.235-.293zm65.69 6.064V14.08h8.156v39.314c-.014.01-.037.043-.061.043h-5.259c-.866-.012-1.472-.563-1.756-1.481l-.56-1.843-2.272 1.87c-2.845 1.914-5.938 2.478-9.217 1.357-2.306-.789-3.87-2.47-4.988-4.593-1.328-2.521-1.823-5.242-1.908-8.058-.091-2.95.33-5.808 1.639-8.481 1.585-3.234 4.013-5.517 7.599-6.303 3.087-.672 6.007-.292 8.627 1.935zm0 11.458l-.011-5.439a1.05 1.05 0 0 0-.257-.631c-.682-.763-1.555-1.215-2.551-1.415-1.761-.354-3.405-.183-4.718 1.21-.703.748-1.11 1.666-1.386 2.644-.51 1.809-.573 3.659-.477 5.521.073 1.423.269 2.817.849 4.133.705 1.598 1.994 2.371 3.741 2.287a6.04 6.04 0 0 0 4.436-2.13 1.39 1.39 0 0 0 .294-.469 1.38 1.38 0 0 0 .088-.547l-.004-5.163h-.004zm28.969-13.121l.439-.027 7.272-.01c.386 0 .483.116.483.491l-.008 26.346-.02.469c-1.836 0-3.635.035-5.43-.016-.823-.023-1.372-.543-1.628-1.328l-.471-1.535-1.18.991c-3.402 2.555-7.107 3.11-11.006 1.396-2.59-1.142-3.996-3.369-4.619-6.065a15.5 15.5 0 0 1-.392-3.345l-.018-16.924v-.439h8.168v.596l.008 16.649a7.09 7.09 0 0 0 .193 1.673c.48 1.934 2.028 2.871 4.117 2.579 1.525-.214 2.777-.956 3.908-1.941.128-.112.183-.37.183-.561l.008-18.432-.007-.567zm-66.088 15.11c.354 2.554 1.07 4.811 3.6 5.917 1.746.763 3.568.777 5.352.156 1.084-.379 2.093-.971 3.15-1.432.415-.186.855-.309 1.306-.366a1.74 1.74 0 0 1 1.646.691l2.365 2.933a11.89 11.89 0 0 1-3.786 2.976c-2.141 1.092-4.431 1.555-6.815 1.691-2.315.134-4.563-.13-6.722-.975-3.173-1.241-5.507-3.423-6.845-6.549-1.876-4.382-2.097-8.851-.066-13.238 1.892-4.084 5.215-6.41 9.629-7.152 2.379-.399 4.745-.281 7.04.498 4.025 1.365 6.39 4.244 7.354 8.32a14.44 14.44 0 0 1 .293 4.946c-.124 1.129-.571 1.573-1.717 1.576l-15.18.009-.604-.003zm.126-4.821c.027.015.055.027.085.036l9.723.025c.26 0 .3-.133.293-.345-.091-2.441-1.361-4.418-3.916-4.732-2.058-.253-3.883.205-5.108 2.067-.586.89-.894 1.885-1.077 2.949zM52.529 21.921l-3.999-1.18c-.113-.035-.229-.232-.247-.366-.575-4.24-2.069-8.099-4.802-11.42-1.712-2.08-3.842-3.544-6.541-4.061-1.846-.353-3.666-.146-5.46.327-2.836.749-5.422 1.965-7.362 4.245-1.867 2.196-3.196 4.705-4.084 7.444-.692 2.136-1.138 4.325-1.189 6.573-.044 1.777-.11 3.568.03 5.336.341 4.31 1.565 8.384 3.582 12.213.228.431.479.849.698 1.281.15.299.352.396.692.372 2.486-.168 4.511 1.326 5.085 3.73.656 2.744-1.285 5.476-4.097 5.831a4.83 4.83 0 0 1-5.338-3.806 4.63 4.63 0 0 1 .372-3.019c.169-.344.15-.599-.037-.925-1.912-3.334-3.356-6.856-4.253-10.597a35.5 35.5 0 0 1-.895-5.94c-.354-5.306.507-10.417 2.682-15.259 2.366-5.273 6.171-9.116 11.681-11.122a15.48 15.48 0 0 1 5.688-.937c3.556.086 6.72 1.324 9.495 3.54 3.568 2.849 5.758 6.603 7.074 10.908.75 2.454 1.159 4.909 1.224 6.831z"/></svg>