 <svg width="160" height="160" viewBox="0 0 160 160" fill="none"
                            xmlns="http://www.w3.org/2000/svg">
                            <g id="illustration">
                                <path id="Vector"
                                    d="M123.836 36.7297C117.12 30.886 108.994 26.813 100.285 24.901C82.6886 21.0357 64.8516 25.374 48.9256 33.1197C32.7026 41.0121 17.2174 53.9358 13.1193 72.3138C11.1757 81.048 11.9265 89.9124 15.729 98.0237C19.8843 106.886 28.0242 113.447 36.1911 118.448C43.8359 123.13 52.1274 127.196 60.6826 129.901C69.715 132.752 78.8914 133.228 88.2266 131.946C96.1675 130.856 103.914 128.428 111.521 125.966C121.289 122.808 130.333 118.55 136.139 109.716C136.764 108.769 145.753 92.5976 145.908 84.3829C146.066 75.8412 143.256 67.6167 139.814 59.9262C136.001 51.4129 130.943 42.9115 123.836 36.7297Z"
                                    fill="#f3f6fc"></path>
                                <path id="Vector_2"
                                    d="M139.515 26.0236C130.149 24.0472 122.419 22.7527 115.752 23.0398C113.542 23.1343 107.214 23.5401 105.502 23.9727C105.443 23.9682 105.378 23.974 105.307 23.9967C84.1704 30.8437 68.2965 45.6636 55.1653 62.921C41.5402 63.5312 30.6324 73.5302 21.165 82.7068C20.8592 83.0029 20.9898 83.6001 21.4628 83.6189C27.1557 83.8403 32.8507 84.0617 38.5436 84.2831C37.7671 85.3225 36.9885 86.3597 36.212 87.3991C35.2805 88.6426 33.7468 90.1272 33.9532 91.8463C34.0383 92.563 34.3986 93.3029 34.8673 94.0274C34.8655 94.2496 34.9864 94.4661 35.2092 94.5284C35.9135 95.5148 36.75 96.4552 37.2937 97.2393C38.1987 98.5498 39.1038 99.8602 40.011 101.171C35.0467 106.732 31.5653 113.683 30.187 121.433C29.9543 122.745 31.0907 122.394 31.4081 122.312C38.3826 120.525 45.0247 117.63 51.0452 113.706C51.0294 113.83 51.0644 113.962 51.1776 114.083C53.3605 116.458 56.1193 121.427 59.9701 120.156C61.6742 119.593 63.2534 118.244 64.7253 117.262C66.4641 116.102 68.203 114.939 69.9418 113.779C70.2362 113.944 70.5636 114.071 70.9128 114.164C70.9081 114.198 70.9014 114.23 70.8966 114.264C70.5151 116.603 70.1334 118.945 69.7541 121.284L67.3048 136.324C67.249 136.663 67.4949 136.846 67.7624 136.856C67.9354 137.009 68.1948 137.07 68.4276 136.887C78.2376 129.22 89.341 119.868 89.105 106.213C91.3494 104.613 93.5453 102.943 95.6805 101.198C102.098 95.9464 108 90.0572 113.289 83.6592C119.39 76.2783 124.384 68.6877 128.708 60.1349C128.96 59.6361 128.819 59.3749 128.155 59.1018C121.895 55.953 116.377 51.4988 111.972 46.0222C109.791 43.3104 107.893 40.3741 106.331 37.2584C105.628 35.8576 104.992 34.4252 104.427 32.9616C104.088 32.0851 103.58 31.0619 103.438 30.1293C103.235 28.7862 103.709 28.3431 104.576 27.6344C110.57 39.5835 120.252 48.9497 131.434 56.2265C132.056 56.6303 132.575 55.9963 132.669 55.7402C136.155 46.2987 138.602 36.549 139.996 26.5785C140.034 26.277 139.775 26.078 139.515 26.0236ZM55.6651 63.9436C56.4524 63.9217 57.2481 63.9307 58.0518 63.9748C54.182 68.5212 50.5224 73.2412 47.1266 78.1605C46.3115 79.3395 45.5148 80.5307 44.7304 81.7315C44.4804 81.4619 44.2282 81.1923 43.9782 80.9227C47.6498 75.1416 51.5204 69.4252 55.6651 63.9436ZM22.7315 82.6279C31.6074 74.0602 41.7735 64.9544 54.3356 64.0104C50.4234 69.2291 46.751 74.6541 43.2564 80.1401C43.1849 80.0634 43.1134 79.9867 43.0421 79.9078C42.9845 79.8473 42.9231 79.8081 42.8587 79.7794C42.7581 79.6918 42.62 79.6446 42.4481 79.6746C42.0018 79.7571 41.6764 80.028 41.4567 80.4062C41.4291 80.43 41.4012 80.4581 41.3773 80.4908C40.6845 81.4158 39.9918 82.3408 39.299 83.2679C33.777 83.0575 28.2532 82.8426 22.7315 82.6279ZM38.2091 86.4551C38.7396 85.7444 39.2722 85.0339 39.8025 84.3253C40.2328 83.7473 41.5823 81.9464 42.225 81.0867C42.2442 81.0601 42.257 81.033 42.2719 81.0061C42.3006 80.9672 42.3313 80.9307 42.3541 80.885C42.3744 80.8434 42.4108 80.8159 42.445 80.7905L42.6851 81.0484C40.2287 84.9321 37.8563 88.8395 35.5483 92.7194C34.686 90.253 36.7615 88.3888 38.2091 86.4551ZM43.4093 81.8291C43.6573 82.0963 43.9075 82.3637 44.1554 82.633C43.5034 83.6432 42.8555 84.6558 42.2241 85.6783C40.9486 87.7482 39.104 92.5075 36.3591 93.3772C38.6404 89.5384 40.9816 85.674 43.4093 81.8291ZM39.4521 98.5527C38.5335 97.2218 37.338 95.8633 36.4331 94.4384C38.0239 94.0678 39.1117 92.8017 40.0469 91.3405C41.7151 88.735 43.2439 86.0433 44.8897 83.421L52.5474 91.6611C48.096 93.8316 44.091 96.796 40.7169 100.383C40.2952 99.7743 39.8736 99.1635 39.4521 98.5527ZM31.4088 120.551C32.8337 113.488 36.0808 107.163 40.6083 102.039C41.2444 102.962 41.8829 103.883 42.519 104.806C42.5305 104.824 42.5472 104.829 42.5589 104.845C38.094 109.541 34.377 114.789 31.4088 120.551ZM32.3375 120.985C35.2516 115.314 38.9291 110.133 43.3338 105.524C43.5763 105.271 43.4516 104.339 43.3046 104.127C42.6432 103.17 41.9837 102.215 41.3223 101.258C44.7177 97.6167 48.7803 94.6286 53.2995 92.4698C56.395 95.802 59.4927 99.1344 62.5882 102.467C60.0778 105.478 56.981 108.1 54.1221 110.273C47.6112 115.229 40.199 118.822 32.3375 120.985ZM54.2932 92.019C58.4095 90.19 62.8804 89.0356 67.5657 88.7029C68.1306 93.532 66.184 97.882 63.2467 101.653C60.2621 98.4441 57.2777 95.2305 54.2932 92.019ZM52.8803 112.946C52.8138 112.775 52.6956 112.692 52.5646 112.665C53.779 111.823 54.9746 110.947 56.1334 110.019C58.5863 108.048 61.1227 105.768 63.2705 103.205L69.547 109.96C69.0684 110.356 68.7252 110.947 68.6797 111.545C66.68 112.269 64.6824 112.993 62.6828 113.717C59.7428 114.781 54.5133 117.164 52.8803 112.946ZM62.3873 117.58C60.1068 119.089 58.5658 120.105 56.067 117.876C55.3995 117.281 54.7742 116.612 54.1633 115.922C57.3982 117.447 62.6236 114.835 65.5349 113.781C66.6363 113.382 67.7377 112.982 68.8411 112.585C68.9131 112.768 69.0078 112.935 69.1208 113.086C66.8776 114.585 64.6362 116.089 62.3873 117.58ZM70.7573 113.075C70.6489 113.06 70.542 113.026 70.4493 112.976C70.163 112.816 69.9672 112.512 69.8487 112.207C70.4579 111.958 71.0648 111.711 71.674 111.461C71.7097 111.868 71.6575 112.272 71.6163 112.476C71.5376 112.891 71.1242 113.189 70.7573 113.075ZM69.7969 111.108C69.8678 110.909 69.9796 110.708 70.1749 110.539C70.4528 110.299 70.7666 110.181 71.1153 110.367C71.1813 110.403 71.2333 110.452 71.2854 110.501C70.7893 110.703 70.293 110.907 69.7969 111.108ZM68.4725 135.533C69.2689 130.641 70.0653 125.75 70.8617 120.859C71.2154 118.688 71.5798 116.519 71.9249 114.347C72.9703 114.46 74.046 114.371 74.7848 114.225C78.5985 113.469 82.0165 111 85.2115 108.895C86.1762 108.261 87.1294 107.608 88.0769 106.947C87.8643 119.557 77.7033 128.285 68.4725 135.533ZM72.4584 111.251C83.4324 106.827 86.6711 105.758 86.6649 105.783C88.0164 105.228 88.1253 105.8 87.8474 106.012C83.6513 109.201 80.6011 111.153 76.5005 112.661C75.6195 112.985 73.8522 113.616 72.8836 113.453C72.3726 113.455 72.2365 113.439 72.0784 113.401C72.082 113.381 72.0753 113.357 72.0872 113.341C72.3414 113.047 72.4855 112.534 72.5398 112.13C72.5511 112.122 72.6023 111.532 72.4584 111.251ZM138.053 32.0104C137.547 34.9205 137.085 37.2426 136.386 40.1121C135.139 45.2345 133.574 50.2678 131.756 55.2149C120.297 48.4998 111.067 38.5702 105.204 26.5987C105.056 26.2959 104.658 26.2159 104.403 26.4317L102.149 28.3297C102.019 28.4406 101.929 28.6518 101.979 28.824C105.822 42.3249 115.162 53.6575 127.612 59.9821C120.084 74.6562 109.751 87.8034 97.2553 98.523C94.4748 100.907 91.5881 103.165 88.612 105.299C88.525 105.286 88.6762 104.454 87.6262 104.684L72.0966 110.306C72.0101 110.144 71.8992 109.993 71.7524 109.863C71.3742 109.53 70.9478 109.435 70.5332 109.496C68.3325 107.128 66.1318 104.76 63.9313 102.39C67.1839 98.2542 69.343 93.4239 68.5217 88.0139C68.4546 87.5684 67.9774 87.5211 67.7016 87.7332C67.6229 87.6948 67.5348 87.6686 67.4312 87.6758C62.5134 88.0167 57.8327 89.25 53.5375 91.2014C50.8467 88.306 48.1559 85.4105 45.465 82.5151C45.6012 82.3053 45.7291 82.0906 45.8674 81.881C50.0239 75.5648 54.6045 69.5443 59.5299 63.8158C59.7983 63.5039 59.5013 63.0343 59.1452 63.0028C58.2392 62.9206 57.3468 62.8848 56.4645 62.8864C69.2149 46.2605 84.5898 31.9918 104.879 25.2311C106.351 24.6938 110.59 24.2471 112.745 24.1635C121.731 23.8205 125.754 24.2575 135.766 26.2919C136.857 26.5134 139.031 26.6515 138.893 27.8218C138.736 29.1288 138.191 31.22 138.053 32.0104Z"
                                    fill="#083dc8" stroke="#083dc8"></path>
                            </g>
                        </svg>