<?xml version="1.0" encoding="utf-8"?>
<!-- Generator: Adobe Illustrator 24.3.0, SVG Export Plug-In . SVG Version: 6.00 Build 0)  -->
<svg version="1.1" id="Layer_1" xmlns="http://www.w3.org/2000/svg" xmlns:xlink="http://www.w3.org/1999/xlink" x="0px" y="0px"
	 viewBox="0 0 512 512" style="enable-background:new 0 0 512 512;" xml:space="preserve">
<style type="text/css">
	.st0{fill:#FFFFFF;}
</style>
<g>
	<path class="st0" d="M255.5,502.9c-59.2,0-118.3,0-177.4,0c-31.6,0-52.5-20.9-52.5-52.5c0-20.2,0-40.5,0-60.7
		c0.1-30.2,21.3-51.3,51.5-51.4c15.2,0,30.5,0,45.8,0c10.4,0,17.9,6.9,17.9,16.4c0,9.5-7.4,16.5-17.8,16.5c-15.4,0.1-30.9,0-46.3,0
		c-11.6,0-18.2,6.6-18.2,18.2c0,20.8,0,41.5,0,62.2c0,11.8,6.6,18.4,18.6,18.4c119.3,0,238.7,0,357.9,0c12,0,18.5-6.5,18.6-18.4
		c0-20.8,0-41.5,0-62.2c0-11.5-6.7-18.2-18.3-18.2c-15.2,0-30.5,0-45.8,0c-10.9,0-18.4-6.9-18.3-16.6s7.5-16.3,18.5-16.3
		c15.2,0,30.5,0,45.8,0c29.5,0.1,50.8,21.4,50.9,50.9c0.1,20.9,0.1,41.8,0,62.7c-0.1,29.5-21.4,50.8-51,50.9
		C375.5,503,315.5,502.9,255.5,502.9z"/>
	<path class="st0" d="M255.8,437.1c-48.8,0-97.8,0-146.6,0c-12.7,0-21-11-16.7-22c2.5-6.6,7.4-10.1,14.4-10.7
		c1.6-0.1,3.1-0.1,4.6-0.1c96.3,0,192.7,0,289.1,0c2.4,0,4.8-0.1,7.2,0.4c8,1.8,13.6,9.3,12.9,17.4c-0.7,8.2-7.5,14.9-16.2,15
		c-15.1,0.2-30.2,0.1-45.3,0.1C324.7,437.1,290.2,437.1,255.8,437.1z"/>
	<g>
		<path class="st0" d="M244.2,235.4c-4.2,0-7.8,0.1-11.5,0c-6.9-0.1-12.1-5.2-12.2-11.8c0-6.6,5.1-11.8,12.1-11.9
			c9.9-0.1,19.7,0,29.6,0c4,0,5.7-1.9,5.6-5.9c0-4.1-1.7-5.8-5.7-5.8c-4.3,0-8.7,0-12.9,0c-14.8-0.1-26-10.1-28.4-25.5
			c-2.2-14.1,6.5-28.5,19.8-32.5c3-0.8,3.9-2.1,3.7-5c-0.2-2.8-0.1-5.6,0-8.5c0.3-6.5,5.4-11.4,11.8-11.4c6.3,0,11.6,4.9,11.8,11.4
			c0.2,4,0,7.8,0,12.3c3.8,0,7.2,0,10.7,0c7.5,0,12.9,4.9,12.9,11.8s-5.3,11.9-12.8,11.9c-9.6,0-19.2,0-28.9,0c-4,0-5.7,1.8-5.6,5.9
			c0,4.2,1.7,5.8,5.7,5.8c5.9,0.1,11.9-0.4,17.7,0.4c13.1,1.9,22.9,13.3,23.8,26.9c0.9,14.1-7.2,26.8-20,30.6c-3,0.8-3.9,2.1-3.7,5
			c0.2,2.8,0.1,5.6,0,8.5c-0.3,6.5-5.5,11.4-11.8,11.4c-6.3,0-11.6-5-11.8-11.4C244.1,243.9,244.2,239.9,244.2,235.4z"/>
		<path class="st0" d="M256,9C157.3,9,76.9,89.4,76.9,188.1S157.3,367.1,256,367.1s179.1-80.4,179.1-179.1S354.7,9,256,9z
			 M256,338.3c-82.9,0-150.2-67.4-150.2-150.2S173.1,37.9,256,37.9s150.2,67.4,150.2,150.2S338.9,338.3,256,338.3z"/>
		<g>
			<path class="st0" d="M266.5,72c0,3.4,0.1,6.8,0,10.2c-0.2,6.2-4.8,10.7-10.6,10.7c-5.7-0.1-10.3-4.6-10.4-10.6
				c-0.1-7-0.1-14.1,0-21.1c0.1-5.9,4.8-10.5,10.5-10.5c5.7,0,10.4,4.5,10.5,10.4C266.6,64.7,266.5,68.4,266.5,72z"/>
			<path class="st0" d="M245.5,304c0-3.4-0.1-6.8,0-10.2c0.2-5.9,4.7-10.5,10.4-10.6c5.7,0,10.5,4.5,10.6,10.4
				c0.1,7.1,0.1,14.3,0,21.4c-0.1,5.9-4.9,10.4-10.6,10.4c-5.7,0-10.3-4.6-10.4-10.6C245.4,311.3,245.5,307.7,245.5,304z"/>
			<path class="st0" d="M139.6,198.7c-3.5,0-7,0.1-10.5,0c-5.9-0.2-10.5-4.7-10.5-10.4s4.5-10.4,10.4-10.6c7.1-0.1,14.3-0.1,21.4,0
				c5.9,0.1,10.4,4.9,10.4,10.6c-0.1,5.6-4.5,10.2-10.2,10.4C146.9,198.8,143.3,198.7,139.6,198.7z"/>
			<path class="st0" d="M372.1,198.7c-3.4,0-6.8,0.1-10.2,0c-6.2-0.1-10.7-4.8-10.7-10.6c0.1-5.7,4.6-10.3,10.6-10.4
				c7-0.1,14.1-0.1,21.1,0c6.1,0.1,10.5,4.7,10.5,10.4c0,5.7-4.5,10.4-10.4,10.6C379.3,198.8,375.7,198.7,372.1,198.7z"/>
			<path class="st0" d="M356.2,277.8c0,5.9-4.6,10.4-10.4,10.4s-10.5-4.7-10.5-10.4c0-5.7,4.9-10.5,10.5-10.5
				C351.5,267.3,356.2,272,356.2,277.8z"/>
			<path class="st0" d="M345.7,87.9c5.9,0,10.4,4.6,10.4,10.5c0,5.8-4.7,10.5-10.5,10.5c-5.7,0-10.5-4.9-10.5-10.6
				S339.9,87.9,345.7,87.9z"/>
			<path class="st0" d="M155.8,277.5c0.1-5.8,5-10.4,10.9-10.2c5.8,0.2,10.4,5.2,10.2,10.9c-0.2,5.8-5,10.2-11,10.1
				C160.1,288.1,155.6,283.4,155.8,277.5z"/>
			<path class="st0" d="M155.8,98.3c0-5.9,4.7-10.4,10.6-10.3c5.8,0,10.5,4.8,10.4,10.5c-0.1,5.7-5,10.5-10.6,10.4
				C160.3,108.9,155.7,104.2,155.8,98.3z"/>
		</g>
	</g>
</g>
</svg>
