<?xml version="1.0" encoding="utf-8"?>
<!-- Generator: Adobe Illustrator 24.3.0, SVG Export Plug-In . SVG Version: 6.00 Build 0)  -->
<svg version="1.1" id="Capa_1" xmlns="http://www.w3.org/2000/svg" xmlns:xlink="http://www.w3.org/1999/xlink" x="0px" y="0px"
	 viewBox="0 0 512 512" style="enable-background:new 0 0 512 512;" xml:space="preserve">
<style type="text/css">
	.st0{fill:#FFFFFF;}
</style>
<path class="st0" d="M507,295.5c0-8.3-5-15.7-12.6-18.9c-7.6-3.2-16.4-1.4-22.3,4.4L391,362.1L284.9,256L391,149.9l81.1,81.1
	c3.9,3.9,9.1,6,14.5,6c2.6,0,5.3-0.5,7.8-1.6c7.6-3.2,12.6-10.6,12.6-18.9v-191C507,14.2,497.8,5,486.5,5h-191
	c-8.3,0-15.7,5-18.9,12.6c-3.2,7.6-1.4,16.4,4.4,22.3l81.1,81.1L256,227.1L149.9,121L231,39.9c5.8-5.9,7.6-14.6,4.4-22.3
	C232.2,10,224.8,5,216.5,5h-191C20,5,14.8,7.2,11,11s-6,9-6,14.5v191c0,8.3,5,15.7,12.6,18.9c2.5,1,5.2,1.6,7.8,1.6
	c5.3,0,10.6-2.1,14.5-6l81.1-81.1L227.1,256L121,362.1L39.9,281c-5.9-5.9-14.6-7.6-22.3-4.4C10,279.8,5,287.2,5,295.5v191
	c0,5.4,2.2,10.6,6,14.5c3.8,3.8,9,6,14.5,6h191c8.3,0,15.7-5,18.9-12.6s1.4-16.4-4.4-22.3L149.9,391L256,284.9L362.1,391L281,472.1
	c-5.8,5.9-7.6,14.6-4.4,22.3c3.2,7.6,10.6,12.6,18.9,12.6h191c5.4,0,10.6-2.2,14.5-6c3.8-3.8,6-9,6-14.5V295.5z M466.1,45.9v121.2
	L344.9,45.9H466.1z M45.9,45.9h121.2L45.9,167.1V45.9z M45.9,466.1V344.9l121.2,121.2L45.9,466.1z M344.9,466.1l121.2-121.2v121.2
	L344.9,466.1L344.9,466.1z"/>
</svg>
