<svg id="Layer_1" data-name="Layer 1" xmlns="http://www.w3.org/2000/svg" viewBox="0 0 512 512"><defs><style>.cls-1{fill:#54b3da;}.cls-2{fill:#f2f2f2;}.cls-3{fill:#5abfe9;}</style></defs><path class="cls-1" d="M231.41,98.3s-39.33,30.06-29.61,114.3H178.22l-13.29-57.15,37.95-94Z"/><rect class="cls-2" x="50.6" y="438.32" width="317.52" height="51.84"/><circle class="cls-3" cx="209.03" cy="276.32" r="51.12"/><path d="M341.55,166l24.51-24.5a15,15,0,0,0-21.22-21.22l-24.5,24.51L219.2,43.67a15,15,0,0,0-21.21,0c-46.58,46.57-61.89,118-39.76,180.89a73.91,73.91,0,0,0-13.75,90.2l-41,101.35H73.68a47.95,47.95,0,0,0,0,95.89H344.39a47.95,47.95,0,0,0,0-95.89h-29.8l-33.21-83.28A175.57,175.57,0,0,0,319,336.89a178.61,178.61,0,0,0,32.59-3A170,170,0,0,0,441.32,287a15,15,0,0,0,0-21.21ZM245.06,303.84l-.37.51a43.37,43.37,0,1,1,.37-.51ZM362.33,464.06A18,18,0,0,1,344.39,482H73.68a17.95,17.95,0,0,1,0-35.89H344.39A18,18,0,0,1,362.33,464.06ZM135.85,416.11l31.05-76.76a73.89,73.89,0,0,0,84.67-.28l30.72,77ZM408.93,275.82a141.22,141.22,0,0,1-62.83,28.57,147,147,0,0,1-66.63-2.95,74.07,74.07,0,0,0-94.93-92.93C170.65,162.78,180,112.6,209.19,76.08Z"/><path d="M359.22,84.56A42.52,42.52,0,0,1,401.7,127a15,15,0,0,0,30,0,72.56,72.56,0,0,0-72.48-72.48,15,15,0,0,0,0,30Z"/><path d="M359.22,0a15,15,0,0,0,0,30,97.15,97.15,0,0,1,97,97,15,15,0,1,0,30,0A127.18,127.18,0,0,0,359.22,0Z"/></svg>