<svg xmlns="http://www.w3.org/2000/svg" width="178" height="45" fill="none" xmlns:v="https://vecta.io/nano"><path fill-rule="evenodd" d="M138.045 4.728a2.31 2.31 0 0 0 1.658.657v.002a2.37 2.37 0 0 0 1.688-.678c.466-.457.697-1.006.697-1.651.017-.634-.236-1.245-.697-1.682-.463-.444-1.029-.67-1.688-.67a2.27 2.27 0 0 0-1.658.67c-.457.45-.684 1.006-.684 1.682s.225 1.233.684 1.671zM84.697 32.345v-4.353c.459.436 1.005.839 1.645 1.188s1.296.65 2.022.888 1.42.431 2.13.565 1.377.2 1.977.2c2.086 0 3.65-.42 4.679-1.264s1.544-2.058 1.544-3.64c0-.851-.17-1.588-.515-2.221-.365-.658-.848-1.244-1.426-1.727-.609-.52-1.326-1.02-2.156-1.495l-2.674-1.508-2.826-1.695c-.834-.535-1.6-1.169-2.28-1.889-.648-.688-1.156-1.469-1.527-2.341s-.551-1.895-.551-3.067c0-1.437.288-2.684.867-3.745a7.85 7.85 0 0 1 2.285-2.628c.948-.691 2.016-1.201 3.222-1.538 1.2-.337 2.44-.507 3.687-.507 2.857 0 4.936.376 6.243 1.12v4.153c-1.708-1.288-3.89-1.932-6.588-1.932a10.33 10.33 0 0 0-2.224.25c-.741.163-1.4.444-1.977.826s-1.049.872-1.413 1.477-.546 1.332-.546 2.202c0 .807.138 1.501.415 2.089s.684 1.12 1.225 1.608 1.193.952 1.972 1.408l2.674 1.495 2.95 1.76c.93.613 1.745 1.294 2.444 2.045s1.256 1.577 1.664 2.486.616 1.953.616 3.122c0 1.55-.282 2.873-.835 3.947a7.3 7.3 0 0 1-2.26 2.628c-.948.678-2.042 1.162-3.285 1.464s-2.544.452-3.919.452c-.459 0-1.024-.037-1.695-.12l-2.058-.35a16.4 16.4 0 0 1-1.99-.57c-.632-.242-1.131-.484-1.514-.775l-.002-.008zM13.006 5.428h9.14V2.082H.177v3.346h9.101v28.193h3.727V5.428zm13.159 31.796l10.401-26.122H32.8l-6.424 17.372-.438 1.671h-.13l-.465-1.714-6.118-17.328h-4.019l8.832 22.469-1.809 4.266c-.909 2.171-2.279 3.253-4.107 3.253-.645 0-1.361-.131-2.139-.394v3.235c.634.194 1.421.287 2.361.287 3.363 0 5.967-2.334 7.82-6.994zm16.323-6.855H42.4v13.612h-3.624V11.101H42.4v3.96h.087c1.783-2.989 4.384-4.487 7.82-4.487 2.914 0 5.186 1.007 6.823 3.022s2.447 4.717 2.447 8.106c0 3.766-.917 6.788-2.755 9.052s-4.359 3.396-7.549 3.396c-2.917-.006-5.194-1.264-6.782-3.785l-.003.005zm-.087-5.937v-3.148c0-2.2.642-4.018 1.922-5.475s2.977-2.189 5.081-2.189c1.968 0 3.561.71 4.723 2.131s1.745 3.383 1.745 5.892c0 2.972-.619 5.299-1.864 6.968s-2.966 2.508-5.157 2.508c-1.873 0-3.416-.641-4.629-1.945s-1.822-2.878-1.822-4.742zm39.146-1.17H65.583c.057 2.508.734 4.439 2.029 5.804s3.079 2.045 5.345 2.045c2.544 0 4.886-.839 7.022-2.508v3.385c-1.985 1.437-4.615 2.158-7.883 2.158-3.197 0-5.704-1.02-7.531-3.067s-2.755-4.923-2.755-8.633c0-3.503.998-6.36 2.99-8.563s4.473-3.309 7.431-3.309 5.244.952 6.865 2.857 2.431 4.552 2.431 7.939v1.889l.019.003zm-5.24-7.918c.992 1.156 1.501 2.76 1.514 4.859l-12.216.003c.266-1.964 1.018-3.553 2.21-4.773s2.645-1.827 4.353-1.827c1.765 0 3.147.583 4.139 1.738zm39.048 18.809c2.379 0 4.44-.528 6.179-1.566l.008.015v-3.422c-1.74 1.307-3.593 1.958-5.565 1.958-2.338 0-4.207-.768-5.596-2.289s-2.086-3.604-2.086-6.244c0-2.683.741-4.847 2.217-6.499s3.373-2.478 5.684-2.478c1.916 0 3.711.581 5.389 1.759v-3.713c-1.521-.73-3.273-1.101-5.258-1.101-3.567 0-6.414 1.127-8.547 3.378s-3.202 5.23-3.202 8.939c0 3.328.992 6.035 2.97 8.126s4.585 3.135 7.807 3.135zm20.191-19.406c-.632-.481-1.544-.726-2.755-.726-1.544 0-2.839.726-3.873 2.179s-1.556 3.428-1.556 5.937v11.477h-3.623V11.096h3.623v4.642h.088c.515-1.582 1.3-2.821 2.361-3.703s2.241-1.332 3.554-1.332c.94 0 1.664.1 2.167.323l.014 3.721zm5.924 18.874h-3.624V11.104h3.624v22.518zm5.754-3.253h.087l.003-.005c1.589 2.521 3.866 3.779 6.783 3.785 3.173 0 5.711-1.132 7.549-3.396s2.755-5.286 2.755-9.052c0-3.39-.811-6.092-2.448-8.106s-3.908-3.022-6.822-3.022c-3.436 0-6.037 1.498-7.82 4.487h-.087v-3.96h-3.624v32.881h3.624V30.369zm-.001-9.078v3.143c0 1.864.609 3.438 1.821 4.742s2.755 1.945 4.629 1.945c2.191 0 3.912-.839 5.157-2.508s1.863-3.997 1.863-6.968c0-2.508-.583-4.471-1.745-5.892s-2.755-2.131-4.722-2.131c-2.104 0-3.801.731-5.081 2.189s-1.922 3.277-1.922 5.48zm27.358 12.813c1.402 0 2.525-.232 3.379-.7l-.001-3.08c-.66.5-1.451.751-2.362.751-1.191 0-2.046-.323-2.56-.969s-.773-1.727-.773-3.235V14.184h5.696v-3.078h-5.696V4.444l-3.624 1.162v5.498h-3.889v3.078h3.889v13.323c0 4.397 1.987 6.599 5.941 6.599z" fill="#000"/></svg>