<?xml version="1.0" encoding="utf-8"?>
<!-- Generator: Adobe Illustrator 24.1.2, SVG Export Plug-In . SVG Version: 6.00 Build 0)  -->
<svg version="1.1" id="Layer_1" xmlns="http://www.w3.org/2000/svg" xmlns:xlink="http://www.w3.org/1999/xlink" x="0px" y="0px"
	 viewBox="0 0 512 512" style="enable-background:new 0 0 512 512;" xml:space="preserve">
<style type="text/css">
	.st0{fill:#5ABFE9;}
	.st1{fill:#F2F2F2;}
	.st2{fill:#CDD6DF;}
	.st3{fill:#FFFFFF;}
</style>
<path class="st0" d="M125.5,305.1c-14.4,5.6-27.2,10.5-32,12.4c-16.7,6.9-39,28.5-39,60.6v116.7c0,7.2,5.8,13,13,13h58L125.5,305.1
	L125.5,305.1z"/>
<path class="st0" d="M384.4,317.5c-4.6-1.8-18.5-7.2-34.5-13.4v203.6h60.5c7.2,0,13-5.8,13-13c0-4.6,0-112.1,0-116.7
	C423.5,346,401.1,324.4,384.4,317.5z"/>
<path class="st1" d="M275.1,285.1H132c-11.1,0-20.2,9.1-20.2,20.2v152.2c0,9,6.1,17.9,14.5,20.4h225.4c8.4-2.5,14.5-11.4,14.5-20.4
	V363C318.7,362.3,282.6,330.5,275.1,285.1L275.1,285.1z"/>
<path class="st2" d="M158.8,457.5V305.3c0-11.1,9.1-20.2,20.2-20.2h-47c-11.1,0-20.2,9.1-20.2,20.2v152.2c0,9,6.1,17.9,14.5,20.4h47
	C164.9,475.3,158.8,466.4,158.8,457.5L158.8,457.5z"/>
<path class="st2" d="M379.7,476.8H98.3c-1.9,0-3.4,1.5-3.4,3.4V492c0,8.7,7,15.8,15.7,15.8h256.8c8.6,0,15.7-7.1,15.7-15.8v-11.7
	C383,478.3,381.5,476.8,379.7,476.8z"/>
<circle class="st0" cx="367.7" cy="269.1" r="96.9"/>
<path class="st3" d="M421.2,251.8c-0.7-3.5-5-4.7-7.5-2.2l-31.1,31.1c-1,1-2.4,1.3-3.7,1l-17.8-4.8c-1.3-0.4-2.3-1.4-2.7-2.7
	l-4.8-17.8c-0.4-1.3,0-2.7,1-3.7l31.5-31.5c2.5-2.5,1.2-6.7-2.2-7.5c-16.8-3.9-35.2,1-47.8,14.7c-17.4,18.9-17.3,48.3,0.1,67.1
	c19.2,20.8,51.6,21.3,71.5,1.4C420.1,284.8,424.6,267.7,421.2,251.8L421.2,251.8z"/>
<g>
	<g>
		<path class="st3" d="M336.3,295.7c-5.3-5.7-9-12.4-11-19.5l-42.7,42.7c4,6.7,8.9,13,14.6,18.7s12,10.6,18.7,14.6l42.7-42.7
			C350.4,307.1,342.6,302.5,336.3,295.7L336.3,295.7z"/>
	</g>
</g>
<path d="M471.1,269.1c0-63.1-55.5-112-118.6-103.5c1.2-12.4-4.8-26.2-15.8-34.1c1-2.4,1.5-5,1.5-7.8V66.2c0-18.1-15.7-31.2-31.7-30
	c-3.2,0.2-5.9-1.6-6.4-4.4c-3.8-19.2-15.8-28.5-37-28.5h-20.5c-4.1,0-7.5,3.4-7.5,7.5s3.4,7.5,7.5,7.5h20.5
	c17.6,0,20.5,7.8,22.2,16.4c2,10.2,11.6,17.3,22.3,16.5c7.6-0.6,15.5,6,15.5,15v57.6c0,11.8-24.6,5.8-24.6-12.4
	c0-4.1-2.8-7.6-6.7-8.6c-3.9-1-8,0.8-9.9,4.4c-7.5,14-21.9,22.6-37.7,22.6c-9.1,0-76.4,0-85.9,0c-7.3,0-13.7-5.9-13.7-13.7V61
	c0-23.6,19.2-42.8,42.8-42.8h20.1c4.1,0,7.5-3.4,7.5-7.5s-3.4-7.5-7.5-7.5h-20.1c-31.9,0-57.8,25.9-57.8,57.8v55.2
	c0,7.7,3.1,14.8,8.1,19.9c-7,7-11.5,16.8-11.5,26.6c0,18,15.6,32.7,34,34.9c2.5,21.8,14,41.6,32.1,54.5v19.3
	c-0.4,0.2-15.2,5.9-15.7,6.1h-43.8c-15.3,0-27.7,12.4-27.7,27.7v0l-13.4,5.2c0,0-0.1,0-0.1,0.1c-21,8.7-43.7,33.5-43.7,67.5v116.7
	c0,11.3,9.2,20.5,20.5,20.5h342.8c11.3,0,20.5-9.2,20.5-20.5v-44.6c0-4.1-3.4-7.5-7.5-7.5s-7.5,3.4-7.5,7.5v44.6
	c0,3-2.5,5.5-5.5,5.5h-21.4c1-2.6,1.5-5.4,1.5-8.3v-11.7c0-6-4.9-10.9-10.9-10.9h-8.8c1.8-3.6,2.7-7.7,2.7-11.9v-84.2
	c14.1-1,27.6-4.9,40-11.3c1.5,5.3,2.3,10.7,2.3,16.1v37c0,4.1,3.4,7.5,7.5,7.5s7.5-3.4,7.5-7.5v-37c0-8.2-1.4-16.4-4.2-24.2
	C454.2,334.7,471.1,304,471.1,269.1L471.1,269.1z M159.7,182.4c-10.3-2.3-18.5-10.4-18.5-19.6c0-7,4.3-14.6,10.3-18.7
	c3,0.7,5.3,0.8,8.2,0.8V182.4z M319.2,144.8c2.5-0.3,5.1-1.1,7.1-2c8.9,5,13.8,17.5,10,26.4c-5.9,1.8-11.6,4.1-17.1,6.9L319.2,144.8
	z M174.7,188.4v-43.6h69.5c16.3,0,31.9-7,42.7-18.9c3.5,7.3,9.6,13,17.1,16.2c0.1,0,0.1,0.1,0.2,0.1v43.1
	c-21.1,15.8-34.6,38.1-39.7,62C224.3,263.9,174.7,236.2,174.7,188.4L174.7,188.4z M262.6,277.6h-56.3c0.8-1.8,1.1-3.7,1.1-5.9v-11.1
	c16.2,6.8,36.4,8.8,54.9,3.5C262.1,268.5,262.2,273,262.6,277.6z M120.2,305.3c0-7,5.7-12.7,12.7-12.7h132
	c9.6,41.7,44.3,76.1,94.6,80.7v84.2c0,5.2-3.3,10-8.2,11.9H128.4c-4.9-1.9-8.2-6.6-8.2-11.9C120.2,438.1,120.2,309.4,120.2,305.3z
	 M347.5,258.4l4.8,17.8c1,3.9,4.1,7,8,8l17.8,4.8c3.9,1,8.1-0.1,10.9-2.9l26.8-26.8c2.7,39-45.7,60.8-72.9,31.4h0
	c-25.8-27.9-3.8-74,34.9-70.4l-27.3,27.3C347.5,250.3,346.4,254.5,347.5,258.4L347.5,258.4z M346.3,312.2l-30.5,30.5
	c-9-6.2-16.6-13.9-22.7-22.7l30.5-30.5c0.1,0.1,0.1,0.2,0.2,0.4C329,299.2,337,307,346.3,312.2L346.3,312.2z M88.3,480.2v11.7
	c0,2.9,0.5,5.7,1.5,8.3H68.5c-3,0-5.5-2.5-5.5-5.5V378.1c0-28.9,20.5-47.9,34.3-53.6l7.9-3.1v136c0,4.2,1,8.2,2.7,11.9h-8.8
	C93.2,469.3,88.3,474.2,88.3,480.2L88.3,480.2z M376.5,484.3v7.6c0,4.6-3.7,8.3-8.1,8.3H111.5c-4.5,0-8.1-3.7-8.1-8.3v-7.6H376.5z
	 M329.3,350.4l32.5-32.5c40.7,8.6,76.2-27.5,67.7-67.6c-2-9.3-13.4-12.7-20.1-6l-29.6,29.6l-13.6-3.7l-3.7-13.6l30-30
	c6.6-6.6,3.3-18-5.8-20.1c-40.1-9.4-77.4,25.8-68.8,67.4l-32.5,32.5c-27.2-59.4,16.4-126.7,81.3-126.7c49.4,0,89.4,40,89.4,89.4
	C456.1,334.6,388.1,377.4,329.3,350.4L329.3,350.4z"/>
<path d="M222.5,396h22.9c4.1,0,7.5-3.4,7.5-7.5s-3.4-7.5-7.5-7.5h-22.9c-4.1,0-7.5,3.4-7.5,7.5S218.3,396,222.5,396z"/>
</svg>
